<svg xmlns="http://www.w3.org/2000/svg" viewBox="0 0 800 800"><defs><style>.a{fill:none;stroke:#537eff;stroke-linecap:round;stroke-linejoin:round;stroke-width:6px;}.b{fill:#537eff;}</style></defs><title>WOW-crest</title><polyline class="a" points="371.05 640.41 367.41 682.4 432.59 682.4 428.95 640.41"/><polyline class="a" points="247.57 389.11 225.74 389.11 225.74 408 205.54 408 205.54 389.11 184.65 389.11 184.65 408 169.1 408"/><line class="a" x1="88.45" y1="483.91" x2="255.13" y2="483.91"/><polygon class="a" points="133.7 385 150.98 331 168.25 385 133.7 385"/><path class="a" d="M189,483.91V456.79A18.84,18.84,0,0,1,207.75,438h0a18.84,18.84,0,0,1,18.79,18.79v27.12"/><line class="a" x1="150.98" y1="331" x2="150.98" y2="264.33"/><rect class="a" x="125.64" y="264.33" width="25.33" height="25.33"/><line class="a" x1="201.35" y1="439.73" x2="201.35" y2="483.91"/><line class="a" x1="214.04" y1="439.73" x2="214.04" y2="483.91"/><polygon class="a" points="96.21 483.91 119.03 394.33 141.86 483.91 96.21 483.91"/><line class="a" x1="119.04" y1="483.91" x2="119.04" y2="441.12"/><line class="a" x1="144.7" y1="411.33" x2="151.37" y2="411.33"/><line class="a" x1="150.37" y1="422" x2="157.04" y2="422"/><line class="a" x1="144.7" y1="447" x2="151.37" y2="447"/><line class="a" x1="150.37" y1="457.75" x2="157.04" y2="457.75"/><line class="a" x1="181.97" y1="420" x2="188.64" y2="420"/><line class="a" x1="210.7" y1="420" x2="217.37" y2="420"/><line class="a" x1="192.64" y1="428" x2="199.3" y2="428"/><line class="a" x1="223.2" y1="428" x2="229.87" y2="428"/><path class="a" d="M204.54,483.91c-9.75,0-14.83,3.89-17.8,9.84a19,19,0,0,0,1.39,19c4.87,7,14.2,10.25,18,17.88,2.57,5.19,2,11.54-.5,16.77s-6.59,9.52-11,13.27a93.63,93.63,0,0,1-59.91,22.2"/><path class="a" d="M213.87,483.91c-5.32,1.42-9.06,9.51-8.05,15.24s5.09,10,9.59,12.73,9.55,4.5,14,7.31c10.95,6.87,17.81,20.55,17.61,35.07s-10.89,26.12-22.78,38.24"/><line class="a" x1="117.7" y1="525.33" x2="120.37" y2="535"/><line class="a" x1="131.7" y1="516" x2="129.7" y2="536.38"/><line class="a" x1="142.7" y1="524" x2="138.7" y2="535"/><line class="a" x1="229.2" y1="498.1" x2="230.87" y2="504.77"/><line class="a" x1="241.2" y1="495.77" x2="240.2" y2="507.15"/><line class="a" x1="143.54" y1="552.81" x2="146.2" y2="562.48"/><line class="a" x1="155.54" y1="546.48" x2="155.54" y2="563.86"/><line class="a" x1="168.54" y1="552.48" x2="164.54" y2="562.48"/><line class="a" x1="152.37" y1="503" x2="154.7" y2="509"/><line class="a" x1="164.37" y1="496.91" x2="163.04" y2="508"/><line class="a" x1="111.7" y1="503.04" x2="109.37" y2="509.04"/><line class="a" x1="98.7" y1="497.96" x2="101.04" y2="511.04"/><line class="a" x1="132.02" y1="557.09" x2="136.36" y2="563.18"/><line class="a" x1="183.23" y1="528.71" x2="180.9" y2="534.71"/><line class="a" x1="170.23" y1="524.62" x2="171.56" y2="535.71"/><polyline class="a" points="552.42 389.11 574.26 389.11 574.26 408 594.46 408 594.46 389.11 615.35 389.11 615.35 408 630.9 408"/><line class="a" x1="711.55" y1="483.91" x2="544.87" y2="483.91"/><polygon class="a" points="666.3 385 649.02 331 631.75 385 666.3 385"/><path class="a" d="M611,483.91V456.79A18.84,18.84,0,0,0,592.25,438h0a18.84,18.84,0,0,0-18.78,18.79v27.12"/><line class="a" x1="649.02" y1="331" x2="649.02" y2="264.33"/><rect class="a" x="649.02" y="264.33" width="25.33" height="25.33" transform="translate(1323.38 554) rotate(180)"/><line class="a" x1="598.65" y1="439.73" x2="598.65" y2="483.91"/><line class="a" x1="585.97" y1="439.73" x2="585.97" y2="483.91"/><polygon class="a" points="703.79 483.91 680.97 394.33 658.14 483.91 703.79 483.91"/><line class="a" x1="680.97" y1="483.91" x2="680.97" y2="441.12"/><line class="a" x1="655.3" y1="411.33" x2="648.63" y2="411.33"/><line class="a" x1="649.63" y1="422" x2="642.97" y2="422"/><line class="a" x1="655.3" y1="447" x2="648.63" y2="447"/><line class="a" x1="649.63" y1="457.75" x2="642.97" y2="457.75"/><line class="a" x1="618.03" y1="420" x2="611.36" y2="420"/><line class="a" x1="589.3" y1="420" x2="582.63" y2="420"/><line class="a" x1="607.36" y1="428" x2="600.7" y2="428"/><line class="a" x1="576.8" y1="428" x2="570.13" y2="428"/><path class="a" d="M595.47,483.91c9.75,0,14.82,3.89,17.79,9.84a19,19,0,0,1-1.39,19c-4.87,7-14.2,10.25-18,17.88-2.57,5.19-2,11.54.5,16.77s6.59,9.52,11,13.27a93.63,93.63,0,0,0,59.91,22.2"/><path class="a" d="M586.13,483.91c5.32,1.42,9.06,9.51,8,15.24s-5.09,10-9.59,12.73-9.55,4.5-14,7.31c-10.95,6.87-17.81,20.55-17.61,35.07s10.89,26.12,22.79,38.24"/><line class="a" x1="682.3" y1="525.33" x2="679.63" y2="535"/><line class="a" x1="668.3" y1="516" x2="670.3" y2="536.38"/><line class="a" x1="657.3" y1="524" x2="661.3" y2="535"/><line class="a" x1="570.8" y1="498.1" x2="569.13" y2="504.77"/><line class="a" x1="558.8" y1="495.77" x2="559.8" y2="507.15"/><line class="a" x1="656.47" y1="552.81" x2="653.8" y2="562.48"/><line class="a" x1="644.47" y1="546.48" x2="644.47" y2="563.86"/><line class="a" x1="631.47" y1="552.48" x2="635.47" y2="562.48"/><line class="a" x1="647.63" y1="503" x2="645.3" y2="509"/><line class="a" x1="635.63" y1="496.91" x2="636.97" y2="508"/><line class="a" x1="688.3" y1="503.04" x2="690.63" y2="509.04"/><line class="a" x1="701.3" y1="497.96" x2="698.97" y2="511.04"/><line class="a" x1="667.98" y1="557.09" x2="663.64" y2="563.18"/><line class="a" x1="616.77" y1="528.71" x2="619.1" y2="534.71"/><line class="a" x1="629.77" y1="524.62" x2="628.44" y2="535.71"/><line class="a" x1="168.49" y1="200.59" x2="231.19" y2="263.29"/><line class="a" x1="200.92" y1="293.56" x2="138.22" y2="230.86"/><line class="a" x1="262.57" y1="324.95" x2="250" y2="312.37"/><line class="a" x1="611.04" y1="673.41" x2="505.21" y2="567.58"/><circle class="a" cx="137.22" cy="199.59" r="31.29"/><line class="a" x1="152.97" y1="245.61" x2="183.23" y2="215.34"/><line class="a" x1="162.4" y1="255.03" x2="192.66" y2="224.77"/><line class="a" x1="171.82" y1="264.46" x2="202.09" y2="234.19"/><line class="a" x1="181.25" y1="273.89" x2="211.52" y2="243.62"/><line class="a" x1="190.68" y1="283.32" x2="220.95" y2="253.05"/><circle class="a" cx="137.22" cy="199.59" r="15.33"/><path class="a" d="M214.42,276.79a99.3,99.3,0,0,0-26.91,91.15l28.37-6.08a70.54,70.54,0,0,1,8.4-50.93L250,312.37l-1.46-25.7a70.55,70.55,0,0,1,51-8.42l6.08-28.37A99.3,99.3,0,0,0,214.42,276.79Z"/><line class="a" x1="630.66" y1="201.45" x2="569.52" y2="262.58"/><line class="a" x1="599.08" y1="293.56" x2="660.92" y2="231.71"/><circle class="a" cx="662.78" cy="199.59" r="31.29"/><line class="a" x1="647.03" y1="245.61" x2="616.77" y2="215.34"/><line class="a" x1="637.61" y1="255.03" x2="607.34" y2="224.77"/><line class="a" x1="628.18" y1="264.46" x2="597.91" y2="234.19"/><line class="a" x1="618.75" y1="273.89" x2="588.48" y2="243.62"/><line class="a" x1="609.32" y1="283.32" x2="579.05" y2="253.05"/><circle class="a" cx="662.78" cy="199.59" r="15.33"/><path class="a" d="M585.58,276.79a99.3,99.3,0,0,1,26.91,91.15l-28.37-6.08a70.54,70.54,0,0,0-8.4-50.93L550,312.37l1.46-25.7a70.54,70.54,0,0,0-51-8.42l-6.08-28.37A99.3,99.3,0,0,1,585.58,276.79Z"/><path class="a" d="M369.49,88.29a43.94,43.94,0,0,1,61,0"/><rect class="a" x="302.23" y="102.92" width="195.55" height="116.33"/><polygon class="a" points="283.52 208.66 302.23 219.25 302.23 102.92 283.52 113.51 283.52 208.66"/><polygon class="a" points="447.57 88.29 458.17 102.92 341.83 102.92 352.43 88.29 447.57 88.29"/><polygon class="a" points="447.57 233.89 458.17 219.25 341.83 219.25 352.43 233.89 447.57 233.89"/><polygon class="a" points="516.48 208.66 497.77 219.25 497.77 102.92 516.48 113.51 516.48 208.66"/><path class="a" d="M530.55,308.31C446.14,291.62,400,262.58,400,262.58s-46.14,29-130.55,45.73A259.58,259.58,0,0,0,246.2,416c0,105.86,63.13,197,153.8,237.74C490.67,613,553.8,521.9,553.8,416a259.64,259.64,0,0,0-22.52-106.12"/><path class="b" d="M284.7,326h0m-1.35-5.14a4.48,4.48,0,0,0-4.21,2.88,4.5,4.5,0,0,0,2.42,5.89,4.39,4.39,0,0,0,1.73.35,4.56,4.56,0,1,0,.06-9.12Z"/><path class="b" d="M378.87,615.92a4.5,4.5,0,0,0-2.4,8.31l.21.13a4.44,4.44,0,0,0,2.39.69,4.5,4.5,0,0,0,2.39-8.31l-.21-.14a4.51,4.51,0,0,0-2.38-.68Z"/><path class="b" d="M359.14,602.14a4.51,4.51,0,0,0-2.77,8.06l.19.15a4.5,4.5,0,1,0,5.53-7.1l-.2-.16a4.46,4.46,0,0,0-2.75-1Z"/><path class="b" d="M340.88,586.47a4.5,4.5,0,0,0-3.09,7.78l.14.14a4.51,4.51,0,1,0,6.25-6.49l-.22-.2a4.47,4.47,0,0,0-3.08-1.23Z"/><path class="b" d="M324.27,569.06a4.5,4.5,0,0,0-3.4,7.45l.13.15a4.5,4.5,0,1,0,6.86-5.82l-.19-.23a4.5,4.5,0,0,0-3.4-1.55Z"/><path class="b" d="M309.47,550.09a4.49,4.49,0,0,0-3.67,7.1l.12.17a4.5,4.5,0,0,0,7.39-5.14l-.16-.23a4.5,4.5,0,0,0-3.68-1.9Z"/><path class="b" d="M296.62,529.75a4.49,4.49,0,0,0-3.92,6.7l.14.25a4.5,4.5,0,1,0,7.81-4.47l-.1-.18a4.49,4.49,0,0,0-3.93-2.3Z"/><path class="b" d="M285.87,508.23a4.6,4.6,0,0,0-1.8.37,4.49,4.49,0,0,0-2.32,5.92l.1.25a4.5,4.5,0,0,0,8.24-3.63l-.09-.21a4.5,4.5,0,0,0-4.13-2.7Z"/><path class="b" d="M277.33,485.73A4.36,4.36,0,0,0,276,486a4.5,4.5,0,0,0-2.91,5.66l.08.26a4.5,4.5,0,1,0,8.56-2.8l-.07-.21a4.5,4.5,0,0,0-4.29-3.13Z"/><path class="b" d="M271.1,462.49a5.09,5.09,0,0,0-.94.1,4.51,4.51,0,0,0-3.46,5.35l.06.26a4.49,4.49,0,0,0,4.39,3.54,4.65,4.65,0,0,0,1-.11,4.5,4.5,0,0,0,3.43-5.36l-.05-.22a4.51,4.51,0,0,0-4.4-3.56Z"/><path class="b" d="M267.23,438.75l-.52,0a4.5,4.5,0,0,0-4,5l0,.25a4.5,4.5,0,1,0,8.94-1l0-.24a4.5,4.5,0,0,0-4.46-4Z"/><path class="b" d="M265.67,414.73h0a4.5,4.5,0,0,0-4.44,4.56v.26a4.51,4.51,0,0,0,4.5,4.43h.07a4.5,4.5,0,0,0,4.43-4.56v-.24a4.53,4.53,0,0,0-4.55-4.45Z"/><path class="b" d="M271.28,371.62h0m-1.47-4.78a4.49,4.49,0,0,0-4.42,3.68l-.05.24a4.5,4.5,0,0,0,3.6,5.25,4.76,4.76,0,0,0,.83.08,4.5,4.5,0,0,0,4.42-3.68l0-.24a4.49,4.49,0,0,0-3.59-5.25,4.76,4.76,0,0,0-.83-.08Z"/><path class="b" d="M276.87,348.37h0m-1.44-4.92a4.51,4.51,0,0,0-4.32,3.23l-.07.25a4.5,4.5,0,1,0,8.64,2.51l.07-.22a4.51,4.51,0,0,0-3.05-5.59,4.64,4.64,0,0,0-1.27-.18Z"/><path class="b" d="M400.22,633.66h0m-.06-6h-.32a4.5,4.5,0,0,0-1.94,8.54l.09,0a4.56,4.56,0,0,0,2,.47,4.64,4.64,0,0,0,2-.46l.11-.06a4.5,4.5,0,0,0-1.94-8.54Z"/><path class="b" d="M421.91,621.7h0m-.79-5.77a4.54,4.54,0,0,0-2.39.68l-.21.14a4.5,4.5,0,0,0,2.39,8.31,4.44,4.44,0,0,0,2.39-.69l.2-.13a4.49,4.49,0,0,0-2.38-8.31Z"/><path class="b" d="M440.85,602.16a4.51,4.51,0,0,0-2.73.92l-.23.17a4.5,4.5,0,0,0,2.77,8.06,4.46,4.46,0,0,0,2.75-.95l.17-.12a4.5,4.5,0,0,0-2.73-8.08Z"/><path class="b" d="M459.11,586.49a4.48,4.48,0,0,0-3.12,1.25l-.15.14a4.5,4.5,0,1,0,6.18,6.55l.2-.2a4.49,4.49,0,0,0-3.11-7.74Z"/><path class="b" d="M476.85,574.56h0m-1.13-5.48a4.49,4.49,0,0,0-3.41,1.55l-.16.2a4.5,4.5,0,1,0,6.81,5.88l.15-.18a4.5,4.5,0,0,0-3.39-7.45Z"/><path class="b" d="M491.74,555.48h0m-1.22-5.37a4.48,4.48,0,0,0-3.68,1.9l-.14.21a4.5,4.5,0,0,0,7.35,5.19l.14-.2a4.51,4.51,0,0,0-3.67-7.1Z"/><path class="b" d="M504.67,535h0m-1.3-5.24a4.5,4.5,0,0,0-3.91,2.26l-.14.24A4.5,4.5,0,0,0,501,538.4a4.44,4.44,0,0,0,2.21.59,4.5,4.5,0,0,0,3.92-2.29l.11-.2a4.49,4.49,0,0,0-3.9-6.73Z"/><path class="b" d="M515.49,513.36h0m-1.37-5.12a4.51,4.51,0,0,0-4.11,2.68l-.11.25a4.5,4.5,0,0,0,2.32,5.93,4.6,4.6,0,0,0,1.8.37,4.51,4.51,0,0,0,4.13-2.7l.08-.2a4.5,4.5,0,0,0-4.11-6.33Z"/><path class="b" d="M524.09,490.72h0m-1.43-5a4.5,4.5,0,0,0-4.28,3.11l-.08.25a4.5,4.5,0,0,0,2.91,5.66,4.41,4.41,0,0,0,1.37.22,4.5,4.5,0,0,0,4.29-3.13l.07-.22a4.5,4.5,0,0,0-4.28-5.89Z"/><path class="b" d="M530.36,467.33h0m-1.47-4.82a4.49,4.49,0,0,0-4.39,3.55l0,.24a4.5,4.5,0,1,0,8.79,1.91l0-.24a4.53,4.53,0,0,0-4.4-5.46Z"/><path class="b" d="M534.27,443.44h0m-1.51-4.67a4.49,4.49,0,0,0-4.45,4l0,.24a4.5,4.5,0,0,0,4,5l.51,0a4.51,4.51,0,0,0,4.47-4l0-.25a4.52,4.52,0,0,0-4.49-5Z"/><path class="b" d="M534.32,414.76a4.51,4.51,0,0,0-4.54,4.46v.23a4.49,4.49,0,0,0,4.43,4.56h.07a4.51,4.51,0,0,0,4.5-4.43v-.28a4.51,4.51,0,0,0-4.46-4.54Z"/><path class="b" d="M533.43,390.72a2.55,2.55,0,0,0-.39,0,4.49,4.49,0,0,0-4.1,4.86l0,.24a4.5,4.5,0,0,0,4.48,4.13l.38,0a4.5,4.5,0,0,0,4.11-4.86l0-.26a4.5,4.5,0,0,0-4.48-4.11Z"/><path class="b" d="M268.07,395.35h0m-1.49-4.63a4.5,4.5,0,0,0-4.49,4.11l0,.26a4.5,4.5,0,0,0,4.11,4.86l.38,0a4.5,4.5,0,0,0,4.48-4.13l0-.24a4.49,4.49,0,0,0-4.1-4.86,2.48,2.48,0,0,0-.38,0Z"/><path class="b" d="M530.2,366.87a4.78,4.78,0,0,0-.84.08,4.51,4.51,0,0,0-3.59,5.26l.05.23a4.49,4.49,0,0,0,4.42,3.68,3.86,3.86,0,0,0,.82-.08,4.48,4.48,0,0,0,3.6-5.24l0-.26a4.51,4.51,0,0,0-4.42-3.67Z"/><path class="b" d="M524.58,343.48a4.36,4.36,0,0,0-1.28.19,4.49,4.49,0,0,0-3,5.59l.06.22a4.5,4.5,0,0,0,4.32,3.24,4.69,4.69,0,0,0,1.27-.18A4.51,4.51,0,0,0,529,347l-.08-.25a4.49,4.49,0,0,0-4.31-3.22Z"/><path class="b" d="M516.54,320.82a4.58,4.58,0,0,0,.17,9.15,4.58,4.58,0,0,0,1.69-.33,4.5,4.5,0,0,0,2.48-5.86l-.06-.16a4.54,4.54,0,0,0-3.2-2.67l-.14,0a4.31,4.31,0,0,0-.94-.11Z"/><path class="b" d="M422.23,291a4.5,4.5,0,0,0-1.78,8.63l.21.1a4.45,4.45,0,0,0,1.8.38,4.5,4.5,0,0,0,1.81-8.63l-.25-.11a4.52,4.52,0,0,0-1.79-.37Zm23,9.22a4.5,4.5,0,0,0-1.58,8.71l.27.1a4.42,4.42,0,0,0,1.55.28,4.5,4.5,0,0,0,1.55-8.73l-.22-.08a4.57,4.57,0,0,0-1.57-.28Zm23.44,8a4.5,4.5,0,0,0-1.35,8.8l.25.08a4.5,4.5,0,1,0,2.68-8.59l-.24-.08a4.46,4.46,0,0,0-1.34-.21Zm23.79,6.84a4.5,4.5,0,0,0-1.15,8.85l.27.07a4.46,4.46,0,0,0,1.14.15,4.5,4.5,0,0,0,1.13-8.85l-.22-.06a4.29,4.29,0,0,0-1.17-.16Z"/><path class="b" d="M400,280.46a4.69,4.69,0,0,0-2.21.54,4.5,4.5,0,0,0,2.08,8.49h.2a4.5,4.5,0,0,0,2.08-8.49l-.1-.05a4.42,4.42,0,0,0-2.05-.49Z"/><path class="b" d="M378.37,296.91h0m-23.06,9.24h0m-23.52,8h0M307.93,321h0m69.84-30a4.47,4.47,0,0,0-1.78.37l-.23.1a4.5,4.5,0,0,0,3.56,8.27l.24-.11a4.5,4.5,0,0,0-1.79-8.63Zm-23,9.21a4.46,4.46,0,0,0-1.55.28l-.26.1a4.5,4.5,0,1,0,3.14,8.43l.22-.08a4.5,4.5,0,0,0-1.55-8.73Zm-23.44,8a4.52,4.52,0,0,0-1.35.21l-.24.07a4.5,4.5,0,1,0,2.69,8.59l.24-.07a4.5,4.5,0,0,0-1.34-8.8Zm-23.79,6.84a4.6,4.6,0,0,0-1.15.15l-.26.07a4.5,4.5,0,0,0,1.15,8.85,4.68,4.68,0,0,0,1.16-.15l.23-.06a4.5,4.5,0,0,0-1.13-8.86Z"/><line class="a" x1="356.95" y1="324.67" x2="443.05" y2="324.67"/><line class="a" x1="409.37" y1="341.52" x2="500.36" y2="341.52"/><line class="a" x1="299.64" y1="341.52" x2="383.09" y2="341.52"/><line class="a" x1="475.7" y1="358.38" x2="507.77" y2="358.38"/><line class="a" x1="409.54" y1="358.38" x2="446.7" y2="358.38"/><line class="a" x1="292.22" y1="358.38" x2="384.09" y2="358.38"/><line class="a" x1="463.04" y1="375.24" x2="511.85" y2="375.24"/><line class="a" x1="288.98" y1="375.24" x2="329.04" y2="375.24"/><line class="a" x1="466.54" y1="392.09" x2="514.51" y2="392.09"/><line class="a" x1="410.14" y1="392.09" x2="417.23" y2="392.09"/><line class="a" x1="376.04" y1="392.09" x2="384.03" y2="392.09"/><line class="a" x1="285.48" y1="392.09" x2="350.79" y2="392.09"/><line class="a" x1="494.43" y1="408.95" x2="515.03" y2="408.95"/><line class="a" x1="410.03" y1="408.95" x2="424.54" y2="408.95"/><line class="a" x1="376.04" y1="408.95" x2="384.03" y2="408.95"/><line class="a" x1="284.15" y1="408.95" x2="350.79" y2="408.95"/><line class="a" x1="470.53" y1="425.81" x2="516.03" y2="425.81"/><line class="a" x1="410.04" y1="425.81" x2="419.04" y2="425.81"/><line class="a" x1="376.04" y1="425.81" x2="384.03" y2="425.81"/><line class="a" x1="285.34" y1="425.81" x2="350.79" y2="425.81"/><line class="a" x1="466.54" y1="442.66" x2="514.65" y2="442.66"/><line class="a" x1="410.14" y1="442.66" x2="426.9" y2="442.66"/><line class="a" x1="376.04" y1="442.66" x2="384.03" y2="442.66"/><line class="a" x1="285.34" y1="442.66" x2="350.79" y2="442.66"/><line class="a" x1="466.04" y1="459.52" x2="512.09" y2="459.52"/><line class="a" x1="376.04" y1="459.52" x2="384.03" y2="459.52"/><line class="a" x1="287.92" y1="459.52" x2="350.79" y2="459.52"/><line class="a" x1="408.14" y1="476.38" x2="507.87" y2="476.38"/><line class="a" x1="376.04" y1="476.38" x2="384.03" y2="476.38"/><line class="a" x1="291.87" y1="476.38" x2="350.79" y2="476.38"/><line class="a" x1="439.03" y1="493.23" x2="502.7" y2="493.23"/><line class="a" x1="408.14" y1="493.23" x2="413.03" y2="493.23"/><line class="a" x1="376.04" y1="493.23" x2="384.03" y2="493.23"/><line class="a" x1="297.84" y1="493.23" x2="326.79" y2="493.23"/><line class="a" x1="438.7" y1="510.09" x2="495.69" y2="510.09"/><line class="a" x1="304.34" y1="510.09" x2="359.04" y2="510.09"/><line class="a" x1="436.37" y1="526.95" x2="486.89" y2="526.95"/><line class="a" x1="313.11" y1="526.95" x2="381.59" y2="526.95"/><line class="a" x1="438.04" y1="543.8" x2="476.07" y2="543.8"/><line class="a" x1="409.14" y1="527.67" x2="414.04" y2="527.67"/><line class="a" x1="409.14" y1="544" x2="414.04" y2="544"/><line class="a" x1="323.93" y1="543.8" x2="384.7" y2="543.8"/><line class="a" x1="353.43" y1="577.52" x2="446.53" y2="577.52"/><line class="a" x1="373.91" y1="594.37" x2="426.23" y2="594.37"/><line class="a" x1="444.04" y1="425.81" x2="447.04" y2="425.81"/><path class="a" d="M297.64,341.91A217.88,217.88,0,0,0,400,610.62,218.06,218.06,0,0,0,502.36,341.91c-48.78-11.14-83.54-26-102.36-35.4C381.18,315.87,346.42,330.77,297.64,341.91Z"/><line class="a" x1="337.16" y1="560.66" x2="462.84" y2="560.66"/><line class="a" x1="363.89" y1="377.61" x2="363.89" y2="499.09"/><line class="a" x1="340.04" y1="493.4" x2="425.14" y2="516.3"/><line class="a" x1="426.23" y1="492.95" x2="426.23" y2="544"/><path class="a" d="M338.29,375h80.06a42.06,42.06,0,1,1,0,84.11h-9.8"/><line class="a" x1="396.31" y1="342" x2="396.31" y2="543.82"/><line class="a" x1="436.04" y1="408.95" x2="481.54" y2="408.95"/><line class="a" x1="429.67" y1="392.09" x2="463.38" y2="358.38"/><line class="a" x1="429.67" y1="425.81" x2="454.41" y2="462.67"/><polygon class="a" points="376.66 201.51 353.32 161.09 376.66 120.67 423.34 120.67 446.68 161.09 423.34 201.51 376.66 201.51"/><polygon class="a" points="400 189.33 414.1 181.68 414.1 168.68 426.79 161.09 413.39 137.89 400 143.89 386.61 137.89 373.21 161.09 385.9 168.68 385.9 181.68 400 189.33"/><polyline class="a" points="385.9 181.68 400 174.83 414.1 181.68"/><line class="a" x1="400" y1="174.83" x2="400" y2="165.17"/><polyline class="a" points="387.54 155.5 393.7 155.5 395.54 165.17 404.46 165.17 406.3 155.5 412.46 155.5"/><line class="a" x1="331.71" y1="121.51" x2="336.8" y2="116.43"/><line class="a" x1="302.23" y1="151" x2="323.96" y2="129.26"/><line class="a" x1="324.69" y1="147.54" x2="336.8" y2="135.43"/><line class="a" x1="302.23" y1="170" x2="317.8" y2="154.43"/><line class="a" x1="332.73" y1="158.5" x2="336.8" y2="154.43"/><line class="a" x1="302.23" y1="189" x2="326.01" y2="165.21"/><line class="a" x1="469.29" y1="201.53" x2="464.2" y2="206.61"/><line class="a" x1="497.77" y1="173.04" x2="476.04" y2="194.78"/><line class="a" x1="475.31" y1="176.51" x2="463.2" y2="188.61"/><line class="a" x1="497.77" y1="154.04" x2="482.2" y2="169.61"/><line class="a" x1="467.27" y1="165.54" x2="463.2" y2="169.61"/><line class="a" x1="497.77" y1="135.04" x2="473.99" y2="158.83"/><line class="a" x1="337.72" y1="187.62" x2="357.34" y2="168"/><line class="a" x1="350.06" y1="194.28" x2="364.22" y2="180.11"/><line class="a" x1="337.72" y1="206.62" x2="343.19" y2="201.15"/><line class="a" x1="363.77" y1="199.57" x2="371.05" y2="192.29"/><line class="a" x1="354.52" y1="208.82" x2="357.6" y2="205.73"/><line class="a" x1="429.18" y1="127.78" x2="444.36" y2="112.6"/><line class="a" x1="456.06" y1="119.9" x2="461.36" y2="114.6"/><line class="a" x1="435.92" y1="140.04" x2="449.87" y2="126.09"/><line class="a" x1="453.39" y1="142.04" x2="461.36" y2="133.6"/><line class="a" x1="442.53" y1="153.43" x2="446.94" y2="148.78"/><line class="a" x1="329.34" y1="632.67" x2="326.67" y2="642.33"/><line class="a" x1="315.34" y1="623.33" x2="317.34" y2="643.71"/><line class="a" x1="304.34" y1="631.33" x2="308.34" y2="642.33"/><line class="a" x1="473.54" y1="654.97" x2="470.87" y2="664.63"/><line class="a" x1="459.54" y1="645.63" x2="461.54" y2="666.01"/><line class="a" x1="448.54" y1="653.63" x2="452.54" y2="664.63"/><line class="a" x1="292.4" y1="657.91" x2="290.06" y2="663.91"/><line class="a" x1="280.4" y1="651.82" x2="281.73" y2="662.91"/><line class="a" x1="343.56" y1="658.86" x2="345.89" y2="664.86"/><line class="a" x1="356.56" y1="653.78" x2="354.23" y2="666.86"/><line class="a" x1="527.8" y1="665.55" x2="525.13" y2="675.22"/><line class="a" x1="515.8" y1="659.22" x2="515.8" y2="676.6"/><line class="a" x1="502.8" y1="665.22" x2="506.8" y2="675.22"/><line class="a" x1="539.31" y1="669.83" x2="534.97" y2="675.91"/><line class="a" x1="318.84" y1="682.99" x2="316.17" y2="692.66"/><line class="a" x1="306.84" y1="676.66" x2="306.84" y2="694.03"/><line class="a" x1="293.84" y1="682.66" x2="297.84" y2="692.66"/><line class="a" x1="330.35" y1="687.26" x2="326.02" y2="693.35"/><line class="a" x1="479.38" y1="626.19" x2="481.72" y2="632.19"/><line class="a" x1="492.38" y1="622.1" x2="491.05" y2="633.19"/><line class="a" x1="470.87" y1="687.36" x2="473.2" y2="693.36"/><line class="a" x1="483.87" y1="683.28" x2="482.54" y2="694.36"/><polyline class="a" points="358.41 699.39 367.41 682.41 432.59 682.41 441.59 699.39"/><line class="a" x1="350" y1="699.54" x2="450" y2="699.54"/><path class="a" d="M359,700.3C368.71,710.5,383.47,717,400,717s31.29-6.51,41.05-16.71"/><path class="a" d="M163.7,368.24a28.49,28.49,0,1,0-45.46-31.77,21.33,21.33,0,0,0-3.6-.3,21.84,21.84,0,0,0-18,34.16h41.6"/><polyline class="a" points="125.64 279.67 113.31 279.67 113.31 305 138.64 305 138.64 289.67"/><path class="a" d="M166.78,189.73a23.36,23.36,0,0,1,32.83,11.9,17.89,17.89,0,0,1,17.71,27.75h-20"/><path class="a" d="M283.08,136.34a21,21,0,0,0-8.67,1.86,28.49,28.49,0,0,0-52.25,1.63,22.42,22.42,0,0,0-3.6-.3,21.84,21.84,0,0,0-18,34.17h83"/><path class="a" d="M283.55,185a28.65,28.65,0,0,0-13.93,15.06,21.3,21.3,0,0,0-3.59-.3,21.83,21.83,0,0,0-18,34.16h64.45a28.57,28.57,0,0,0,10.8-14.68"/><line class="a" x1="432.59" y1="234.19" x2="428.95" y2="277.18"/><line class="a" x1="371.05" y1="277.18" x2="367.41" y2="234.19"/><path class="a" d="M369.14,254.61a28.49,28.49,0,0,0-30.93,17.62,21.33,21.33,0,0,0-3.6-.3,21.87,21.87,0,0,0-21.46,25.88"/><path class="a" d="M482.27,296.48a26.08,26.08,0,0,0-34.51-32.17,28.58,28.58,0,0,0-16.46-14.78"/><path class="a" d="M516.45,122.26a28.52,28.52,0,0,1,24.41,17.89,22.42,22.42,0,0,1,3.6-.3,21.83,21.83,0,0,1,18,34.17H517"/><polyline class="a" points="522.74 539.51 598.49 615.25 611.04 673.41 552.88 660.86 484.52 592.5"/><line class="a" x1="263.26" y1="280.02" x2="287.64" y2="304.4"/><line class="a" x1="252.2" y1="360.18" x2="217.65" y2="325.63"/><polyline class="a" points="133.7 451.89 133.7 385 168.25 385 168.25 483.91"/><line class="a" x1="536.74" y1="280.02" x2="512.37" y2="304.4"/><line class="a" x1="547.78" y1="360.2" x2="582.35" y2="325.63"/><line class="a" x1="537.43" y1="324.94" x2="550" y2="312.37"/><line class="a" x1="188.96" y1="673.41" x2="294.79" y2="567.58"/><path class="a" d="M630.66,198.42a26.23,26.23,0,0,0-17,.81,28.5,28.5,0,0,0-52.26,1.64,21.3,21.3,0,0,0-3.59-.3,21.83,21.83,0,0,0-18,34.16h56.48"/><path class="a" d="M636,368a28.5,28.5,0,1,1,45.79-31.48,21.42,21.42,0,0,1,3.6-.3,21.84,21.84,0,0,1,18,34.16H661.69"/><polyline class="a" points="674.36 279.67 686.69 279.67 686.69 305 661.36 305 661.36 289.67"/><polyline class="a" points="277.26 539.51 201.51 615.25 188.96 673.41 247.12 660.86 315.26 592.72"/><polyline class="a" points="666.3 451.89 666.3 385 631.75 385 631.75 483.91"/></svg>