<svg xmlns="http://www.w3.org/2000/svg" viewBox="0 0 800 800"><defs><style>.a{fill:none;stroke:#ffb500;stroke-linecap:round;stroke-linejoin:round;stroke-width:6px;}.b{fill:#ffb500;}</style></defs><title>WOW-crest</title><line class="a" x1="600.36" y1="301.36" x2="600.36" y2="301.36"/><path class="a" d="M424.4,252.49c7.93,18.19,13,45.1,13,75.13,0,54.8-16.72,99.23-37.35,99.23s-37.35-44.43-37.35-99.23c0-30,5-56.94,13-75.13-31.49,18.51-54.25,71.89-54.25,134.86,0,44,11.13,83.39,28.59,109.4a23.87,23.87,0,1,1,33.13,33.45L400,603.9l16.93-73.7a23.87,23.87,0,1,1,33.13-33.45c17.46-26,28.59-65.36,28.59-109.4C478.65,324.38,455.89,271,424.4,252.49Z"/><path class="a" d="M450.05,496.77h0Z"/><path class="a" d="M350,496.77v0h0Z"/><line class="a" x1="321.74" y1="373.04" x2="351.93" y2="413.05"/><line class="a" x1="324.99" y1="430.14" x2="351.93" y2="443.99"/><line class="a" x1="336.84" y1="471.88" x2="359.22" y2="471.88"/><line class="a" x1="478.26" y1="373.04" x2="448.07" y2="413.05"/><line class="a" x1="475.01" y1="430.14" x2="448.07" y2="443.99"/><line class="a" x1="463.16" y1="471.88" x2="440.78" y2="471.88"/><ellipse class="a" cx="379.72" cy="454.09" rx="10.79" ry="10.58"/><ellipse class="a" cx="368.93" cy="510.27" rx="10.79" ry="10.58"/><ellipse class="a" cx="431.07" cy="510.27" rx="10.79" ry="10.58"/><ellipse class="a" cx="420.28" cy="454.09" rx="10.79" ry="10.58"/><polyline class="a" points="382.52 414.92 400 375.18 417.48 414.92"/><path class="a" d="M400,82c-53.27,82.31-32.27,122.59-32.27,122.59h0c5.46,13.35,17.85,22.68,32.27,22.68s26.81-9.33,32.27-22.68h0S453.27,164.32,400,82Z"/><path class="a" d="M400,49.29c-79.9,111.89-48.4,166.63-48.4,166.63h0a53.41,53.41,0,0,0,96.8,0h0S479.9,161.18,400,49.29Z"/><path class="a" d="M446.34,272.75s73.19,47.36,51.41,162.12c17.84-5.34,28.2-15.89,40.12-29.95-6.45,36.28-25,69.06-58.35,86.12,18.92-.38,35.73-6.31,51.31-16.82-1.68,19.39-18.89,35.45-32.42,49.72-36,37.91-67.34,69.48-98.41,163.5-31.07-94-62.46-125.59-98.41-163.5-13.53-14.27-30.74-30.33-32.42-49.72,15.58,10.51,32.39,16.44,51.31,16.82-33.3-17.06-51.9-49.84-58.35-86.12,11.92,14.06,22.28,24.61,40.12,29.95-21.78-114.76,51.41-162.12,51.41-162.12"/><line class="a" x1="400" y1="375.18" x2="400" y2="298.29"/><path class="a" d="M382.52,414.92l-5.61,13.28s-17.05,6.62-8,25.89"/><path class="a" d="M417.48,414.92l5.61,13.28s17.05,6.62,8,25.89"/><line class="a" x1="400" y1="603.9" x2="400" y2="687.44"/><path class="a" d="M223.63,349.82s12.48,33.29,22.79,42.14c0,0,0-16.1,6.51-25.32C252.93,366.64,231.77,357.42,223.63,349.82Z"/><path class="a" d="M264.32,381.83s9.76,16.81,16.82,21.7c0,0-2.17-28.76,5.42-56.42C286.56,347.11,264.86,368.81,264.32,381.83Z"/><path class="a" d="M239.36,308.05s.55,25.5,8.14,39.06l11.37,7.05L270,341.69A266.46,266.46,0,0,1,239.36,308.05Z"/><path class="a" d="M276.52,260.32s-8.89,30.86-10.58,53.52l14.11,18.81,16.27-6.51S282,298.29,276.52,260.32Z"/><path class="a" d="M308.62,196.3c-13.43,19-20.25,41.23-20.25,41.23s2.16,23.52,17.35,68.72l20.35-29.1C303.71,240.68,308.62,196.3,308.62,196.3Z"/><path class="a" d="M400,112c-29.72,55.53-18,82.7-18,82.7h0c3.05,9,10,15.3,18,15.3s15-6.29,18-15.3h0S429.72,167.57,400,112Z"/><path class="a" d="M259.44,449.09c-9.61-13.65-13.51-32.92-13.51-32.92l-24.47,3.09s10.85,42.85,33.64,67.81C255.1,487.07,251.12,463.58,259.44,449.09Z"/><path class="a" d="M576.37,349.82S563.89,383.11,553.58,392c0,0,0-16.1-6.51-25.32C547.07,366.64,568.23,357.42,576.37,349.82Z"/><path class="a" d="M535.68,381.83s-9.76,16.81-16.82,21.7c0,0,2.17-28.76-5.42-56.42C513.44,347.11,535.14,368.81,535.68,381.83Z"/><path class="a" d="M560.64,308.05s-.55,25.5-8.14,39.06l-11.37,7.05L530,341.69A266.46,266.46,0,0,0,560.64,308.05Z"/><path class="a" d="M523.48,260.32s8.89,30.86,10.58,53.52L520,332.65l-16.27-6.51S518,298.29,523.48,260.32Z"/><path class="a" d="M491.38,196.3c13.43,19,20.25,41.23,20.25,41.23s-2.16,23.52-17.35,68.72l-20.35-29.1C496.29,240.68,491.38,196.3,491.38,196.3Z"/><path class="a" d="M540.56,449.09c9.61-13.65,13.51-32.92,13.51-32.92l24.47,3.09s-10.85,42.85-33.64,67.81C544.9,487.07,548.88,463.58,540.56,449.09Z"/><path class="a" d="M363.85,650.16c-5.27-9.59-10.45-13.66-17.58-14.21s-14.78,4-16.33,10.93c-1.72,7.71,4,15.07,10.12,20s13.39,9.23,16.82,16.35A19.44,19.44,0,0,1,338,711.1c-4.52-.31-9.09-2.41-11.53-6.23s-2.18-9.42,1.19-12.45,9.67-2.18,11.52,2"/><path class="a" d="M348,622.91c-11,1.77-23.8-5.78-31.86-13.53s-15.37-16.86-25.67-21.22a31,31,0,0,0-26.63,1c-8.06,4.42-13.75,13.15-14,22.34s5.33,18.41,13.78,22c15.1,6.48,33.34-5.08,48.6,1-2.65-9.86-11.71-19.47-21.77-21.19-5-.86-10.22-.27-15.33-.43s-10.52-1.23-14.24-4.75-6.54-11-2.94-14.63"/><path class="a" d="M238.28,622.42s-2.45-17.54-11.9-19.44a7.88,7.88,0,0,0-9.13,10.64C220.57,622.67,238.28,622.42,238.28,622.42Z"/><path class="a" d="M165.29,495.13S148.1,499.4,147.2,509a7.88,7.88,0,0,0,11.54,8C167.39,512.71,165.29,495.13,165.29,495.13Z"/><path class="a" d="M259.26,651.61c-2.83,6.56-10.06,10.44-18.12,11.15s-16.84-1.44-25-4.88-15.94-8.11-23.63-12.76c6.74-8.47,19.95-12.68,32.77-11.1S250.87,641.27,259.26,651.61Z"/><path class="a" d="M97.31,434.3c4.38-1.91,7-6.74,7.42-12.13s-1-11.24-3.3-16.71a122.16,122.16,0,0,0-8.56-15.76c-5.65,4.51-8.44,13.34-7.36,21.9S90.39,428.7,97.31,434.3Z"/><path class="a" d="M329.68,649.18c-8.05-2.19-16.62-2.9-24.75-1s-15.77,6.52-20.38,13.48-5.83,16.28-2.29,23.83a19.18,19.18,0,0,0,10.85,10.06,15.47,15.47,0,0,0,14.4-2.24,13,13,0,0,0,4.45-13.6c-1.51-4.84-6.62-8.4-11.65-7.75s-9.15,5.77-8.36,10.78"/><path class="a" d="M284.41,659.71c-7.58-5.65-15.54-8.88-25-8.3"/><path class="b" d="M372.41,700.67a3.78,3.78,0,1,0,3.78,3.78,3.77,3.77,0,0,0-3.78-3.78Z"/><path class="b" d="M377.85,712a3.78,3.78,0,1,0,3.77,3.78,3.78,3.78,0,0,0-3.77-3.78Z"/><path class="b" d="M364.86,710a3.78,3.78,0,1,0,3.78,3.78,3.78,3.78,0,0,0-3.78-3.78Z"/><path class="b" d="M262.32,669.47a3.78,3.78,0,0,0-1.49,7.26,3.91,3.91,0,0,0,1.48.3,3.78,3.78,0,0,0,1.48-7.26,3.65,3.65,0,0,0-1.47-.3Z"/><path class="b" d="M262.9,682a3.78,3.78,0,0,0-1.49,7.26,3.73,3.73,0,0,0,1.48.3,3.78,3.78,0,0,0,1.48-7.25,3.66,3.66,0,0,0-1.47-.31Z"/><path class="b" d="M251.69,675.12a3.78,3.78,0,0,0-1.48,7.26,3.7,3.7,0,0,0,1.48.3,3.78,3.78,0,0,0,1.48-7.25,3.67,3.67,0,0,0-1.48-.31Z"/><path class="b" d="M246.89,551.6a3.79,3.79,0,1,0,2.34.82,3.76,3.76,0,0,0-2.34-.82Z"/><path class="b" d="M235.15,550.25a3.78,3.78,0,1,0,2.34.82,3.78,3.78,0,0,0-2.34-.82Z"/><path class="b" d="M225.36,557.09a3.77,3.77,0,1,0,2.34.81,3.74,3.74,0,0,0-2.34-.81Z"/><path class="b" d="M199.92,441.88a3.77,3.77,0,1,0,1.88.5,3.78,3.78,0,0,0-1.88-.5Z"/><path class="b" d="M200.3,453.69a3.77,3.77,0,1,0,1.88.5,3.78,3.78,0,0,0-1.88-.5Z"/><path class="b" d="M208.49,462.37a3.78,3.78,0,1,0,1.89.51,3.73,3.73,0,0,0-1.89-.51Z"/><path class="a" d="M266.54,588c-3.84-7.87-12.53-12.31-21.12-14-6.37-1.27-13.13-1.31-19.2,1s-11.36,7.18-13.14,13.43-.06,13.75,5.49,17.13"/><path class="a" d="M300.07,559.74c-1.95,7.74-8.77,11.17-16.74,11.73a21.8,21.8,0,0,1-21.09-13.09c-1.95-4.73-2.13-10-3.44-14.93a33.37,33.37,0,0,0-40.89-23.67"/><path class="a" d="M211.35,491.6c-5-5.58-9.35-9-14.57-14s-9.08-10.18-11-22.51c-3.37,17.46-.64,37.42,7,51.28-5.24,1.8-10.9.47-15.57-3.63,4.22,10.46,11.09,18.31,18.8,21.5,6.09,2.51,17.72,4,21.86-5.56C221.89,509.51,216.1,496.92,211.35,491.6Z"/><path class="a" d="M209.14,557.59a40.78,40.78,0,0,1-38.75,9.63,27.24,27.24,0,0,1-12.65-7.29c-3.34-3.62-5.31-8.68-4.55-13.54s4.6-9.31,9.47-10.09,10.22,2.74,10.82,7.63-4.49,9.78-9.24,8.46"/><path class="a" d="M199.07,564.57c-9.29,8.51-23.77,15.45-34.77,17.08s-23.29-1-30.5-9.49c-8.7-10.22-8.8-25.25-7.33-38.59,2.14-19.4,5.64-31.57,17.5-43.4,7.91-7.9,17.67-14.45,22.58-24.49,4-8.26,4.7-13.88.72-22.17s-14.69-13.91-23.86-14.62-18.67,4.32-22.75,12.57c-7.28,14.73,3.28,33.56-3.61,48.48,10-2.12,20.07-10.65,22.33-20.6,1.14-5,.83-10.18,1.26-15.28s1.8-10.44,5.51-14,14.11-5.49,17.56-1.7"/><path class="a" d="M150.53,516.48c.37,4-2.06,7.69-4.85,10.55a37.13,37.13,0,0,1-18.5,10.27"/><path class="a" d="M147.14,580.54s-13.34-8.38-5.86-25.21"/><path class="a" d="M221.6,544.9s-19.32,8.43-31-2.4"/><path class="a" d="M258.53,542.5s-32.66-12.5-49.39,15.09c-8.83,14.57-15.7,25.24-13.65,43.75.58,5.19.72,10.84-2.37,15-3.73,5.08-11.27,6.6-17,4s-9.5-8.71-10-15c-.26-3.14.28-6.49,2.27-8.93s5.67-3.64,8.44-2.14,3.55,6,1,7.88"/><path class="a" d="M133.75,503.92c-6.62,3.59-13.92,6.44-21.45,6.21S97,506,93.88,499.17c-3-6.53-1.33-14.23,1.42-20.86s6.53-12.93,7.86-20a30.36,30.36,0,0,0-6.6-24.9"/><line class="a" x1="347.63" y1="116.1" x2="341.42" y2="82.34"/><line class="a" x1="316.25" y1="95.04" x2="314.46" y2="88.5"/><line class="a" x1="327.27" y1="135.25" x2="318.94" y2="104.86"/><line class="a" x1="302.24" y1="135.25" x2="288.13" y2="96.95"/><line class="a" x1="309.39" y1="154.65" x2="305.81" y2="144.95"/><line class="a" x1="267.93" y1="118.94" x2="262.62" y2="107.6"/><line class="a" x1="293.7" y1="173.9" x2="272.86" y2="129.45"/><line class="a" x1="242.39" y1="127.82" x2="238.1" y2="120.4"/><line class="a" x1="268.75" y1="173.45" x2="248.57" y2="138.51"/><line class="a" x1="280.21" y1="193.28" x2="274.48" y2="183.36"/><line class="a" x1="232.13" y1="160.12" x2="214.77" y2="135.24"/><line class="a" x1="270.02" y1="214.39" x2="239.43" y2="170.57"/><line class="a" x1="200.31" y1="161.04" x2="192.8" y2="152.02"/><line class="a" x1="235.14" y1="202.83" x2="206.82" y2="168.85"/><line class="a" x1="259.44" y1="231.98" x2="242.39" y2="211.53"/><line class="a" x1="177.92" y1="176.27" x2="172.33" y2="170.62"/><line class="a" x1="224.81" y1="223.63" x2="187.41" y2="185.85"/><line class="a" x1="253.15" y1="252.26" x2="243.99" y2="243.01"/><line class="a" x1="192.79" y1="224.3" x2="153.53" y2="190.89"/><line class="a" x1="214.78" y1="243.01" x2="201.81" y2="231.98"/><line class="a" x1="156.82" y1="227.18" x2="136.53" y2="212.7"/><line class="a" x1="212.27" y1="266.73" x2="164.79" y2="232.86"/><line class="a" x1="129.21" y1="240.47" x2="121.45" y2="235.88"/><line class="a" x1="172.33" y1="265.97" x2="139.84" y2="246.75"/><line class="a" x1="210.26" y1="288.41" x2="183.79" y2="272.75"/><line class="a" x1="127.07" y1="269.24" x2="108.4" y2="260.26"/><line class="a" x1="187.41" y1="298.29" x2="137.55" y2="274.29"/><line class="a" x1="102.78" y1="287.67" x2="97.48" y2="285.66"/><line class="a" x1="136.52" y1="300.5" x2="113.02" y2="291.56"/><line class="a" x1="187.41" y1="319.83" x2="147.14" y2="304.53"/><line class="a" x1="113.02" y1="318.82" x2="88.77" y2="311.9"/><line class="a" x1="190.61" y1="340.93" x2="122.9" y2="321.63"/><line class="a" x1="89.98" y1="340.28" x2="82.33" y2="338.8"/><line class="a" x1="194.38" y1="359.99" x2="100.67" y2="342.36"/><line class="a" x1="133.74" y1="372.09" x2="78.22" y2="366.14"/><line class="a" x1="182.44" y1="377.31" x2="147.14" y2="373.52"/><line class="a" x1="156.77" y1="395.44" x2="109.69" y2="394.44"/><line class="a" x1="182.44" y1="395.99" x2="169.61" y2="395.72"/><line class="a" x1="184.79" y1="413.95" x2="127.26" y2="415.03"/><line class="a" x1="189.6" y1="430.82" x2="174.33" y2="433.32"/><path class="a" d="M366.24,654.69c-2.63-3.35-7.75-3.85-10.62-3.92A15.93,15.93,0,0,0,343.14,656a10.43,10.43,0,0,0-.35,13.06"/><path class="a" d="M436.15,650.16c5.27-9.59,10.45-13.66,17.58-14.21s14.78,4,16.33,10.93c1.72,7.71-4,15.07-10.12,20s-13.39,9.23-16.82,16.35A19.44,19.44,0,0,0,462,711.1c4.52-.31,9.09-2.41,11.53-6.23s2.18-9.42-1.19-12.45-9.67-2.18-11.52,2"/><path class="a" d="M452,622.91c11,1.77,23.8-5.78,31.86-13.53s15.37-16.86,25.67-21.22a31,31,0,0,1,26.63,1c8.06,4.42,13.75,13.15,14,22.34s-5.33,18.41-13.78,22c-15.1,6.48-33.34-5.08-48.6,1,2.65-9.86,11.71-19.47,21.77-21.19,5-.86,10.22-.27,15.33-.43s10.52-1.23,14.24-4.75,6.54-11,2.94-14.63"/><path class="a" d="M561.72,622.42s2.45-17.54,11.9-19.44a7.88,7.88,0,0,1,9.13,10.64C579.43,622.67,561.72,622.42,561.72,622.42Z"/><path class="a" d="M634.71,495.13S651.9,499.4,652.8,509a7.88,7.88,0,0,1-11.54,8C632.61,512.71,634.71,495.13,634.71,495.13Z"/><path class="a" d="M540.74,651.61c2.83,6.56,10.06,10.44,18.12,11.15s16.84-1.44,25-4.88,15.94-8.11,23.63-12.76c-6.74-8.47-19.95-12.68-32.77-11.1S549.13,641.27,540.74,651.61Z"/><path class="a" d="M702.69,434.3c-4.38-1.91-7-6.74-7.42-12.13s1-11.24,3.3-16.71a122.16,122.16,0,0,1,8.56-15.76c5.65,4.51,8.44,13.34,7.36,21.9S709.61,428.7,702.69,434.3Z"/><path class="a" d="M470.32,649.18c8.05-2.19,16.62-2.9,24.75-1s15.77,6.52,20.38,13.48,5.83,16.28,2.29,23.83a19.18,19.18,0,0,1-10.85,10.06,15.47,15.47,0,0,1-14.4-2.24,13,13,0,0,1-4.45-13.6c1.51-4.84,6.62-8.4,11.65-7.75s9.15,5.77,8.36,10.78"/><path class="a" d="M515.59,659.71c7.58-5.65,15.54-8.88,25-8.3"/><path class="b" d="M427.58,700.67a3.78,3.78,0,1,0,3.78,3.78,3.77,3.77,0,0,0-3.78-3.78Z"/><path class="b" d="M422.15,712a3.78,3.78,0,1,0,3.78,3.78,3.77,3.77,0,0,0-3.78-3.78Z"/><path class="b" d="M435.14,710a3.78,3.78,0,1,0,3.78,3.78,3.78,3.78,0,0,0-3.78-3.78Z"/><path class="b" d="M537.68,669.47a3.65,3.65,0,0,0-1.47.3,3.78,3.78,0,0,0,1.48,7.26,3.91,3.91,0,0,0,1.48-.3,3.78,3.78,0,0,0-1.49-7.26Z"/><path class="b" d="M537.1,682a3.66,3.66,0,0,0-1.47.31,3.78,3.78,0,0,0,1.48,7.25,3.73,3.73,0,0,0,1.48-.3A3.78,3.78,0,0,0,537.1,682Z"/><path class="b" d="M548.31,675.12a3.67,3.67,0,0,0-1.48.31,3.78,3.78,0,0,0,1.48,7.25,3.7,3.7,0,0,0,1.48-.3,3.78,3.78,0,0,0-1.48-7.26Z"/><path class="b" d="M553.11,551.6a3.78,3.78,0,1,0,3,1.44,3.75,3.75,0,0,0-3-1.44Z"/><path class="b" d="M564.85,550.25a3.78,3.78,0,1,0,3,1.43,3.75,3.75,0,0,0-3-1.43Z"/><path class="b" d="M574.64,557.09a3.77,3.77,0,0,0-3,6.12,3.79,3.79,0,0,0,3,1.44,3.78,3.78,0,1,0,0-7.56Z"/><path class="b" d="M600.08,441.88a3.78,3.78,0,1,0,3.28,1.89,3.76,3.76,0,0,0-3.28-1.89Z"/><path class="b" d="M599.7,453.69a3.78,3.78,0,1,0,3.28,1.89,3.76,3.76,0,0,0-3.28-1.89Z"/><path class="b" d="M591.51,462.37a3.73,3.73,0,0,0-1.89.51,3.78,3.78,0,0,0,1.89,7.05,3.82,3.82,0,0,0,1.89-.5,3.78,3.78,0,0,0-1.89-7.06Z"/><path class="a" d="M533.46,588c3.84-7.87,12.53-12.31,21.12-14,6.37-1.27,13.13-1.31,19.2,1s11.36,7.18,13.14,13.43.06,13.75-5.49,17.13"/><path class="a" d="M499.93,559.74c1.95,7.74,8.77,11.17,16.74,11.73a21.8,21.8,0,0,0,21.09-13.09c2-4.73,2.13-10,3.44-14.93a33.37,33.37,0,0,1,40.89-23.67"/><path class="a" d="M588.65,491.6c5-5.58,9.35-9,14.57-14s9.08-10.18,11-22.51c3.37,17.46.64,37.42-7,51.28,5.24,1.8,10.9.47,15.57-3.63-4.22,10.46-11.09,18.31-18.8,21.5-6.09,2.51-17.72,4-21.86-5.56C578.11,509.51,583.9,496.92,588.65,491.6Z"/><path class="a" d="M590.86,557.59a40.78,40.78,0,0,0,38.75,9.63,27.24,27.24,0,0,0,12.65-7.29c3.34-3.62,5.31-8.68,4.55-13.54s-4.6-9.31-9.47-10.09-10.22,2.74-10.82,7.63,4.49,9.78,9.24,8.46"/><path class="a" d="M600.93,564.57c9.29,8.51,23.77,15.45,34.77,17.08s23.29-1,30.5-9.49c8.7-10.22,8.8-25.25,7.33-38.59-2.14-19.4-5.64-31.57-17.5-43.4-7.91-7.9-17.67-14.45-22.58-24.49-4-8.26-4.7-13.88-.72-22.17s14.69-13.91,23.86-14.62,18.67,4.32,22.75,12.57c7.28,14.73-3.28,33.56,3.61,48.48-10-2.12-20.07-10.65-22.33-20.6-1.14-5-.83-10.18-1.26-15.28s-1.8-10.44-5.51-14-14.11-5.49-17.56-1.7"/><path class="a" d="M649.47,516.48c-.37,4,2.06,7.69,4.85,10.55a37.13,37.13,0,0,0,18.5,10.27"/><path class="a" d="M652.86,580.54s13.34-8.38,5.86-25.21"/><path class="a" d="M578.4,544.9s19.32,8.43,31-2.4"/><path class="a" d="M541.47,542.5s32.66-12.5,49.39,15.09c8.83,14.57,15.7,25.24,13.65,43.75-.58,5.19-.72,10.84,2.37,15,3.73,5.08,11.27,6.6,17,4s9.5-8.71,10-15c.26-3.14-.28-6.49-2.27-8.93s-5.67-3.64-8.44-2.14-3.55,6-1,7.88"/><path class="a" d="M666.25,503.92c6.62,3.59,13.92,6.44,21.45,6.21s15.29-4.12,18.42-11c3-6.53,1.33-14.23-1.42-20.86s-6.53-12.93-7.86-20a30.36,30.36,0,0,1,6.6-24.9"/><line class="a" x1="452.37" y1="116.1" x2="458.58" y2="82.34"/><line class="a" x1="483.75" y1="95.04" x2="485.54" y2="88.5"/><line class="a" x1="472.73" y1="135.25" x2="481.06" y2="104.86"/><line class="a" x1="497.76" y1="135.25" x2="511.87" y2="96.95"/><line class="a" x1="490.61" y1="154.65" x2="494.19" y2="144.95"/><line class="a" x1="532.07" y1="118.94" x2="537.38" y2="107.6"/><line class="a" x1="506.3" y1="173.9" x2="527.14" y2="129.45"/><line class="a" x1="557.61" y1="127.82" x2="561.9" y2="120.4"/><line class="a" x1="531.25" y1="173.45" x2="551.43" y2="138.51"/><line class="a" x1="519.79" y1="193.28" x2="525.52" y2="183.36"/><line class="a" x1="567.87" y1="160.12" x2="585.23" y2="135.24"/><line class="a" x1="529.98" y1="214.39" x2="560.57" y2="170.57"/><line class="a" x1="599.69" y1="161.04" x2="607.2" y2="152.02"/><line class="a" x1="564.86" y1="202.83" x2="593.18" y2="168.85"/><line class="a" x1="540.56" y1="231.98" x2="557.61" y2="211.53"/><line class="a" x1="622.08" y1="176.27" x2="627.67" y2="170.62"/><line class="a" x1="575.19" y1="223.63" x2="612.59" y2="185.85"/><line class="a" x1="546.85" y1="252.26" x2="556.01" y2="243.01"/><line class="a" x1="607.21" y1="224.3" x2="646.47" y2="190.89"/><line class="a" x1="585.22" y1="243.01" x2="598.19" y2="231.98"/><line class="a" x1="643.18" y1="227.18" x2="663.47" y2="212.7"/><line class="a" x1="587.73" y1="266.73" x2="635.21" y2="232.86"/><line class="a" x1="670.79" y1="240.47" x2="678.55" y2="235.88"/><line class="a" x1="627.67" y1="265.97" x2="660.16" y2="246.75"/><line class="a" x1="589.74" y1="288.41" x2="616.21" y2="272.75"/><line class="a" x1="672.93" y1="269.24" x2="691.6" y2="260.26"/><line class="a" x1="612.59" y1="298.29" x2="662.45" y2="274.29"/><line class="a" x1="697.22" y1="287.67" x2="702.52" y2="285.66"/><line class="a" x1="663.48" y1="300.5" x2="686.98" y2="291.56"/><line class="a" x1="612.59" y1="319.83" x2="652.86" y2="304.53"/><line class="a" x1="686.98" y1="318.82" x2="711.23" y2="311.9"/><line class="a" x1="609.39" y1="340.93" x2="677.1" y2="321.63"/><line class="a" x1="710.02" y1="340.28" x2="717.67" y2="338.8"/><line class="a" x1="605.62" y1="359.99" x2="699.33" y2="342.36"/><line class="a" x1="666.26" y1="372.09" x2="721.78" y2="366.14"/><line class="a" x1="617.56" y1="377.31" x2="652.86" y2="373.52"/><line class="a" x1="643.23" y1="395.44" x2="690.31" y2="394.44"/><line class="a" x1="617.56" y1="395.99" x2="630.39" y2="395.72"/><line class="a" x1="615.21" y1="413.95" x2="672.74" y2="415.03"/><line class="a" x1="610.4" y1="430.82" x2="625.67" y2="433.32"/><path class="a" d="M433.76,654.69c2.63-3.35,7.75-3.85,10.62-3.92A15.93,15.93,0,0,1,456.86,656a10.43,10.43,0,0,1,.35,13.06"/><path class="a" d="M370.31,256a56.86,56.86,0,0,1-22.43-26.06,51.9,51.9,0,0,0,13.5,33.86"/><path class="a" d="M426.54,257.79a56.72,56.72,0,0,1-53.07,0"/><path class="a" d="M438.62,263.78a51.9,51.9,0,0,0,13.5-33.86A56.77,56.77,0,0,1,429.68,256"/><path class="a" d="M369.34,270.94a52.17,52.17,0,0,0,61.32,0"/><path class="a" d="M448.59,276.05a84.39,84.39,0,0,0,16.8-27.48s15.65-32.46,3.89-98.24c0,0,59.87,45.69,77.35,147.54,0,0,13.59-21.26,23.3-59.33,0,0,14.24,62.82,3.24,96.46a88.92,88.92,0,0,0,27.19-33.64S599.06,361,568.64,402.9c0,0,25.24-14,35-29.86,0,0,3.8,80.93-84.55,166.93C420.28,636.1,400,744,400,744S379.72,636.1,281,540C192.61,454,196.4,373,196.4,373c9.72,15.84,35,29.86,35,29.86C200.94,361,199.64,301.36,199.64,301.36A88.92,88.92,0,0,0,226.83,335c-11-33.64,3.24-96.46,3.24-96.46,9.71,38.07,23.3,59.33,23.3,59.33C270.85,196,331.05,148.5,331.05,148.5"/><path class="a" d="M365.72,288.09a62.71,62.71,0,0,0,68.55,0"/><path class="a" d="M331.05,148.5c-12.38,67,3.56,100.07,3.56,100.07A84.55,84.55,0,0,0,351.32,276"/></svg>