<svg xmlns="http://www.w3.org/2000/svg" viewBox="0 0 800 800"><defs><style>.a{fill:none;stroke:#f5c2a6;stroke-linecap:round;stroke-linejoin:round;stroke-width:6px;}</style></defs><title>WOW-crest</title><path class="a" d="M273.13,554.16a176,176,0,0,1-50.69-56.95q-1.2-2.13-2.33-4.29"/><line class="a" x1="207.61" y1="533.96" x2="234.05" y2="515.38"/><line class="a" x1="230.47" y1="560.36" x2="253.01" y2="538.09"/><polygon class="a" points="241.74 471.5 260.5 483.38 265 462.87 241.74 471.5"/><path class="a" d="M597.87,432.32a175.93,175.93,0,0,1-27.54,71.08q-1.35,2-2.76,4"/><line class="a" x1="609.79" y1="499.83" x2="581.2" y2="484.78"/><line class="a" x1="622.86" y1="467.45" x2="592.75" y2="457.55"/><polygon class="a" points="538.64 497.96 540.65 475.84 520.35 481.2 538.64 497.96"/><path class="a" d="M557.52,325.22a176.15,176.15,0,0,1,15,74.74c0,1.63-.08,3.26-.16,4.88"/><line class="a" x1="603.9" y1="375.71" x2="571.7" y2="378.41"/><line class="a" x1="597.48" y1="341.38" x2="566.77" y2="349.25"/><path class="a" d="M122.37,339.94q1.08-5.19,2.35-10.32"/><path class="a" d="M116.74,411.59q-.33-6.75-.32-13.59a286.55,286.55,0,0,1,3.73-46.15"/><path class="a" d="M125.77,470.48q-1.89-7.14-3.41-14.43"/><path class="a" d="M153.2,537.77A281.58,281.58,0,0,1,129.7,484"/><path class="a" d="M168.37,561.64q-4.22-6-8.14-12.14"/><path class="a" d="M209.43,608q-3.5-3.18-6.89-6.47"/><path class="a" d="M285.14,657.36a283.4,283.4,0,0,1-65-40.14"/><path class="a" d="M309,666.68q-5.9-2-11.68-4.24"/><path class="a" d="M572.87,622.82a283.11,283.11,0,0,1-83.75,44.48"/><path class="a" d="M646.85,537.68a284.38,284.38,0,0,1-38.08,52.24"/><path class="a" d="M657.4,517q-2.39,5.15-5,10.18"/><path class="a" d="M599.13,599.91q-4,4-8.22,7.79"/><path class="a" d="M679.1,448.5q-1.32,7.31-3,14.47"/><path class="a" d="M679.75,351.25a287.27,287.27,0,0,1,1.47,83.5"/><path class="a" d="M675.71,331.36q1,4.38,2,8.81"/><path class="a" d="M581.2,179.85q4,3.33,7.9,6.82"/><path class="a" d="M518.34,140.22a282.87,282.87,0,0,1,49.23,29"/><path class="a" d="M490.7,129.23q6.94,2.34,13.73,5"/><path class="a" d="M432.08,116.21a283.6,283.6,0,0,1,47.25,9.45"/><path class="a" d="M300.37,132.41c2.95-1.1,5.93-2.17,8.93-3.18"/><path class="a" d="M209.7,187.74a283.9,283.9,0,0,1,75.44-49.1"/><path class="a" d="M143.93,437.06a261,261,0,0,1,7.93-113.51"/><path class="a" d="M149.61,464.48q-1.77-6.68-3.18-13.49"/><path class="a" d="M168.85,515q-2.37-4.67-4.55-9.45"/><path class="a" d="M209.43,573.4a260,260,0,0,1-33.37-45.19"/><path class="a" d="M218.53,582.8q-4.67-4.59-9.1-9.4"/><path class="a" d="M258.32,614.85A259.08,259.08,0,0,1,231,594.26"/><path class="a" d="M336.32,649.11a257.2,257.2,0,0,1-63.73-25.56"/><path class="a" d="M531,621.48a257.58,257.58,0,0,1-67.35,27.64"/><path class="a" d="M595.5,567.89a260.12,260.12,0,0,1-50.14,44.5"/><path class="a" d="M616.46,540.27q-2.37,3.6-4.86,7.12"/><path class="a" d="M654.08,448.5A257.26,257.26,0,0,1,623.47,529"/><path class="a" d="M657.39,425q-.63,5.7-1.51,11.34"/><path class="a" d="M659,390c0,1.66,0,3.33,0,5q0,2.1,0,4.2"/><path class="a" d="M646.52,318.36a257.75,257.75,0,0,1,11.65,58.7"/><path class="a" d="M543.55,182.38a260.64,260.64,0,0,1,39.59,32.48"/><path class="a" d="M475,150a257.57,257.57,0,0,1,56.53,24.81"/><path class="a" d="M229.35,203.17a258.73,258.73,0,0,1,36.7-26.88"/><path class="a" d="M216.65,215.07q2-2,4.09-4"/><path class="a" d="M91.71,393a309.6,309.6,0,0,1,7.18-61.64"/><path class="a" d="M92.74,423.85q-.8-9.64-1-19.44"/><path class="a" d="M116.75,520q-2.41-5.61-4.63-11.34"/><path class="a" d="M147.28,574.68a307.91,307.91,0,0,1-24.5-41.56"/><path class="a" d="M165.29,598q-3.9-4.56-7.61-9.28"/><path class="a" d="M232,656.56q-6-3.93-11.86-8.12"/><path class="a" d="M302.08,690.45a306.06,306.06,0,0,1-59-27"/><path class="a" d="M504.67,688.11q-4.47,1.6-9,3.09"/><path class="a" d="M556.88,663.49a308.13,308.13,0,0,1-40.61,20.16"/><path class="a" d="M578.94,649.12q-6,4.26-12.15,8.25"/><path class="a" d="M649.76,578.83c-1,1.33-1.94,2.66-2.93,4"/><path class="a" d="M682.6,521.49a307.78,307.78,0,0,1-26.49,48.25"/><path class="a" d="M689.39,504.65q-1.3,3.54-2.69,7"/><path class="a" d="M708.32,396c0,.66,0,1.33,0,2q0,8.22-.43,16.33"/><path class="a" d="M700.72,329.63a308.19,308.19,0,0,1,7,48.78"/><path class="a" d="M556.72,132.42A309.45,309.45,0,0,1,600,163.28"/><path class="a" d="M534.51,120.48q5.16,2.51,10.2,5.19"/><path class="a" d="M481.14,100.46q7.77,2.12,15.36,4.62"/><path class="a" d="M453.92,94.38q8.15,1.44,16.13,3.29"/><path class="a" d="M289.23,110.21q7.72-3,15.51-5.52"/><path class="a" d="M258.33,124.08q7.28-3.78,14.79-7.18"/><path class="a" d="M200.05,163.29a309.39,309.39,0,0,1,45.44-32.17"/><path class="a" d="M340.5,624.75A238,238,0,0,1,268,592.09"/><path class="a" d="M383.14,632.11q-4.5-.32-8.95-.8"/><path class="a" d="M484,617.23a234.19,234.19,0,0,1-84,15.48"/><path class="a" d="M506.94,607q-5.55,2.85-11.27,5.4"/><path class="a" d="M586.69,540.27a236,236,0,0,1-37.05,38.56"/><path class="a" d="M632.05,362.55a237.6,237.6,0,0,1,1.25,61.3"/><path class="a" d="M627.47,339.94q1.42,5.56,2.57,11.24"/><path class="a" d="M590.77,261.23a234.12,234.12,0,0,1,32.7,64.8"/><path class="a" d="M518.34,195.26q4.49,2.63,8.85,5.44"/><path class="a" d="M273.12,200.5q4.22-2.7,8.54-5.23"/><path class="a" d="M237.45,228.69q3.21-3.09,6.53-6"/><path class="a" d="M198.74,277.17a235.12,235.12,0,0,1,30.61-40.31"/><path class="a" d="M188.12,296.9q2.48-5.19,5.21-10.24"/><path class="a" d="M178.89,319.08q2.12-5.94,4.55-11.74"/><path class="a" d="M166.64,372.66a233,233,0,0,1,8.77-43"/><path class="a" d="M165.31,394.67q.08-5.21.37-10.36"/><path class="a" d="M184.22,490.5a233.54,233.54,0,0,1-18.78-83.9"/><path class="a" d="M454.12,334.21l9.7-15.34c-17.72-21.46-25.1-47.27-25.1-75.1V157L411,129.23V313.41l3.57,2.2A83.33,83.33,0,0,1,454.12,334.21Z"/><path class="a" d="M519.05,376.73h0a75.84,75.84,0,0,0-55.21-115.51v22.48a41.63,41.63,0,0,1,24.61,38c0,12.15-7.8,25.65-16.47,33.63A83.67,83.67,0,0,1,426,477.53V584.82l18.49,30.72,6.94-69.71c5.56-46.33,25.76-79.17,56.82-108.74l36.44-34.7Z"/><path class="a" d="M385.45,315.61l3.57-2.2V99.23L361.28,127V243.77c0,27.83-7.38,53.64-25.1,75.1l9.7,15.34A83.33,83.33,0,0,1,385.45,315.61Z"/><path class="a" d="M291.74,437.09a178.26,178.26,0,0,1,54.53,112l9.23,86.65L374,605.27V477.53A83.67,83.67,0,0,1,328,355.32c-8.67-8-16.47-21.48-16.47-33.63a41.63,41.63,0,0,1,24.61-38V261.23A75.84,75.84,0,0,0,281,376.74h0L255.3,402.39l36.44,34.7"/><polygon class="a" points="430.65 447.1 430.65 360.9 400 324.27 369.35 360.9 369.35 447.1 400 483.73 430.65 447.1"/><polyline class="a" points="400 324.27 410.08 380.75 430.65 360.9"/><polyline class="a" points="369.35 360.9 399.09 412.6 410.08 380.75"/><polyline class="a" points="430.65 447.1 399.09 412.6 369.35 447.1"/><line class="a" x1="399.09" y1="412.6" x2="400" y2="483.73"/><polygon class="a" points="445.59 651.23 354.41 651.23 315.65 683.65 354.41 716.08 445.59 716.08 484.35 683.65 445.59 651.23"/><polyline class="a" points="315.65 683.65 379.86 677.45 354.41 651.23"/><polyline class="a" points="354.41 716.08 411.78 692.64 379.86 677.45"/><polyline class="a" points="445.59 651.23 411.78 692.64 445.59 716.08"/><polygon class="a" points="157.68 304.77 204.41 226.46 196.42 176.57 148.72 193.24 102 271.54 109.98 321.44 157.68 304.77"/><polyline class="a" points="196.42 176.57 168.85 234.89 204.41 226.46"/><polyline class="a" points="148.72 193.24 139.45 254.51 168.85 234.89"/><polyline class="a" points="157.68 304.77 139.45 254.51 102 271.54"/><polygon class="a" points="642.32 304.77 595.59 226.46 603.58 176.57 651.28 193.24 698 271.54 690.02 321.44 642.32 304.77"/><polyline class="a" points="603.58 176.57 631.15 234.89 595.59 226.46"/><polyline class="a" points="651.28 193.24 660.55 254.51 631.15 234.89"/><polyline class="a" points="642.32 304.77 660.55 254.51 698 271.54"/><line class="a" x1="226.02" y1="428.92" x2="194.2" y2="434.57"/><line class="a" x1="223.29" y1="399.1" x2="190.98" y2="399.3"/><line class="a" x1="225.65" y1="369.25" x2="193.76" y2="363.99"/><line class="a" x1="233" y1="340.23" x2="202.47" y2="329.66"/><line class="a" x1="245.15" y1="312.86" x2="216.84" y2="297.29"/><line class="a" x1="261.75" y1="287.94" x2="236.47" y2="267.81"/><line class="a" x1="340.15" y1="231.73" x2="329.21" y2="201.33"/><line class="a" x1="461.26" y1="232.25" x2="472.46" y2="201.94"/><line class="a" x1="334.36" y1="562.08" x2="322.36" y2="592.09"/><line class="a" x1="402.48" y1="574.71" x2="402.94" y2="607.02"/><path class="a" d="M523.3,234.94s23,10.73,34.08,31.75"/><line class="a" x1="562.12" y1="227.88" x2="542.38" y2="247.98"/><line class="a" x1="477.61" y1="592.09" x2="465.64" y2="562.08"/><polygon class="a" points="278.33 214.06 258.67 209 255 232.89 274.39 232.86 278.33 214.06"/><polygon class="a" points="514.06 571.33 504.67 590.58 527 603 533.26 580.67 514.06 571.33"/><polygon class="a" points="549.07 291.15 568.78 281.22 588.75 291.79 545.09 313.02 549.07 291.15"/><path class="a" d="M526.32,419.9l103.39,18a208.26,208.26,0,0,1-32.47,83.44q-1.79,2.67-3.63,5.28l-40.12-29.48,3.88-39.34-43.2,10.45-21-15.44"/><path class="a" d="M326.53,483.27,253.68,580a208.26,208.26,0,0,1-59.43-67c-1.05-1.87-2.06-3.75-3.05-5.64l44.54-22.25L269,506.51l10.41-43.2,25.3-12.64"/><path class="a" d="M514.65,291.78l66.87-39.27c-.69-1.14-1.4-2.27-2.13-3.38A129.91,129.91,0,0,0,539.59,210l-41.82,64.12"/><path class="a" d="M544.66,403l60,3.93c.1-2.12.17-4.26.21-6.4a208.21,208.21,0,0,0-17.54-87.8l-56.76,23.76"/><path class="a" d="M393.83,331.64a66.64,66.64,0,0,0-40.92,113.51,56.24,56.24,0,0,1,16.44-77.95"/><path class="a" d="M430.65,367.2a56.24,56.24,0,0,1,16.44,77.95,66.64,66.64,0,0,0-40.92-113.51"/><path class="a" d="M389,114.63q5.46-.21,11-.21c5.13,0,10.24.13,15.3.4"/><path class="a" d="M326.35,124.07a283.21,283.21,0,0,1,46.17-8.34"/><path class="a" d="M281,167.89a256.87,256.87,0,0,1,80.27-26"/><path class="a" d="M438.72,166.47a233.1,233.1,0,0,1,65.71,21.27"/><path class="a" d="M389,163.54q5.45-.25,11-.25c3.67,0,7.33.08,11,.25"/><path class="a" d="M293.07,189a232.92,232.92,0,0,1,68.21-22.54"/><path class="a" d="M361.28,192.6a207.74,207.74,0,0,0-68.42,25.94L285.33,247l-29.89.08a209.22,209.22,0,0,0-51.82,222.56l0,0,88.2-32.17"/><path class="a" d="M410.94,189.29c-3.62-.18-7.27-.28-10.94-.28s-7.34.1-11,.28"/><path class="a" d="M477.4,264.4l28.17-46.79a207.7,207.7,0,0,0-66.73-25"/><path class="a" d="M438.74,225.58a175.74,175.74,0,0,1,50.17,19.71"/><path class="a" d="M389,221.66q5.44-.34,11-.34t11,.34"/><path class="a" d="M234,458.57a176.85,176.85,0,0,1,127.28-233"/><path class="a" d="M348.17,567A176.31,176.31,0,0,1,309,549.5"/><path class="a" d="M426,572.78a178.84,178.84,0,0,1-52,0"/><path class="a" d="M533.26,514a176.79,176.79,0,0,1-84,53.71"/><path class="a" d="M445.86,601.93A207.33,207.33,0,0,0,488,587.61l21.7-36.8,21.2,10.73c10.33-8.11,17.87-16.17,26.51-26L481.27,467.7"/><path class="a" d="M374,605.38a211.1,211.1,0,0,0,63.37-1.72"/><path class="a" d="M335.68,503.46l-44.5,73,0,0a208,208,0,0,0,60.68,25"/><path class="a" d="M421.64,139.89a258.68,258.68,0,0,1,40.52,6.62"/><path class="a" d="M389,139.23c3.64-.15,7.29-.23,11-.23s7.31.08,10.94.23"/></svg>