<svg xmlns="http://www.w3.org/2000/svg" viewBox="0 0 800 800"><defs><style>.a,.b,.c,.d{fill:none;stroke:#ff4500;stroke-width:6px;}.a,.c{stroke-linecap:round;}.a,.d{stroke-linejoin:round;}.b,.c{stroke-miterlimit:10;}</style></defs><title>WOW-crest</title><path class="a" d="M570.45,165s-14.42,16.34-8.63,26.69a9.7,9.7,0,0,0,17.26,0C584.87,181.34,570.45,165,570.45,165Z"/><path class="b" d="M331.09,617.82C245.56,589.06,184,508.22,184,413c0-119.32,96.72-216,216-216s216,96.72,216,216c0,95.47-61.92,176.47-147.79,205"/><path class="b" d="M335,552.12a153.54,153.54,0,1,1,129.85.09"/><path class="b" d="M333.44,603.76A202.08,202.08,0,0,1,198,413c0-111.55,90.44-202,202-202s202,90.44,202,202A202.08,202.08,0,0,1,465.8,604"/><circle class="b" cx="400" cy="235.59" r="10.86"/><circle class="b" cx="460.71" cy="246.31" r="10.86"/><circle class="b" cx="514.09" cy="277.15" r="10.86"/><circle class="b" cx="553.69" cy="324.39" r="10.86"/><circle class="b" cx="574.74" cy="382.34" r="10.86"/><circle class="b" cx="574.68" cy="443.99" r="10.86"/><circle class="b" cx="553.53" cy="501.9" r="10.86"/><circle class="b" cx="513.84" cy="549.07" r="10.86"/><circle class="b" cx="285.65" cy="548.64" r="10.86"/><circle class="b" cx="246.14" cy="501.32" r="10.86"/><circle class="b" cx="225.21" cy="443.33" r="10.86"/><circle class="b" cx="225.38" cy="381.68" r="10.86"/><circle class="b" cx="246.64" cy="323.82" r="10.86"/><circle class="b" cx="286.42" cy="276.72" r="10.86"/><circle class="b" cx="339.92" cy="246.08" r="10.86"/><circle class="b" cx="536" cy="299.09" r="3.12"/><circle class="b" cx="566.77" cy="352.51" r="3.12"/><circle class="b" cx="577.41" cy="413.23" r="3.12"/><circle class="b" cx="566.62" cy="473.93" r="3.12"/><circle class="b" cx="535.71" cy="527.27" r="3.12"/><circle class="b" cx="488.41" cy="566.81" r="3.12"/><circle class="b" cx="310.91" cy="566.42" r="3.12"/><circle class="b" cx="263.78" cy="526.66" r="3.12"/><circle class="b" cx="233.11" cy="473.19" r="3.12"/><circle class="b" cx="222.59" cy="412.44" r="3.12"/><circle class="b" cx="233.5" cy="351.77" r="3.12"/><circle class="b" cx="264.51" cy="298.48" r="3.12"/><circle class="b" cx="311.88" cy="259.03" r="3.15"/><circle class="b" cx="369.89" cy="238.17" r="3.12"/><circle class="b" cx="430.89" cy="238.17" r="3.12"/><circle class="b" cx="489.7" cy="258.47" r="3.12"/><line class="c" x1="264.54" y1="340.69" x2="264.54" y2="485.32"/><line class="c" x1="283.89" y1="312.55" x2="283.89" y2="513.45"/><line class="c" x1="303.25" y1="428" x2="303.25" y2="529.49"/><line class="c" x1="303.25" y1="293.8" x2="303.25" y2="393"/><line class="c" x1="322.6" y1="443.99" x2="322.6" y2="545.61"/><line class="c" x1="322.6" y1="280.4" x2="322.6" y2="369"/><line class="c" x1="341.95" y1="270.51" x2="341.95" y2="327"/><line class="c" x1="361.3" y1="264.4" x2="361.3" y2="330"/><line class="c" x1="380.65" y1="261.84" x2="380.65" y2="312.67"/><line class="c" x1="400" y1="458.67" x2="400" y2="548.64"/><line class="c" x1="400" y1="259.47" x2="400" y2="298.48"/><line class="c" x1="535.46" y1="341.69" x2="535.46" y2="484.17"/><line class="c" x1="516.11" y1="312.67" x2="516.11" y2="513.45"/><line class="c" x1="496.75" y1="428" x2="496.75" y2="532.87"/><line class="c" x1="496.75" y1="293.79" x2="496.75" y2="393"/><line class="c" x1="477.4" y1="443.99" x2="477.4" y2="545.61"/><line class="c" x1="477.4" y1="280.4" x2="477.4" y2="369"/><line class="c" x1="458.05" y1="270.84" x2="458.05" y2="327"/><line class="c" x1="438.7" y1="264.4" x2="438.7" y2="330"/><line class="c" x1="419.35" y1="260.68" x2="419.35" y2="312.67"/><polyline class="d" points="607.46 352.51 698.58 412.44 607.33 473.93"/><line class="d" x1="698.58" y1="412.44" x2="652.95" y2="412.91"/><polyline class="d" points="616.29 388.79 652.95 412.91 616.24 437.65"/><polyline class="d" points="192.54 352.51 101.42 412.44 192.67 473.93"/><line class="d" x1="101.42" y1="412.44" x2="147.05" y2="412.91"/><polyline class="d" points="183.71 388.79 147.05 412.91 183.76 437.65"/><polyline class="d" points="460.49 205.54 400.56 84.42 339.07 205.67"/><line class="d" x1="400.56" y1="84.42" x2="400.09" y2="147.05"/><polyline class="d" points="424.21 196.71 400.09 147.05 375.35 196.76"/><polyline class="d" points="201.17 497.64 171.24 550.36 231.85 548.64"/><line class="d" x1="171.24" y1="550.36" x2="214.95" y2="524.55"/><polyline class="d" points="598.83 497.64 628.76 550.36 568.15 548.64"/><line class="d" x1="628.76" y1="550.36" x2="585.05" y2="524.55"/><polygon class="d" points="426.88 409.58 400 382.7 400 382.7 400 382.7 373.13 409.58 400 436.45 400 436.45 400 436.45 426.88 409.58"/><path class="d" d="M490.75,410.58,461.38,379.2v-34h-32L400,315.82,370.63,345.2h-32v34l-29.37,31.38L342.94,437l-.32,33H360.3l21.54,49.54V451.69c-13.59-5.91-28.27-24.52-28.27-44.11,0-24.54,21.89-44.43,46.43-44.43s46.43,19.89,46.43,44.43c0,19.59-14.68,38.2-28.27,44.11V519.5L439.7,470h17.68l-.32-33Z"/><line class="a" x1="422.59" y1="548.71" x2="376.75" y2="548.71"/><polyline class="a" points="425.74 681.56 475.21 657.93 464.8 598.27"/><polyline class="a" points="334.4 598.27 323.99 657.93 373.45 681.56"/><polygon class="a" points="377.49 550.11 350.2 498.64 334.71 538.89 334.38 598.26 377.49 550.11"/><polyline class="a" points="366.25 560.7 351.15 532.87 348.6 544.15 346.92 584.26"/><polyline class="a" points="424.41 599.05 442.33 599.05 449 646.71 420.41 663.87"/><path class="a" d="M422.07,639.8c15.25-4.45,12.63-24.87,12.63-24.87s-26.79,7-21,37.5L430.89,694,413.7,719l-14.1-9.53L385.49,719l-17.18-25,17.15-41.61c7.79-30.51-21-37.5-21-37.5s-2.62,20.42,12.63,24.87"/><polyline class="a" points="413.7 719.04 399.6 728.57 385.49 719.04"/><polygon class="a" points="421.7 550.11 449 498.64 464.49 538.89 464.82 598.26 421.7 550.11"/><polyline class="a" points="432.95 560.7 448.05 532.87 450.59 544.15 452.28 584.26"/><polygon class="a" points="399.6 702.71 386.43 688.96 399.6 682.84 412.77 688.96 399.6 702.71"/><polyline class="a" points="374.79 599.05 356.87 599.05 350.2 646.71 378.79 663.87"/><path class="a" d="M165.3,121.05s25.65-3.12,43.11,15"/><path class="d" d="M164.26,192.44c-8.33,19.92-37.44,17.28-41.84-1.84C95.91,199,76.13,204.8,48.79,204.06v.13L67.85,224.8c-11.17,19.66-11,54.25,11.5,78.45a98.88,98.88,0,0,0,10,10l-1,36.3,32.77-23.47,9.65,28.21,25.7-43.85,15.23,19.78,25-48c-22.26-2.69-22.51-28.57-6.37-38.78,3.64-2.3,7.26-4.23,11.25-4.63"/><path class="b" d="M235.05,116.52a43.73,43.73,0,0,0-59.1-6.81h0a43.73,43.73,0,0,0-10.86,58.48"/><line class="b" x1="277.65" y1="174.01" x2="250.47" y2="137.22"/><line class="b" x1="309.3" y1="216.87" x2="292.99" y2="194.78"/><line class="b" x1="578.95" y1="581.88" x2="560.79" y2="557.3"/><path class="b" d="M538,673.15a43.72,43.72,0,0,0,59.87,7.75h0a43.73,43.73,0,0,0,10.19-59.5"/><line class="b" x1="490.7" y1="609.14" x2="509.04" y2="633.97"/><line class="b" x1="222.87" y1="246.58" x2="238" y2="267.06"/><line class="b" x1="180.35" y1="189.02" x2="207.53" y2="225.81"/><line class="a" x1="278.94" y1="205.15" x2="292.65" y2="223.7"/><line class="a" x1="266.66" y1="214.22" x2="280.37" y2="232.78"/><line class="a" x1="549.36" y1="571.22" x2="565.12" y2="592.55"/><line class="a" x1="537.08" y1="580.29" x2="551.78" y2="600.18"/><path class="b" d="M227.59,211,206.05,226.9a12.94,12.94,0,0,0-2.71,18h0a12.94,12.94,0,0,0,18,2.72l73.07-54a13,13,0,0,0,2.72-18.06h0a13,13,0,0,0-18.06-2.71l-21.95,16.22"/><path class="a" d="M176,109.71s26.35-4.59,45,17.21"/><path class="a" d="M182.25,310.25,157.55,279,134.44,314.1l-4.27-22.83L104,314.4l.07-19c-2.76-2.22-4.15-4.68-6.66-7.37-17.23-18.52-15.83-50.78-7.28-65.82L73,202.92"/><line class="a" x1="194.21" y1="207.79" x2="147.5" y2="242.3"/><line class="a" x1="186.49" y1="197.33" x2="155.86" y2="219.96"/><line class="a" x1="202.14" y1="218.51" x2="163.46" y2="247.08"/><polyline class="d" points="517.64 658.12 529.35 686.28 541.69 667.63 558.06 671.29 562.19 653.32 579.24 655.64 582.03 638.66 600.42 639.99 601.75 623.27 623.19 616.96 599.72 597.49"/><rect class="b" x="493.44" y="605.55" width="116.67" height="25.82" rx="12.91" transform="translate(1363.06 788.05) rotate(143.55)"/><path class="b" d="M230,152.35l21.95-16.22a12.93,12.93,0,0,0,2.72-18h0a13,13,0,0,0-18.06-2.72l-73.07,54a13,13,0,0,0-2.71,18.06h0a12.94,12.94,0,0,0,18.05,2.71l21.38-15.79"/><circle class="a" cx="228.67" cy="181.67" r="29.35"/><polyline class="a" points="232.75 164.5 219 181.67 238 181.67 224.67 199"/><path class="a" d="M297.18,175.63c20.15-3.1,31.58,3.37,31.58,3.37,1.74-17.54-4.58-38.87-18.66-57.7S277.35,90.37,260,87.07c0,0,3.29,12.55-5.38,31"/><path class="a" d="M312.41,172.24a96.46,96.46,0,0,0-17.25-36.79c-9.61-12.85-21.35-22.57-33.35-28.49"/><path class="a" d="M634.7,121.05s-25.65-3.12-43.11,15"/><path class="d" d="M635.74,192.44c8.33,19.92,37.44,17.28,41.84-1.84,26.51,8.41,46.29,14.2,73.63,13.46v.13L732.15,224.8c11.17,19.66,11,54.25-11.5,78.45a98.88,98.88,0,0,1-10,10l1,36.3-32.77-23.47-9.65,28.21-25.7-43.85L628.29,330.2l-25-48c22.26-2.69,22.51-28.57,6.37-38.78-3.64-2.3-7.26-4.23-11.25-4.63"/><path class="b" d="M565,116.52a43.73,43.73,0,0,1,59.1-6.81h0a43.73,43.73,0,0,1,10.86,58.48"/><line class="b" x1="522.35" y1="174.01" x2="549.53" y2="137.22"/><line class="b" x1="490.7" y1="216.87" x2="507.01" y2="194.78"/><line class="b" x1="221.05" y1="581.88" x2="239.21" y2="557.3"/><path class="b" d="M262,673.15a43.72,43.72,0,0,1-59.87,7.75h0a43.73,43.73,0,0,1-10.19-59.5"/><line class="b" x1="309.3" y1="609.14" x2="290.96" y2="633.97"/><line class="b" x1="577.13" y1="246.58" x2="562" y2="267.06"/><line class="b" x1="619.65" y1="189.02" x2="592.47" y2="225.81"/><line class="a" x1="521.06" y1="205.15" x2="507.35" y2="223.7"/><line class="a" x1="533.34" y1="214.22" x2="519.63" y2="232.78"/><line class="a" x1="250.64" y1="571.22" x2="234.88" y2="592.55"/><line class="a" x1="262.92" y1="580.29" x2="248.22" y2="600.18"/><path class="b" d="M572.41,211,594,226.9a12.94,12.94,0,0,1,2.71,18h0a12.94,12.94,0,0,1-18,2.72l-73.07-54a13,13,0,0,1-2.72-18.06h0a13,13,0,0,1,18.06-2.71l22,16.22"/><path class="a" d="M624.05,109.71s-26.35-4.59-45,17.21"/><path class="a" d="M617.75,310.25,642.45,279l23.11,35.13,4.27-22.83L696,314.4l-.07-19c2.76-2.22,4.15-4.68,6.66-7.37,17.23-18.52,15.83-50.78,7.28-65.82L727,202.92"/><line class="a" x1="605.79" y1="207.79" x2="652.5" y2="242.3"/><line class="a" x1="613.51" y1="197.33" x2="644.14" y2="219.96"/><line class="a" x1="597.86" y1="218.51" x2="636.54" y2="247.08"/><polyline class="d" points="282.36 658.12 270.65 686.28 258.31 667.63 241.94 671.29 237.81 653.32 220.76 655.64 217.97 638.66 199.57 639.99 198.25 623.27 176.81 616.96 200.28 597.49"/><rect class="b" x="189.89" y="605.55" width="116.67" height="25.82" rx="12.91" transform="translate(416.04 -26.48) rotate(36.45)"/><path class="b" d="M570,152.35l-22-16.22a12.93,12.93,0,0,1-2.72-18h0a13,13,0,0,1,18.06-2.72l73.07,54a13,13,0,0,1,2.71,18.06h0a12.94,12.94,0,0,1-18,2.71l-21.38-15.79"/><circle class="a" cx="571.33" cy="181.67" r="29.35"/><path class="a" d="M502.82,175.63c-20.15-3.1-31.58,3.37-31.58,3.37-1.74-17.54,4.58-38.87,18.66-57.7S522.65,90.37,540,87.07c0,0-3.29,12.55,5.38,31"/><path class="a" d="M487.59,172.24a96.46,96.46,0,0,1,17.25-36.79c9.61-12.85,21.35-22.57,33.35-28.49"/><line class="a" x1="375.13" y1="573.22" x2="394.43" y2="597.49"/><line class="a" x1="424.87" y1="573.22" x2="405.57" y2="597.49"/></svg>