<svg xmlns="http://www.w3.org/2000/svg" viewBox="0 0 800 800"><defs><style>.a{fill:none;stroke:#d1555d;stroke-linecap:round;stroke-linejoin:round;stroke-width:6px;}</style></defs><title>WOW-crest</title><line class="a" x1="306.67" y1="382.33" x2="493.33" y2="382.33"/><line class="a" x1="312.68" y1="356.33" x2="299.85" y2="397.51"/><line class="a" x1="487.32" y1="356.33" x2="500.15" y2="397.51"/><line class="a" x1="463" y1="362.42" x2="475.43" y2="402.33"/><line class="a" x1="450.8" y1="362.42" x2="463.23" y2="402.33"/><line class="a" x1="440.88" y1="372.94" x2="452.9" y2="411.52"/><path class="a" d="M465.68,499.83A66.27,66.27,0,0,1,333.74,491"/><path class="a" d="M356.86,440.71A66.28,66.28,0,0,1,457.1,457.35"/><polyline class="a" points="274.65 513.91 274.65 598.83 258.41 583.08 242.16 599.08 242.16 513.91"/><rect class="a" x="246.92" y="502.43" width="22.97" height="22.97" transform="translate(439.08 -32.2) rotate(45)"/><polyline class="a" points="525.35 513.91 525.35 598.36 541.59 583.08 557.84 599.08 557.84 513.91"/><rect class="a" x="530.1" y="502.43" width="22.97" height="22.97" transform="translate(1287.95 494.34) rotate(135)"/><line class="a" x1="410.18" y1="382.33" x2="356.86" y2="440.71"/><polygon class="a" points="387.48 641.42 377.37 622.6 366.14 635.76 367.16 664.42 387.48 641.42"/><path class="a" d="M418.58,668.07s-15.44,1.14-12.08,18.72l9.89,21.69-9.91,10.4H390.22l-9.91-10.4,9.89-21.69c4.49-17.58-12.08-18.72-12.08-18.72"/><polygon class="a" points="409.22 641.42 419.33 622.6 430.56 635.76 429.54 664.42 409.22 641.42"/><polyline class="a" points="392.76 705.54 398.35 710.01 403.94 705.54"/><path class="a" d="M177.8,404.31c0,42.66-19.1,77.24-42.67,77.24S92.46,447,92.46,404.31"/><polyline class="a" points="161.46 252.69 161.46 196.64 215.97 196.64 215.97 252.69"/><polyline class="a" points="215.97 252.69 257.64 316.07 119.79 316.07 161.46 252.69"/><polyline class="a" points="119.79 316.07 134.94 334.59 242.49 334.59 257.64 316.07"/><polyline class="a" points="215.97 196.64 224.39 176.43 153.05 176.43 161.46 196.64"/><polyline class="a" points="153.05 176.43 161.46 156.79 215.97 156.79 224.39 176.43"/><rect class="a" x="178.08" y="241" width="21.27" height="75.07"/><path class="a" d="M188.72,208.08s-14.42,16.34-8.63,26.69a9.69,9.69,0,0,0,17.25,0C203.13,224.42,188.72,208.08,188.72,208.08Z"/><path class="a" d="M259.36,262.34c6.28-6,9.47-16.34,9-25a26,26,0,0,0-8.51-18.19c-5.21-4.5-12.77-6.37-19.28-4.16s-11.52,8.73-11.3,15.6c.16,5.21,3.49,10.37,8.44,12s11.1-.94,12.83-5.85"/><path class="a" d="M267.47,247c5.58-9.68,3.06-24.3-1.32-34.58s-10.3-20.37-10.72-31.54a31,31,0,0,1,10.42-24.53c7-6,17.17-8.18,25.84-5.11S307,162.77,307.39,172c.69,16.42-16.6,29.36-16.34,45.79-8.27-6-14-17.87-12.07-27.88,1-5,3.38-9.64,5-14.48s2.59-10.27.62-15-7.94-10-12.62-7.95"/><path class="a" d="M264.37,208.4a17.82,17.82,0,0,0-15-10.15,19.39,19.39,0,0,0-15.22,6.26"/><path class="a" d="M258,193.35c-1.39-5.69-5-9.22-9.24-10.63a15.24,15.24,0,0,0-12.85,1.63"/><path class="a" d="M255.41,178.25c.27-4.72-1.33-8-4-9.91a11.31,11.31,0,0,0-9.46-1.65"/><path class="a" d="M261.23,161.4a97.2,97.2,0,0,0,9-18.31c1.3-3.4,2.42-7,2.21-10.61s-2-7.36-5.17-9.06c-4.32-2.28-9.71-.3-13.57,2.68s-7,6.91-11.26,9.28S232,138,229.11,134.06a12.2,12.2,0,0,1-1.55-11.5c1-2.46,3.62-7.28,9.46-7.28"/><path class="a" d="M338.5,191.89c-2.28,1-5.68-.06-8.07-.87-5.25-1.78-8.4-7.36-9.21-12.84a25.15,25.15,0,0,1,3.22-16.38c5.49-9.25,17-15.27,18.38-25.94,1.13-8.62-6.52-17.32-15.22-17.3s-16.32,8.73-15.17,17.34c.41,3.08,2,6.22,4.77,7.55s6.83.05,7.59-3"/><path class="a" d="M272.13,136.73c.89-10.65,5.68-16,9.49-18.65"/><path class="a" d="M281.62,118.08c-.95-6.68,2-13.55,6.7-18.34S299.46,92,306,90.45s13.34-2,20.07-2.32c-.69,10.24-7.2,20.5-15.88,26S291.17,121.85,281.62,118.08Z"/><path class="a" d="M374,89.51c4.66-.45,9.33,1.77,12.51,5.2a25.54,25.54,0,0,1,5.89,12.54,75.93,75.93,0,0,1,1,14c-7.08-.79-14-5.62-17.53-11.8S371.13,96,374,89.51Z"/><path class="a" d="M356.62,161.19c6.21-2.76,10.25-9,12.15-15.53a23.78,23.78,0,0,0-3-19.52c-4.08-6.14-10.91-10.14-14.64-16.5-4-6.9-3.42-16.61,2.42-22.07s16.67-4.78,20.89,2"/><path class="a" d="M272.4,292.63a48.83,48.83,0,0,0-34-5.76"/><path class="a" d="M144.17,279c-10.27-.4-19-1.78-27.36-7.77s-13.27-17.87-8.43-26.94c3.8-7.13,12.05-10.42,19.54-13.47s15.6-7.18,18.21-14.83c2.35-6.85-.58-14.44-4.68-20.41S132,184.45,128.71,178c0,0-5.86-8,1.1-14.68"/><path class="a" d="M138.44,278.64a17.3,17.3,0,0,1-14.56-15.95c-.42-5.17,1.45-10.73,5.66-13.77a10.25,10.25,0,0,1,10-1.3c3.21,1.49,5.3,5.36,4.26,8.75"/><path class="a" d="M126.08,231.62a16.39,16.39,0,0,0-3.94-24.31"/><ellipse class="a" cx="135.13" cy="404.31" rx="42.67" ry="27.77"/><path class="a" d="M135.13,481.55c8.29,14.55,13.25,37.82,8,53.73-2.43,7.4-6.28,14.31-8.29,21.83s-1.9,16.24,3,22.31c6,7.49,17.7,8.4,26.43,4.34s15-12,20.21-20.06,9.71-16.76,16.39-23.68,16.78-15.07,30.15-9.79"/><path class="a" d="M192.87,550.17A21,21,0,0,1,182.64,558c-6.47,2.11-14.7-.66-17.06-7a18.9,18.9,0,0,1,1.24-16,83.91,83.91,0,0,1,16-19.92c6.16-5.64,17.6-15.54,18.1-23.87.84-13.74-8.12-16.5-19.48-11.37"/><path class="a" d="M144,532.53a30.73,30.73,0,0,0-21-34.1c-4.38-1.44-9.26-1.89-13.54-.19A14.42,14.42,0,0,0,119,525.41a10.54,10.54,0,0,0,5.91-4.28,6.81,6.81,0,0,0,.17-7.07,5.09,5.09,0,0,0-6.51-1.82"/><path class="a" d="M84.9,357.68c2.57-2.2,6.72-1.83,9.33.32a11.45,11.45,0,0,1,3.71,9.08,11.19,11.19,0,0,1-3.58,8.35c-2.78,2.34-6.83,2.67-10.36,1.79a19.93,19.93,0,0,1-13.58-12.8,23.88,23.88,0,0,1,1.81-18.83c4.56-8.47,16.86-17.89,26.94-13.75C106.72,335,110,343.56,113.34,351c4.12,9.19,17.3,19.05,26.4,9,2.34-2.58,3.3-3.08,5-6.14s4.68-5.93,8.13-5.47c2.89.38,4.95,2.94,6.5,5.4a117.17,117.17,0,0,0,9.83,13.72c4.88,6,9.14,12.54,15.63,17,8.13,5.64,18,6.15,25.2-1.83"/><path class="a" d="M198,346.59s-17.57,2.22-19.59,11.64a7.88,7.88,0,0,0,10.52,9.27C198,364.3,198,346.59,198,346.59Z"/><path class="a" d="M180.84,366.08s-5,7.09,1.06,16.25"/><path class="a" d="M110.77,293.92s-17.57,2.23-19.59,11.65a7.87,7.87,0,0,0,10.52,9.26C110.79,311.63,110.77,293.92,110.77,293.92Z"/><path class="a" d="M93.61,313.42s-5,7.08,1.06,16.25"/><path class="a" d="M226.2,362.42s9.18-15.07,0-27.83"/><path class="a" d="M113.85,497.11a21.8,21.8,0,0,1-4.84-.43,16.41,16.41,0,0,1-10.07-6.25,12,12,0,0,1-1.45-11.5"/><path class="a" d="M85.38,456.93s-5.91,16.7,1.59,22.74a7.88,7.88,0,0,0,13-5.24C101.21,464.88,85.38,456.93,85.38,456.93Z"/><path class="a" d="M300.46,710.48S313,698,308.9,689.3a7.89,7.89,0,0,0-14-.93C289.65,696.45,300.46,710.48,300.46,710.48Z"/><path class="a" d="M262.6,607.76s-17.55,2.44-19.46,11.88a7.88,7.88,0,0,0,10.64,9.14C262.83,625.47,262.6,607.76,262.6,607.76Z"/><path class="a" d="M204,465.49s-.81-17.69-10-20.46a7.88,7.88,0,0,0-10.08,9.75C186.3,464.09,204,465.49,204,465.49Z"/><path class="a" d="M181.45,479.75c2.79,4.62,2.8,10.58.81,15.6s-5.78,9.15-10.1,12.37a87.62,87.62,0,0,1-14,8c-2.7-7.75-1.12-17.34,3.55-24.1S173.24,480,181.45,479.75Z"/><path class="a" d="M220.84,580.26c4.1,1.26,6.89,5.32,7.85,10.08s.24,10.14-1.27,15.26a109.72,109.72,0,0,1-6.06,14.94c-5.5-3.46-8.88-11.07-8.78-18.82S215.22,586,220.84,580.26Z"/><path class="a" d="M162.71,584.83c-6.52,4.19-11.11,11.55-11.17,19.3s4.85,15.5,12.17,18,16.45-1,19.54-8.07c1.51-3.48,1.5-7.78-.7-10.88s-6.77-4.52-10.05-2.61c-2.89,1.69-4.11,5.52-3.31,8.77a12.23,12.23,0,0,0,6.27,7.49c8.15,4.4,19.7.28,23.22-8.29,2.89-7,.7-14.93-.6-22.4s-1.57-17.26,4.27-22.1c4.11-3.4,10.57-4.89,14.92-1.79s6.08,12,4.55,18"/><path class="a" d="M189.46,508.84a17.62,17.62,0,0,1,23.91,4.81"/><path class="a" d="M210.74,403.24a13.83,13.83,0,0,0-18.38,15.65c1,4.91,4.6,9.58,3.3,14.42-.6,2.23-2.18,4.05-3.65,5.84s-2.93,3.75-3.21,6"/><ellipse class="a" cx="135.13" cy="404.31" rx="18.02" ry="11.73"/><path class="a" d="M350.57,666c-5.14-1.65-8.93-2.43-12.55-.26s-5.15,6.19-4.6,10.37c1.1,8.3,11.05,13,12.83,21.2a11.72,11.72,0,0,1-18.13,12.13c-4.91-3.41-6.5-10-6.51-16s1.16-12,.14-17.9a15.38,15.38,0,0,0-3.67-8,8.92,8.92,0,0,0-8.1-2.84,11,11,0,0,0-8.21,7.29c-1.34,4-.74,8.76.41,12.56"/><path class="a" d="M306.17,645.57c-8.74-5-14.91-6-22.08-6.21s-14.55,1.6-20.19,6a21.81,21.81,0,0,0-8.52,16.31c-.12,6.34,3.34,12.78,9,15.61a15.52,15.52,0,0,0,16.66-2.05c4.48-3.88,6.29-9.59,4.31-15.18A9.43,9.43,0,0,0,278,654c-3.49-.75-7.88,2.62-9.24,5.92"/><path class="a" d="M260.89,648.24a16.64,16.64,0,0,1-14.59-2.39,14.33,14.33,0,0,1-6-11.85,12,12,0,0,1,2.26-6.43"/><path class="a" d="M245,644.79c-2.08,12.83-13.31,17.46-18.27,18.35a25.89,25.89,0,0,1-20.33-5.07c-4.15-3.28-7.31-8.06-7.74-13.33s2.29-10.9,7.11-13.08,11.39,0,13.28,4.91a7.56,7.56,0,0,1-2,8.48c-2.45,1.92-6.52,1.55-8.24-1"/><line class="a" x1="175.35" y1="142.79" x2="175.35" y2="130.4"/><line class="a" x1="188.72" y1="143.79" x2="188.72" y2="116.33"/><line class="a" x1="202.08" y1="142.79" x2="202.08" y2="125.4"/><path class="a" d="M622.2,404.31c0,42.66,19.1,77.24,42.67,77.24s42.67-34.58,42.67-77.24"/><polyline class="a" points="638.54 252.69 638.54 196.64 584.03 196.64 584.03 252.69"/><polyline class="a" points="584.03 252.69 542.36 316.07 680.21 316.07 638.54 252.69"/><polyline class="a" points="680.21 316.07 665.05 334.59 557.51 334.59 542.36 316.07"/><polyline class="a" points="584.03 196.64 575.61 176.43 646.95 176.43 638.54 196.64"/><polyline class="a" points="646.95 176.43 638.54 156.79 584.03 156.79 575.61 176.43"/><rect class="a" x="600.65" y="241" width="21.27" height="75.07" transform="translate(1222.57 557.07) rotate(180)"/><path class="a" d="M611.28,208.08s14.42,16.34,8.63,26.69a9.69,9.69,0,0,1-17.25,0C596.87,224.42,611.28,208.08,611.28,208.08Z"/><path class="a" d="M540.64,262.34c-6.28-6-9.47-16.34-9-25a26,26,0,0,1,8.51-18.19c5.21-4.5,12.77-6.37,19.28-4.16s11.52,8.73,11.3,15.6c-.16,5.21-3.49,10.37-8.44,12s-11.1-.94-12.83-5.85"/><path class="a" d="M532.53,247c-5.58-9.68-3.06-24.3,1.32-34.58s10.3-20.37,10.72-31.54a31,31,0,0,0-10.42-24.53c-7-6-17.17-8.18-25.84-5.11S493,162.77,492.61,172c-.69,16.42,16.6,29.36,16.34,45.79,8.27-6,14-17.87,12.07-27.88-1-5-3.38-9.64-5-14.48s-2.59-10.27-.62-15,7.94-10,12.62-7.95"/><path class="a" d="M535.63,208.4a17.82,17.82,0,0,1,15-10.15,19.39,19.39,0,0,1,15.22,6.26"/><path class="a" d="M542.05,193.35c1.39-5.69,5-9.22,9.24-10.63a15.24,15.24,0,0,1,12.85,1.63"/><path class="a" d="M544.59,178.25c-.27-4.72,1.33-8,4-9.91a11.31,11.31,0,0,1,9.46-1.65"/><path class="a" d="M537.83,160.16a109,109,0,0,1-8.05-17.07c-1.3-3.4-2.42-7-2.21-10.61s2-7.36,5.17-9.06c4.32-2.28,9.71-.3,13.57,2.68s7,6.91,11.26,9.28,10.4,2.59,13.32-1.32a12.2,12.2,0,0,0,1.55-11.5c-1-2.46-3.62-7.28-9.46-7.28"/><path class="a" d="M457.4,184.3c.79,5.49,6.92,8.5,12.17,6.72s8.4-7.36,9.21-12.84a25.15,25.15,0,0,0-3.22-16.38c-5.49-9.25-17-15.27-18.38-25.94-1.13-8.62,6.52-17.32,15.22-17.3s16.32,8.73,15.17,17.34c-.41,3.08-2,6.22-4.77,7.55s-6.83.05-7.59-3"/><path class="a" d="M527.87,136.73c-.89-10.65-5.68-16-9.49-18.65"/><path class="a" d="M518.38,118.08c1-6.68-2-13.55-6.7-18.34S500.54,92,494,90.45s-13.34-2-20.07-2.32c.69,10.24,7.2,20.5,15.88,26S508.83,121.85,518.38,118.08Z"/><path class="a" d="M426,89.51c-4.66-.45-9.33,1.77-12.51,5.2a25.54,25.54,0,0,0-5.89,12.54,75.93,75.93,0,0,0-1,14c7.08-.79,14-5.62,17.53-11.8S428.87,96,426,89.51Z"/><path class="a" d="M527.6,292.63a48.83,48.83,0,0,1,34-5.76"/><path class="a" d="M655.83,279c10.27-.4,19-1.78,27.36-7.77s13.27-17.87,8.43-26.94c-3.8-7.13-12-10.42-19.54-13.47s-15.6-7.18-18.21-14.83c-2.35-6.85.58-14.44,4.68-20.41S668,184.45,671.29,178"/><path class="a" d="M661.56,278.64a17.3,17.3,0,0,0,14.56-15.95c.42-5.17-1.45-10.73-5.66-13.77a10.25,10.25,0,0,0-10-1.3c-3.21,1.49-5.3,5.36-4.26,8.75"/><path class="a" d="M673.92,231.62a16.39,16.39,0,0,1,3.94-24.31"/><ellipse class="a" cx="664.87" cy="404.31" rx="42.67" ry="27.77"/><path class="a" d="M664.87,481.55c-8.29,14.55-13.25,37.82-8,53.73,2.43,7.4,6.28,14.31,8.29,21.83s1.9,16.24-3,22.31c-6,7.49-17.7,8.4-26.43,4.34s-15-12-20.21-20.06S605.78,546.94,599.1,540,579,525,569.29,529.57"/><path class="a" d="M607.13,550.17A21,21,0,0,0,617.36,558c6.47,2.11,14.7-.66,17.06-7a18.9,18.9,0,0,0-1.24-16,83.91,83.91,0,0,0-16-19.92c-6.16-5.64-17.6-15.54-18.1-23.87-.84-13.75,8.12-16.5,19.48-11.37"/><path class="a" d="M656,532.53a30.73,30.73,0,0,1,21-34.1c4.38-1.44,9.26-1.89,13.54-.19A14.42,14.42,0,0,1,681,525.41a10.54,10.54,0,0,1-5.91-4.28,6.81,6.81,0,0,1-.17-7.07,5.09,5.09,0,0,1,6.51-1.82"/><path class="a" d="M715.1,357.68c-2.57-2.2-6.72-1.83-9.33.32a11.45,11.45,0,0,0-3.71,9.08,11.19,11.19,0,0,0,3.58,8.35c2.78,2.34,6.83,2.67,10.36,1.79a19.93,19.93,0,0,0,13.58-12.8,23.88,23.88,0,0,0-1.81-18.83c-4.56-8.47-16.86-17.89-26.94-13.75C693.28,335,690,343.56,686.66,351c-4.12,9.19-17.3,19.05-26.4,9-2.34-2.58-3.3-3.08-5-6.14s-4.68-5.93-8.13-5.47c-2.89.38-4.95,2.94-6.5,5.4a117.17,117.17,0,0,1-9.83,13.72c-4.88,6-9.14,12.54-15.63,17-8.13,5.64-18.05,6.15-25.2-1.83"/><path class="a" d="M602,346.59s17.57,2.22,19.59,11.64a7.88,7.88,0,0,1-10.52,9.27C602,364.3,602,346.59,602,346.59Z"/><path class="a" d="M619.16,366.08s5,7.09-1.06,16.25"/><path class="a" d="M689.23,293.92s17.57,2.23,19.59,11.65a7.87,7.87,0,0,1-10.52,9.26C689.21,311.63,689.23,293.92,689.23,293.92Z"/><path class="a" d="M706.39,313.42s5,7.08-1.06,16.25"/><path class="a" d="M573.8,362.42s-9.18-15.07,0-27.83"/><path class="a" d="M686.15,497.11a21.8,21.8,0,0,0,4.84-.43,16.41,16.41,0,0,0,10.07-6.25,12,12,0,0,0,1.45-11.5"/><path class="a" d="M714.62,456.93s5.91,16.7-1.59,22.74a7.88,7.88,0,0,1-13-5.24C698.79,464.88,714.62,456.93,714.62,456.93Z"/><path class="a" d="M499.54,710.48S487,698,491.1,689.3a7.89,7.89,0,0,1,14-.93C510.35,696.45,499.54,710.48,499.54,710.48Z"/><path class="a" d="M537.4,607.76s17.55,2.44,19.46,11.88a7.88,7.88,0,0,1-10.64,9.14C537.17,625.47,537.4,607.76,537.4,607.76Z"/><path class="a" d="M596,465.49s.81-17.69,10-20.46a7.88,7.88,0,0,1,10.08,9.75C613.7,464.09,596,465.49,596,465.49Z"/><path class="a" d="M618.55,479.75c-2.79,4.62-2.8,10.58-.81,15.6s5.78,9.15,10.1,12.37a87.62,87.62,0,0,0,14,8c2.7-7.75,1.12-17.34-3.55-24.1S626.76,480,618.55,479.75Z"/><path class="a" d="M579.16,580.26c-4.1,1.26-6.89,5.32-7.85,10.08s-.24,10.14,1.27,15.26a109.72,109.72,0,0,0,6.06,14.94c5.5-3.46,8.88-11.07,8.78-18.82S584.78,586,579.16,580.26Z"/><path class="a" d="M637.29,584.83c6.52,4.19,11.11,11.55,11.17,19.3s-4.85,15.5-12.17,18-16.45-1-19.54-8.07c-1.51-3.48-1.5-7.78.7-10.88s6.77-4.52,10-2.61c2.89,1.69,4.11,5.52,3.31,8.77a12.23,12.23,0,0,1-6.27,7.49c-8.15,4.4-19.7.28-23.22-8.29-2.89-7-.7-14.93.6-22.4s1.57-17.26-4.27-22.1c-4.11-3.4-10.57-4.89-14.92-1.79s-6.08,12-4.55,18"/><path class="a" d="M610.54,508.84a17.62,17.62,0,0,0-23.91,4.81"/><path class="a" d="M589.26,403.24a13.83,13.83,0,0,1,18.38,15.65c-1,4.91-4.6,9.58-3.3,14.42.6,2.23,2.18,4.05,3.65,5.84s2.93,3.75,3.21,6"/><ellipse class="a" cx="664.87" cy="404.31" rx="18.02" ry="11.73"/><path class="a" d="M449.43,666c5.14-1.65,8.93-2.43,12.55-.26s5.15,6.19,4.6,10.37c-1.1,8.3-11.05,13-12.83,21.2a11.72,11.72,0,0,0,18.13,12.13c4.91-3.41,6.5-10,6.51-16s-1.16-12-.14-17.9a15.38,15.38,0,0,1,3.67-8,8.92,8.92,0,0,1,8.1-2.84,11,11,0,0,1,8.21,7.29c1.34,4,.74,8.76-.41,12.56"/><path class="a" d="M493.83,645.57c8.74-5,14.91-6,22.08-6.21s14.55,1.6,20.19,6a21.81,21.81,0,0,1,8.52,16.31c.12,6.34-3.34,12.78-9,15.61A15.52,15.52,0,0,1,519,675.27c-4.48-3.88-6.29-9.59-4.31-15.18A9.43,9.43,0,0,1,522,654c3.49-.75,7.88,2.62,9.24,5.92"/><path class="a" d="M539.11,648.24a16.67,16.67,0,0,0,14.59-2.39,14.33,14.33,0,0,0,6-11.85,12,12,0,0,0-2.26-6.43"/><path class="a" d="M555,644.79c2.08,12.83,13.31,17.46,18.27,18.35a25.89,25.89,0,0,0,20.33-5.07c4.15-3.28,7.31-8.06,7.74-13.33s-2.29-10.9-7.11-13.08-11.39,0-13.28,4.91a7.56,7.56,0,0,0,2,8.48c2.45,1.92,6.52,1.55,8.24-1"/><line class="a" x1="624.65" y1="142.79" x2="624.65" y2="130.4"/><line class="a" x1="611.28" y1="143.79" x2="611.28" y2="116.33"/><line class="a" x1="597.92" y1="142.79" x2="597.92" y2="125.4"/><line class="a" x1="386.72" y1="408.02" x2="344.51" y2="408.02"/><line class="a" x1="405.16" y1="512.36" x2="424.24" y2="574.9"/><line class="a" x1="390.95" y1="511.07" x2="415.1" y2="590.21"/><line class="a" x1="381.69" y1="524.95" x2="399.71" y2="584.09"/><path class="a" d="M409.24,359.29l10.06-29.22,8.05,37.31c22.83-40.28-10.86-85.6,14.12-111.19,18.12-18.57,32.88,2.72,32.88,2.72l17.26-37.57a13.77,13.77,0,0,0-6.36-18.07L462.5,191.89a9.26,9.26,0,0,1-4.15-12.43h0a9.26,9.26,0,0,0-3.67-12.18L400.5,136.73l-54.18,30.55a9.26,9.26,0,0,0-3.67,12.18h0a9.26,9.26,0,0,1-4.15,12.43l-22.75,11.38a13.77,13.77,0,0,0-6.36,18.07l17.26,37.57s14.76-21.29,32.88-2.72c25,25.59-10,70.91,12.77,111.19l8.06-37.31,10.06,29.22,10.08-31.58Z"/><path class="a" d="M389.84,206a18.91,18.91,0,1,1-20.62-9.85"/><circle class="a" cx="426.97" cy="214.71" r="18.91"/><path class="a" d="M400,314.59s22.77-25.8,13.63-42.15a15.32,15.32,0,0,0-27.26,0C377.23,288.79,400,314.59,400,314.59Z"/><path class="a" d="M339.19,191.51c4.93-2.63,10.33-7.72,14.93-9.59s9.84-2.57,14.56-1c8.13,2.66,11.57,10,12.19,16.16.65,6.45-2.39,13.11-6.41,18.19a30,30,0,0,1-17.11,10"/><polyline class="a" points="309.02 266.81 302.42 284.14 320.16 279.86"/><polyline class="a" points="324.41 284.14 318.02 307.33 339.19 296"/><polyline class="a" points="342.93 299.13 339.19 328.5 360.07 306.95"/><polyline class="a" points="491.98 266.81 498.58 284.14 480.84 279.86"/><polyline class="a" points="476.59 284.14 482.98 307.33 461.81 296"/><polyline class="a" points="458.07 299.13 461.81 328.5 440.93 306.95"/><line class="a" x1="352.32" y1="427.33" x2="362.33" y2="459.47"/><path class="a" d="M465.67,499.83c-.46,0-.93.05-1.4.05A21.86,21.86,0,0,1,457,457.4"/><path class="a" d="M572.66,489.93c16.61-47.78,19.05-95.32,16.47-129.82a51.68,51.68,0,0,1-41.91-93.67l-59.37-36.91"/><path class="a" d="M313,229l-60.22,37.44a51.68,51.68,0,0,1-41.91,93.67c-2.6,34.76-.53,82.75,16.42,130.89"/><line class="a" x1="431.28" y1="233.13" x2="436.91" y2="242.92"/><line class="a" x1="398.35" y1="175.92" x2="413.21" y2="201.74"/><line class="a" x1="441.36" y1="226.96" x2="446.9" y2="236.59"/><line class="a" x1="414" y1="179.43" x2="423.52" y2="195.97"/><path class="a" d="M320.16,244.6l-39.4,24.49A68.63,68.63,0,0,1,227,379.44a307.28,307.28,0,0,0,11.36,86.9"/><path class="a" d="M479.84,244.6l39.4,24.49A68.63,68.63,0,0,0,573,379.44a307.28,307.28,0,0,1-11.36,86.9"/><path class="a" d="M304.71,443.42c4.89-9.33,11.1-19.37,17.08-25.12l-42.48-1.38-13.23-26.19A171.76,171.76,0,0,0,239.2,436.4l15.74,6.25"/><path class="a" d="M289.54,496.71l14.88.84c.72-17.13,5.09-31.85,14.36-45.93l-55.29-32.24c-4,11-11.33,29.69-16.88,48.68"/><path class="a" d="M274.65,552.76l23.4-9.81a110.88,110.88,0,0,1-6.22-65.41L230.7,464.73c-7.11,34.07-2.14,68.48,11.46,101"/><path class="a" d="M292.19,524.57l12.95-3.2s11,34.77,40.49,57l-8.83,12.54"/><path class="a" d="M286.89,613.33s-4.41-5.57-11.94-14.5"/><polyline class="a" points="367.16 664.42 362.96 689.97 383.78 700.86"/><line class="a" x1="409.22" y1="641.42" x2="387.48" y2="641.42"/><polyline class="a" points="412.92 700.86 433.74 689.97 429.54 664.43"/><path class="a" d="M430.54,670.49a172.22,172.22,0,0,0,91.77-48l-44.15-44.16h0a110.53,110.53,0,0,1-156.31,0l-44.16,44.16a172.24,172.24,0,0,0,88.45,47.33"/><path class="a" d="M507.82,524.57l-13-3.2s-11,34.77-40.48,57l8.83,12.54"/><path class="a" d="M512,612.22a143,143,0,0,0,13.34-13.86"/><path class="a" d="M525.35,552.76,502,543a110.89,110.89,0,0,0,6.23-65.41l52.63-11"/><path class="a" d="M560.81,466.51l8.5-1.78c7.1,34.07,2.13,69.87-11.47,102.37"/><path class="a" d="M510.46,496.71l-14.87.84c-.73-17.13-5.1-31.85-14.37-45.93l55.3-32.24c4,11,11.33,29.69,16.88,48.68"/><path class="a" d="M495.29,443.41c-4.88-9.33-11.09-19.36-17.07-25.11l42.48-1.38,13.23-26.19a172,172,0,0,1,26.88,45.67l-15.74,6.25"/><path class="a" d="M366.31,309.19A110.52,110.52,0,0,1,296,239.58"/><path class="a" d="M504.87,240A110.6,110.6,0,0,1,434,309.42"/><path class="a" d="M439.13,158.52a26.53,26.53,0,0,1-7.9-12.86,23.78,23.78,0,0,1,3-19.52c4.08-6.14,10.91-10.14,14.64-16.5,4-6.9,3.42-16.61-2.42-22.07s-16.67-4.78-20.89,2"/></svg>