<svg xmlns="http://www.w3.org/2000/svg" viewBox="0 0 800 800"><defs><style>.a{fill:none;stroke:#00a396;stroke-linecap:round;stroke-linejoin:round;stroke-width:6px;}.b{fill:#00a396;}</style></defs><title>WOW-crest</title><line class="a" x1="352.92" y1="75.77" x2="450.42" y2="75.77"/><line class="a" x1="366.97" y1="214.87" x2="366.97" y2="180.75"/><line class="a" x1="433.08" y1="180.75" x2="433.08" y2="214.87"/><line class="a" x1="433.08" y1="654.25" x2="433.08" y2="692.71"/><line class="a" x1="366.97" y1="692.71" x2="366.97" y2="654.25"/><line class="a" x1="356.3" y1="706.87" x2="366.97" y2="692.71"/><line class="a" x1="433.08" y1="692.71" x2="443.75" y2="706.87"/><polyline class="a" points="526.69 259.58 590.69 198.04 562.11 198.04 635.59 107.42 509.17 199.32 535.86 199.75 480.24 242.65"/><polyline class="a" points="248.29 427.75 203.76 463.05 239.29 463.05 164.73 551.1 195.19 551.1 113.29 651.12 250.87 549.39 225.3 549.39 269 507.37"/><polyline class="a" points="273.36 259.58 209.36 198.04 237.94 198.04 164.46 107.42 290.88 199.32 264.19 199.75 319.81 242.65"/><polyline class="a" points="287.05 427.75 155.72 427.75 60.77 259.58 269 259.58"/><polyline class="a" points="531.05 259.58 738.23 259.58 644.62 427.75 513 427.75"/><line class="a" x1="531.87" y1="293.22" x2="717.36" y2="293.22"/><line class="a" x1="82.69" y1="293.22" x2="269" y2="293.22"/><line class="a" x1="531.05" y1="326.85" x2="699.16" y2="326.85"/><line class="a" x1="100.89" y1="326.85" x2="269" y2="326.85"/><line class="a" x1="531.05" y1="360.48" x2="682.17" y2="360.48"/><line class="a" x1="117.88" y1="360.48" x2="269" y2="360.48"/><line class="a" x1="531.05" y1="394.11" x2="663.18" y2="394.11"/><line class="a" x1="136.87" y1="394.11" x2="269" y2="394.11"/><polyline class="a" points="443.03 644.29 480.24 644.29 480.24 626.47 498.07 626.47 498.07 609.53 531.05 609.53 531.05 445.9 513 427.85 531.05 409.8 531.05 259.58 498.07 259.58 498.07 242.65 480.24 242.65 480.24 224.82 443.03 224.82"/><polyline class="a" points="357.02 224.82 319.81 224.82 319.81 242.65 301.98 242.65 301.98 259.58 269 259.58 269 409.8 287.05 427.85 269 445.9 269 609.53 301.98 609.53 301.98 626.47 319.81 626.47 319.81 644.29 357.02 644.29"/><polyline class="a" points="490.57 396.85 505.87 396.85 505.87 319.3 473.12 319.3 473.12 267.83 423.88 267.83 423.88 295.73"/><polyline class="a" points="376.17 295.92 376.17 267.83 326.93 267.83 326.93 319.3 294.18 319.3 294.18 396.85 309.48 396.85"/><polyline class="a" points="423.88 572.83 423.88 601.28 473.12 601.28 473.12 549.82 505.87 549.82 505.87 458.34 492.49 458.34"/><polyline class="a" points="307.67 458.34 294.18 458.34 294.18 549.82 326.93 549.82 326.93 601.28 376.17 601.28 376.17 572.64"/><ellipse class="a" cx="400.02" cy="434.28" rx="93.79" ry="143.23"/><ellipse class="a" cx="400.02" cy="434.28" rx="77.54" ry="124.71"/><rect class="a" x="287.77" y="568.26" width="19.62" height="23.1"/><rect class="a" x="492.66" y="568.26" width="19.62" height="23.1" transform="translate(1004.94 1159.62) rotate(180)"/><rect class="a" x="287.77" y="277.76" width="19.62" height="23.1"/><rect class="a" x="492.66" y="277.76" width="19.62" height="23.1" transform="translate(1004.94 578.61) rotate(-180)"/><rect class="a" x="369.61" y="194.41" width="60.82" height="60.82" transform="translate(276.14 -217.01) rotate(45)"/><rect class="a" x="383.78" y="208.58" width="32.49" height="32.49" transform="translate(276.14 -217.01) rotate(45)"/><rect class="a" x="387.61" y="127.1" width="24.83" height="24.83" transform="translate(215.82 -242) rotate(45)"/><rect class="a" x="369.61" y="613.88" width="60.82" height="60.82" transform="translate(-338.42 471.57) rotate(-45)"/><rect class="a" x="383.78" y="628.05" width="32.49" height="32.49" transform="translate(572.75 -94.15) rotate(45)"/><line class="a" x1="357.32" y1="175.94" x2="329.39" y2="175.94"/><line class="a" x1="329.39" y1="100.14" x2="357.32" y2="100.14"/><rect class="a" x="442.73" y="100.14" width="27.94" height="75.8" transform="translate(913.39 276.09) rotate(180)"/><rect class="a" x="357.32" y="95.34" width="85.41" height="85.41"/><path class="a" d="M313,109.44v56.68a51.6,51.6,0,0,0,16.36,9.82v-75.8A47.51,47.51,0,0,0,313,109.44Z"/><line class="a" x1="363.73" y1="75.77" x2="357.32" y2="95.34"/><line class="a" x1="442.73" y1="95.34" x2="437.39" y2="75.77"/><line class="a" x1="470.66" y1="100.14" x2="489.17" y2="93.74"/><line class="a" x1="489.17" y1="181.28" x2="470.66" y2="175.94"/><path class="b" d="M343.35,114a4.76,4.76,0,0,0-1.63,9.23,4.92,4.92,0,0,0,1.63.29,4.76,4.76,0,0,0,1.64-9.23,4.69,4.69,0,0,0-1.64-.29Z"/><path class="b" d="M339.75,275.88a4.76,4.76,0,0,0-1.64,9.23,4.68,4.68,0,0,0,1.63.29,4.76,4.76,0,0,0,1.64-9.23,4.92,4.92,0,0,0-1.63-.29Z"/><path class="b" d="M307.67,327.58a4.76,4.76,0,0,0-1.63,9.23,4.92,4.92,0,0,0,1.63.29,4.76,4.76,0,0,0,1.64-9.23,4.69,4.69,0,0,0-1.64-.29Z"/><path class="b" d="M492.37,327.58a4.68,4.68,0,0,0-1.63.29,4.76,4.76,0,0,0,1.64,9.23,4.92,4.92,0,0,0,1.63-.29,4.76,4.76,0,0,0-1.64-9.23Z"/><path class="b" d="M307.67,532.32a4.76,4.76,0,0,0-1.63,9.23,4.68,4.68,0,0,0,1.63.29,4.76,4.76,0,0,0,0-9.52Z"/><path class="b" d="M492.37,532.32a4.69,4.69,0,0,0-1.63.3,4.75,4.75,0,0,0,1.64,9.22,4.68,4.68,0,0,0,1.63-.29,4.76,4.76,0,0,0-1.64-9.23Z"/><path class="b" d="M362.21,275.88a4.76,4.76,0,0,0-1.63,9.23,4.68,4.68,0,0,0,1.63.29,4.76,4.76,0,0,0,1.64-9.23,4.93,4.93,0,0,0-1.64-.29Z"/><path class="b" d="M460.3,275.88a4.92,4.92,0,0,0-1.63.29,4.76,4.76,0,0,0,1.64,9.23,4.68,4.68,0,0,0,1.63-.29,4.76,4.76,0,0,0-1.64-9.23Z"/><path class="b" d="M437.83,275.88a4.92,4.92,0,0,0-1.63.29,4.76,4.76,0,0,0,1.64,9.23,4.68,4.68,0,0,0,1.63-.29,4.76,4.76,0,0,0-1.64-9.23Z"/><path class="b" d="M339.74,584.18a4.68,4.68,0,0,0-1.63.29,4.75,4.75,0,0,0,1.64,9.22,4.68,4.68,0,0,0,1.63-.29,4.75,4.75,0,0,0-1.64-9.22Z"/><path class="b" d="M362.21,584.18a4.68,4.68,0,0,0-1.63.29,4.75,4.75,0,0,0,1.63,9.22,4.69,4.69,0,0,0,1.64-.29,4.75,4.75,0,0,0-1.64-9.22Z"/><path class="b" d="M460.31,584.18a4.75,4.75,0,0,0-1.64,9.22,4.68,4.68,0,0,0,1.63.29,4.75,4.75,0,0,0,1.64-9.22,4.68,4.68,0,0,0-1.63-.29Z"/><path class="b" d="M437.84,584.18a4.75,4.75,0,0,0-1.64,9.22,4.68,4.68,0,0,0,1.63.29,4.75,4.75,0,0,0,1.64-9.22,4.68,4.68,0,0,0-1.63-.29Z"/><path class="b" d="M343.35,132.75a4.76,4.76,0,0,0-1.63,9.23,4.92,4.92,0,0,0,1.63.29A4.76,4.76,0,0,0,345,133a4.69,4.69,0,0,0-1.64-.29Z"/><path class="b" d="M343.35,151.94a4.76,4.76,0,0,0-1.63,9.23,4.92,4.92,0,0,0,1.63.29,4.76,4.76,0,0,0,1.64-9.23,4.69,4.69,0,0,0-1.64-.29Z"/><path class="b" d="M456.7,114a4.76,4.76,0,0,0-1.64,9.23,4.93,4.93,0,0,0,1.64.29,4.76,4.76,0,0,0,1.63-9.23,4.68,4.68,0,0,0-1.63-.29Z"/><path class="b" d="M456.7,132.75a4.76,4.76,0,0,0-1.64,9.23,4.93,4.93,0,0,0,1.64.29,4.76,4.76,0,0,0,1.63-9.23,4.68,4.68,0,0,0-1.63-.29Z"/><path class="b" d="M456.7,151.94a4.76,4.76,0,0,0-1.64,9.23,4.93,4.93,0,0,0,1.64.29,4.76,4.76,0,0,0,1.63-9.23,4.68,4.68,0,0,0-1.63-.29Z"/><line class="a" x1="313.02" y1="166.12" x2="293.09" y2="168.33"/><line class="a" x1="293.09" y1="107.16" x2="313.02" y2="109.44"/><polyline class="a" points="293.09 107.16 274.09 136.44 293.09 168.34"/><polyline class="a" points="489.17 192.09 525.05 139.98 489.17 82.93"/><polyline class="a" points="371.2 128.79 371.2 109.22 386.5 109.22"/><polyline class="a" points="428.85 128.79 428.85 109.22 413.55 109.22"/><polyline class="a" points="428.85 147.29 428.85 166.87 413.55 166.87"/><polyline class="a" points="371.2 147.29 371.2 166.87 386.5 166.87"/><line class="a" x1="354.69" y1="692.71" x2="445.8" y2="692.71"/><line class="a" x1="294.18" y1="99.61" x2="294.18" y2="176.48"/><line class="a" x1="345.62" y1="706.87" x2="455.05" y2="706.87"/><path class="a" d="M444.23,707a46.55,46.55,0,0,1-87.86-.2"/><line class="a" x1="489.17" y1="78.97" x2="489.17" y2="196.1"/><line class="a" x1="224.05" y1="609.53" x2="301.98" y2="609.53"/><line class="a" x1="255.94" y1="626.47" x2="301.98" y2="626.47"/><line class="a" x1="267.15" y1="644.29" x2="319.81" y2="644.29"/><line class="a" x1="228.32" y1="644.29" x2="255.94" y2="644.29"/><line class="a" x1="218.04" y1="626.47" x2="243.13" y2="626.47"/><line class="a" x1="330.49" y1="660.34" x2="366.97" y2="660.34"/><line class="a" x1="287.97" y1="660.34" x2="317.99" y2="660.34"/><line class="a" x1="256.07" y1="660.34" x2="273.02" y2="660.34"/><line class="a" x1="325.13" y1="677.27" x2="366.97" y2="677.27"/><line class="a" x1="296.51" y1="677.27" x2="312.78" y2="677.27"/><path class="a" d="M355.13,463.93a166.25,166.25,0,0,1-2.6-29.65,164.46,164.46,0,0,1,3.31-33.3"/><path class="a" d="M439.83,483.75c-8.48,24.77-23.14,41.14-39.81,41.14s-31.32-16.37-39.8-41.14"/><path class="a" d="M444.51,402.45a169.92,169.92,0,0,1,.05,63.42"/><path class="a" d="M362.31,379.18c8.68-21.59,22.35-35.52,37.71-35.52s29.05,13.94,37.73,35.56"/><line class="a" x1="256.71" y1="243.57" x2="183.57" y2="243.57"/><line class="a" x1="169.99" y1="227.9" x2="161.85" y2="227.9"/><line class="a" x1="200.06" y1="227.9" x2="182.44" y2="227.9"/><line class="a" x1="240.41" y1="227.9" x2="213.59" y2="227.9"/><line class="a" x1="170.19" y1="243.57" x2="145.84" y2="243.57"/><line class="a" x1="224.11" y1="212.22" x2="196.69" y2="212.22"/><line class="a" x1="543.34" y1="243.57" x2="616.48" y2="243.57"/><line class="a" x1="630.06" y1="227.9" x2="638.2" y2="227.9"/><line class="a" x1="599.99" y1="227.9" x2="617.61" y2="227.9"/><line class="a" x1="559.64" y1="227.9" x2="586.46" y2="227.9"/><line class="a" x1="629.86" y1="243.57" x2="654.21" y2="243.57"/><line class="a" x1="575.94" y1="212.22" x2="603.36" y2="212.22"/><line class="a" x1="329.33" y1="211.17" x2="281.44" y2="211.17"/><line class="a" x1="352.53" y1="211.17" x2="341.61" y2="211.17"/><line class="a" x1="318.66" y1="196.29" x2="308.03" y2="196.29"/><line class="a" x1="366.97" y1="196.29" x2="332" y2="196.29"/><line class="a" x1="470.71" y1="212.22" x2="518.61" y2="212.22"/><line class="a" x1="447.52" y1="212.22" x2="458.44" y2="212.22"/><line class="a" x1="433.08" y1="197.34" x2="474.45" y2="197.34"/><line class="a" x1="194.15" y1="609.53" x2="211.1" y2="609.53"/><line class="a" x1="242.2" y1="591.36" x2="269" y2="591.36"/><line class="a" x1="237.79" y1="573.76" x2="269" y2="573.76"/><line class="a" x1="151.78" y1="537.08" x2="176.6" y2="537.08"/><line class="a" x1="162.79" y1="566.29" x2="181.14" y2="566.29"/><line class="a" x1="160.87" y1="519.05" x2="191.87" y2="519.05"/><line class="a" x1="134.33" y1="519.05" x2="148.41" y2="519.05"/><line class="a" x1="167.65" y1="501.01" x2="207.14" y2="501.01"/><line class="a" x1="127.83" y1="501.01" x2="155.81" y2="501.01"/><line class="a" x1="155.81" y1="482.98" x2="222.42" y2="482.98"/><line class="a" x1="134.33" y1="482.98" x2="143.95" y2="482.98"/><line class="a" x1="151.54" y1="463.05" x2="203.53" y2="463.05"/><line class="a" x1="118.22" y1="463.05" x2="139.73" y2="463.05"/><line class="a" x1="171.73" y1="445.38" x2="224.05" y2="445.38"/><line class="a" x1="125.16" y1="445.38" x2="158.04" y2="445.38"/><line class="a" x1="142.46" y1="427.75" x2="155.72" y2="427.75"/><line class="a" x1="114.17" y1="427.75" x2="130.72" y2="427.75"/><line class="a" x1="127.58" y1="410.83" x2="146.17" y2="410.83"/><line class="a" x1="100.26" y1="410.83" x2="115.74" y2="410.83"/><line class="a" x1="107.73" y1="392.8" x2="135.99" y2="392.8"/><line class="a" x1="102.39" y1="373.85" x2="125.16" y2="373.85"/><line class="a" x1="101.51" y1="354.1" x2="114.34" y2="354.1"/><line class="a" x1="259.28" y1="556.95" x2="269" y2="556.95"/><line class="a" x1="252.87" y1="538.26" x2="269" y2="538.26"/><line class="a" x1="218.71" y1="591.36" x2="230.32" y2="591.36"/><line class="a" x1="194.15" y1="626.47" x2="205.76" y2="626.47"/><line class="a" x1="576" y1="609.53" x2="498.07" y2="609.53"/><line class="a" x1="544.11" y1="626.47" x2="498.07" y2="626.47"/><line class="a" x1="532.9" y1="644.29" x2="480.24" y2="644.29"/><line class="a" x1="579.08" y1="644.29" x2="544.11" y2="644.29"/><line class="a" x1="574.66" y1="626.47" x2="556.92" y2="626.47"/><line class="a" x1="469.56" y1="660.34" x2="433.08" y2="660.34"/><line class="a" x1="512.08" y1="660.34" x2="482.06" y2="660.34"/><line class="a" x1="550.27" y1="660.34" x2="527.03" y2="660.34"/><line class="a" x1="474.91" y1="677.27" x2="433.08" y2="677.27"/><line class="a" x1="503.54" y1="677.27" x2="487.27" y2="677.27"/><line class="a" x1="601.7" y1="609.53" x2="588.95" y2="609.53"/><line class="a" x1="557.85" y1="591.36" x2="531.05" y2="591.36"/><line class="a" x1="562.26" y1="573.76" x2="531.05" y2="573.76"/><line class="a" x1="651.42" y1="537.08" x2="623.45" y2="537.08"/><line class="a" x1="637.26" y1="566.29" x2="618.91" y2="566.29"/><line class="a" x1="646.52" y1="519.05" x2="608.18" y2="519.05"/><line class="a" x1="673.07" y1="519.05" x2="658.98" y2="519.05"/><line class="a" x1="632.4" y1="501.01" x2="592.9" y2="501.01"/><line class="a" x1="662.78" y1="501.01" x2="644.24" y2="501.01"/><line class="a" x1="644.24" y1="482.98" x2="577.63" y2="482.98"/><line class="a" x1="665.72" y1="482.98" x2="656.1" y2="482.98"/><line class="a" x1="639.07" y1="463.05" x2="596.52" y2="463.05"/><line class="a" x1="672.38" y1="463.05" x2="650.87" y2="463.05"/><line class="a" x1="628.32" y1="445.38" x2="576" y2="445.38"/><line class="a" x1="684.33" y1="445.38" x2="642.01" y2="445.38"/><line class="a" x1="670.18" y1="427.75" x2="644.33" y2="427.75"/><line class="a" x1="691.13" y1="427.75" x2="681.92" y2="427.75"/><line class="a" x1="672.47" y1="410.83" x2="653.88" y2="410.83"/><line class="a" x1="701.89" y1="410.83" x2="684.31" y2="410.83"/><line class="a" x1="708.06" y1="392.8" x2="664.06" y2="392.8"/><line class="a" x1="700.67" y1="373.85" x2="674.76" y2="373.85"/><line class="a" x1="698.54" y1="354.1" x2="685.71" y2="354.1"/><line class="a" x1="540.77" y1="556.95" x2="531.05" y2="556.95"/><line class="a" x1="547.18" y1="538.26" x2="531.05" y2="538.26"/><line class="a" x1="581.34" y1="591.36" x2="569.73" y2="591.36"/><line class="a" x1="598.55" y1="626.47" x2="586.94" y2="626.47"/><polygon class="a" points="450.92 483.74 348.08 483.74 363.03 441.75 435.97 441.75 450.92 483.74"/><path class="a" d="M366.2,404.35a25.28,25.28,0,0,1-22.83-25.16h25.29"/><polygon class="a" points="453.81 400.18 432.81 405.32 432.81 379.19 453.81 379.19 453.81 400.18"/><line class="a" x1="378.5" y1="421.18" x2="372.93" y2="441.75"/><line class="a" x1="420.5" y1="421.18" x2="426.07" y2="441.75"/><rect class="a" x="366.19" y="379.19" width="66.63" height="41.99"/><polyline class="a" points="551.76 427.74 596.29 463.05 560.75 463.05 635.32 551.1 604.86 551.1 686.76 651.12 549.18 549.39 574.75 549.39 531.04 507.37"/><line class="a" x1="611.96" y1="293.22" x2="554.99" y2="394.11"/><line class="a" x1="245.06" y1="394.11" x2="188.08" y2="293.22"/></svg>