<svg xmlns="http://www.w3.org/2000/svg" viewBox="0 0 800 800"><defs><style>.a{fill:none;stroke:#f0f;stroke-linecap:round;stroke-linejoin:round;stroke-width:6px;}</style></defs><title>WOW-crest</title><path class="a" d="M297.46,616.81a54.37,54.37,0,0,0-11.16,49.31,54.66,54.66,0,0,0,28.94-.18"/><path class="a" d="M318.11,658a54.53,54.53,0,0,0-.79,42.9,54.7,54.7,0,0,0,30.83-4.78"/><ellipse class="a" cx="215.62" cy="522.68" rx="23.36" ry="13.49" transform="translate(-150.5 91.81) rotate(-17.94)"/><ellipse class="a" cx="210.66" cy="485.68" rx="19.15" ry="11.06" transform="translate(-93.47 52.36) rotate(-11.61)"/><ellipse class="a" cx="202.39" cy="559.57" rx="12.28" ry="7.09" transform="translate(-173.33 98.14) rotate(-19.27)"/><ellipse class="a" cx="289.81" cy="690.59" rx="12.28" ry="7.09" transform="translate(-452.67 592.45) rotate(-59.7)"/><ellipse class="a" cx="260.08" cy="671.26" rx="16.85" ry="9.73" transform="matrix(0.63, -0.77, 0.77, 0.63, -424.24, 447.81)"/><ellipse class="a" cx="238.92" cy="546.14" rx="12.28" ry="7.09" transform="translate(-202.05 145.03) rotate(-24.08)"/><ellipse class="a" cx="206.33" cy="454.62" rx="7.09" ry="12.28" transform="translate(-252.07 652.41) rotate(-88.93)"/><ellipse class="a" cx="204" cy="428.68" rx="6.16" ry="10.66" transform="translate(-270.69 436.1) rotate(-65.45)"/><path class="a" d="M499,627.65c14.33,11.53,16.13,22,15.74,38.47a54.63,54.63,0,0,1-28.93-.18"/><path class="a" d="M482.87,657.92a54.5,54.5,0,0,1,.8,42.94c-10.49,1.43-16.91-1.47-26.56-9.27"/><ellipse class="a" cx="584.38" cy="528.68" rx="13.49" ry="23.36" transform="translate(-98.59 921.83) rotate(-72.06)"/><ellipse class="a" cx="589.33" cy="491.68" rx="11.06" ry="19.15" transform="matrix(0.2, -0.98, 0.98, 0.2, -10.93, 969.96)"/><ellipse class="a" cx="597.6" cy="565.57" rx="7.09" ry="12.28" transform="translate(-133.5 943.05) rotate(-70.73)"/><ellipse class="a" cx="508.19" cy="691.59" rx="7.09" ry="12.28" transform="translate(-279.48 350.8) rotate(-30.3)"/><ellipse class="a" cx="536.99" cy="674.99" rx="7.09" ry="12.28" transform="translate(-305.11 488.35) rotate(-39)"/><ellipse class="a" cx="561.07" cy="552.14" rx="7.09" ry="12.28" transform="translate(-171.95 839.07) rotate(-65.92)"/><ellipse class="a" cx="593.66" cy="460.62" rx="12.28" ry="7.09" transform="translate(-8.51 11.18) rotate(-1.07)"/><ellipse class="a" cx="595.99" cy="434.68" rx="10.66" ry="6.16" transform="translate(-126.73 286.97) rotate(-24.55)"/><ellipse class="a" cx="191.59" cy="297.87" rx="6.16" ry="10.66" transform="translate(-126.1 141.33) rotate(-31.02)"/><ellipse class="a" cx="218.72" cy="317.08" rx="8.56" ry="14.82" transform="translate(-139.52 175.5) rotate(-33.84)"/><ellipse class="a" cx="159.98" cy="288.53" rx="8.56" ry="14.82" transform="translate(-133.57 137.96) rotate(-33.84)"/><ellipse class="a" cx="591.99" cy="325.84" rx="14.84" ry="8.1" transform="translate(-74.43 437.69) rotate(-38.36)"/><ellipse class="a" cx="644.46" cy="293.42" rx="14.11" ry="8.15" transform="translate(-42.98 463.26) rotate(-38.36)"/><ellipse class="a" cx="553.45" cy="358.72" rx="10.66" ry="6.16" transform="translate(-54.8 613.72) rotate(-55.69)"/><ellipse class="a" cx="230.89" cy="177.01" rx="13.49" ry="23.36" transform="translate(-59.74 190.36) rotate(-40.11)"/><ellipse class="a" cx="266.63" cy="151.32" rx="13.49" ry="23.36" transform="translate(-39.91 155.88) rotate(-30.43)"/><ellipse class="a" cx="198.63" cy="196.77" rx="9.5" ry="16.45" transform="translate(-79.63 224.04) rotate(-50.33)"/><ellipse class="a" cx="297.83" cy="126.12" rx="9.5" ry="16.45" transform="translate(-25.53 133.21) rotate(-24.21)"/><ellipse class="a" cx="228.93" cy="135.14" rx="7.09" ry="12.28" transform="translate(-36.8 142.91) rotate(-32.23)"/><ellipse class="a" cx="192.72" cy="162.69" rx="7.09" ry="12.28" transform="translate(-59.42 168.27) rotate(-41.44)"/><ellipse class="a" cx="267.76" cy="109.18" rx="7.09" ry="12.28" transform="translate(-21.36 114.29) rotate(-23.2)"/><ellipse class="a" cx="306.77" cy="93.07" rx="5.53" ry="9.58" transform="translate(-13.65 82.89) rotate(-15.06)"/><ellipse class="a" cx="168.37" cy="203.46" rx="5.53" ry="9.58" transform="translate(-93.16 240.16) rotate(-58.38)"/><ellipse class="a" cx="355.71" cy="96.08" rx="9.58" ry="5.53" transform="translate(236.51 444.72) rotate(-86.24)"/><ellipse class="a" cx="332.07" cy="110.65" rx="7.09" ry="12.28" transform="translate(-16.29 76.56) rotate(-12.84)"/><ellipse class="a" cx="570.11" cy="177.01" rx="23.36" ry="13.49" transform="translate(67.46 499.03) rotate(-49.89)"/><ellipse class="a" cx="534.37" cy="151.32" rx="23.36" ry="13.49" transform="translate(133.25 535.44) rotate(-59.57)"/><ellipse class="a" cx="596.72" cy="205.21" rx="20.55" ry="11.87" transform="translate(6.42 428.21) rotate(-39.67)"/><ellipse class="a" cx="503.17" cy="126.12" rx="16.45" ry="9.5" transform="translate(181.82 533.34) rotate(-65.79)"/><ellipse class="a" cx="572.06" cy="135.14" rx="12.28" ry="7.09" transform="matrix(0.53, -0.85, 0.85, 0.53, 152.66, 546.99)"/><ellipse class="a" cx="611.28" cy="165.69" rx="12.28" ry="7.09" transform="translate(82.52 514.29) rotate(-48.56)"/><ellipse class="a" cx="533.23" cy="109.18" rx="12.28" ry="7.09" transform="translate(222.85 556.3) rotate(-66.8)"/><ellipse class="a" cx="494.23" cy="93.07" rx="9.58" ry="5.53" transform="translate(275.96 546.15) rotate(-74.94)"/><ellipse class="a" cx="445.28" cy="96.08" rx="5.53" ry="9.58" transform="translate(-5.34 29.41) rotate(-3.76)"/><ellipse class="a" cx="468.92" cy="110.65" rx="12.28" ry="7.09" transform="translate(256.83 543.26) rotate(-77.16)"/><path class="a" d="M232.89,369.66l-4.14-23.06-35.06-8.24,1.52-14.2c-48.73-24.64-101.35-20.72-101.35-20.72s16.45,50.14,57.81,85.79l12.54-6.83,21,29.27,22.89-5"/><path class="a" d="M230.54,373.16c-46.38-34.65-98.64-44.27-98.64-44.27s28.82,44.65,78.55,74.31"/><ellipse class="a" cx="195.72" cy="371.6" rx="7.63" ry="10.68" transform="translate(-221.96 327.6) rotate(-56.21)"/><polyline class="a" points="242.73 376.25 268.28 380.66 250.8 392.16 252.03 409.28 235.74 414.68 231.77 435.22 217.94 413.29"/><rect class="a" x="203.14" y="385.56" width="44.57" height="11.83" transform="translate(-225.3 361.11) rotate(-56.21)"/><path class="a" d="M470.38,555.41s5.88,43.79,83.35,107.73l45.66-21.4"/><line class="a" x1="502.19" y1="576.7" x2="492.24" y2="581.07"/><line class="a" x1="518.32" y1="587.49" x2="501.9" y2="594.69"/><line class="a" x1="534.45" y1="598.28" x2="511.52" y2="608.33"/><line class="a" x1="550.57" y1="609.07" x2="522.99" y2="621.17"/><line class="a" x1="566.7" y1="619.86" x2="535.58" y2="633.51"/><line class="a" x1="582.82" y1="630.65" x2="548.36" y2="645.77"/><path class="a" d="M470.38,555.41s42.72-11.26,131.37,36.05l-2.37,50.37"/><line class="a" x1="502.19" y1="576.7" x2="502.43" y2="565.83"/><line class="a" x1="518.32" y1="587.49" x2="518.71" y2="569.56"/><line class="a" x1="534.45" y1="598.28" x2="534.99" y2="573.26"/><line class="a" x1="550.57" y1="609.07" x2="551.23" y2="578.96"/><line class="a" x1="566.7" y1="619.86" x2="567.44" y2="585.89"/><line class="a" x1="582.82" y1="630.65" x2="583.65" y2="593.03"/><line class="a" x1="487.17" y1="566.65" x2="580.83" y2="629.32"/><path class="a" d="M568.36,373.33l4.81-22.93,35.29-7.22,7.89-19.24c49.43-23.2,92.92-12.75,92.92-12.75S691.36,360.83,649,395.26l-12.34-7.19L614.8,416.71l-22.74-5.64"/><path class="a" d="M570.61,376.9c47.36-33.29,99.89-41.38,99.89-41.38s-30.11,43.79-80.68,72"/><ellipse class="a" cx="605.46" cy="376.35" rx="10.68" ry="7.63" transform="translate(-107.43 379.51) rotate(-32.12)"/><polyline class="a" points="558.33 379.62 532.66 383.29 549.8 395.3 548.08 412.37 564.2 418.24 567.57 438.89 582.03 417.37"/><rect class="a" x="552.91" y="389.44" width="44.57" height="11.83" transform="translate(546.16 1092.71) rotate(-122.12)"/><path class="a" d="M325.55,552.08s-7.15,43.59-86.45,105.24l-45-22.71"/><line class="a" x1="293.14" y1="572.43" x2="302.96" y2="577.08"/><line class="a" x1="276.7" y1="582.74" x2="292.91" y2="590.42"/><line class="a" x1="260.27" y1="593.06" x2="282.89" y2="603.77"/><line class="a" x1="243.84" y1="603.37" x2="271.05" y2="616.27"/><line class="a" x1="227.4" y1="613.69" x2="258.11" y2="628.24"/><line class="a" x1="210.97" y1="624.01" x2="244.98" y2="640.12"/><path class="a" d="M325.55,552.08s-42.37-12.51-132.36,32.2l.9,50.42"/><line class="a" x1="293.14" y1="572.43" x2="293.21" y2="561.55"/><line class="a" x1="276.7" y1="582.74" x2="276.83" y2="564.81"/><line class="a" x1="260.27" y1="593.06" x2="260.45" y2="568.03"/><line class="a" x1="243.84" y1="603.37" x2="244.05" y2="573.26"/><line class="a" x1="227.4" y1="613.69" x2="227.65" y2="579.71"/><line class="a" x1="210.97" y1="624.01" x2="211.24" y2="586.37"/><line class="a" x1="308.44" y1="562.82" x2="213" y2="622.73"/><path class="a" d="M378.54,453.65c.39,2.43,1.21,4.68,1.13,7.23a39,39,0,0,1-27.59,36,40.77,40.77,0,0,1-6.26,1.36q2.06,3.51,3.87,7.18a114.08,114.08,0,0,1,2.69,94.72,173.07,173.07,0,0,0,35.16,62.25,173.43,173.43,0,0,1,17.07-153.87A39,39,0,0,1,409,456.22"/><path class="a" d="M387.54,662.42a173,173,0,0,0,79.22,51.18,172.93,172.93,0,0,1-29.18-216.37A39.18,39.18,0,0,1,423.87,484c-3.94-6.32-9.25-17.93-3.85-29.68"/><path class="a" d="M479.13,354.17a39,39,0,0,1,56.56,3.28c1.24-2.41,2.56-4.79,4-7.12a114.06,114.06,0,0,1,78.41-53.23A173.15,173.15,0,0,0,651.62,234a173.37,173.37,0,0,1-138.89,68.39,39,39,0,0,1-46.61,24.43"/><path class="a" d="M343.41,317.32a39,39,0,0,1-23.92-50.53q-4.07.16-8.15,0a114,114,0,0,1-84.89-42.12A173.17,173.17,0,0,0,155,226.52,173.4,173.4,0,0,1,282.8,313.86a39,39,0,0,1,43.8,27.22"/><path class="a" d="M155,226.52a173.14,173.14,0,0,0-82.4,45.89A173,173,0,0,1,277.3,348.28a39.26,39.26,0,0,1,18.14-5.88c7.43-.5,21.35.43,26.88,10.14"/><path class="a" d="M326.22,219.48c-.75-15.72,1.28-34.51,7.9-56.74"/><path class="a" d="M369.9,248.65l-10.74,39.82s-30.56-18.92-32.94-69"/><path class="a" d="M383.19,197.66s-22.8-6.75-24-25.95"/><line class="a" x1="340.16" y1="264.38" x2="350.32" y2="247.23"/><line class="a" x1="330.14" y1="242.95" x2="340.16" y2="230.83"/><line class="a" x1="362.86" y1="236.89" x2="371.17" y2="216.44"/><line class="a" x1="350.32" y1="221.57" x2="359.16" y2="209"/><path class="a" d="M431.1,248.65l10.74,39.82s52.75-32.66,25-125.73"/><polyline class="a" points="414.42 181.46 491.16 153.47 400.5 88.46 400.5 164.49"/><ellipse class="a" cx="400.5" cy="197.66" rx="17.31" ry="33.17"/><line class="a" x1="400.5" y1="164.49" x2="400.5" y2="230.83"/><path class="a" d="M417.81,197.66s22.79-6.75,24-25.95"/><line class="a" x1="460.84" y1="264.38" x2="450.68" y2="247.23"/><line class="a" x1="470.86" y1="242.95" x2="460.84" y2="230.83"/><line class="a" x1="438.13" y1="236.89" x2="429.82" y2="216.44"/><line class="a" x1="450.68" y1="221.57" x2="441.84" y2="209"/><circle class="a" cx="400.5" cy="375.26" r="81.4"/><line class="a" x1="151.67" y1="389.23" x2="151.67" y2="568.79"/><polygon class="a" points="126.48 543.79 151.67 568.79 151.67 424.67 126.48 449.67 126.48 543.79"/><line class="a" x1="151.67" y1="444.67" x2="126.48" y2="469.67"/><line class="a" x1="151.67" y1="462.67" x2="126.48" y2="487.67"/><line class="a" x1="151.67" y1="500.67" x2="126.48" y2="525.67"/><polygon class="a" points="176.86 543.79 151.67 568.79 151.67 424.67 176.86 449.67 176.86 543.79"/><line class="a" x1="151.67" y1="462.67" x2="176.86" y2="487.67"/><line class="a" x1="151.67" y1="500.67" x2="176.86" y2="525.67"/><line class="a" x1="151.67" y1="519.67" x2="176.86" y2="543.79"/><line class="a" x1="103.79" y1="326.39" x2="103.79" y2="450.78"/><polygon class="a" points="89.28 436.37 103.79 450.78 103.79 367.75 89.28 382.15 89.28 436.37"/><polygon class="a" points="118.3 436.37 103.79 450.78 103.79 367.75 118.3 382.15 118.3 436.37"/><line class="a" x1="648.65" y1="395.26" x2="648.65" y2="568.79"/><polygon class="a" points="673.84 543.79 648.65 568.79 648.65 424.67 673.84 449.67 673.84 543.79"/><line class="a" x1="648.65" y1="444.67" x2="673.83" y2="469.67"/><line class="a" x1="648.65" y1="462.67" x2="673.83" y2="487.67"/><line class="a" x1="648.65" y1="500.67" x2="673.83" y2="525.67"/><polygon class="a" points="623.46 543.79 648.65 568.79 648.65 424.67 623.46 449.67 623.46 543.79"/><line class="a" x1="648.65" y1="462.67" x2="623.46" y2="487.67"/><line class="a" x1="648.65" y1="500.67" x2="623.46" y2="525.67"/><line class="a" x1="648.65" y1="519.67" x2="623.46" y2="543.79"/><line class="a" x1="696.52" y1="337.69" x2="696.52" y2="450.78"/><polygon class="a" points="711.03 436.37 696.52 450.78 696.52 367.75 711.03 382.15 711.03 436.37"/><polygon class="a" points="682.01 436.37 696.52 450.78 696.52 367.75 682.01 382.15 682.01 436.37"/><path class="a" d="M418.39,398.6a46.95,46.95,0,0,1-22.51-87.25,64.08,64.08,0,1,0,68.66,66,64.92,64.92,0,0,0-.42-9.8A47,47,0,0,1,418.39,398.6Z"/><circle class="a" cx="422.59" cy="349.17" r="33.19"/><polyline class="a" points="380.35 296.45 400.5 245 420.64 296.45"/><path class="a" d="M290.6,221.59a54.37,54.37,0,0,0-48.71-11.1,54.39,54.39,0,0,0,.88,30.62"/><path class="a" d="M311.6,207.44a54.37,54.37,0,0,0-47.68-21,54.74,54.74,0,0,0-5.14,22.3"/><path class="a" d="M330.14,181.08a54.6,54.6,0,0,0-32.44-14.27,54.73,54.73,0,0,0-9.15,23.27"/><path class="a" d="M388,216.75l-7.62,38s-52.54-34.31-46.23-92"/><path class="a" d="M413,216.75l7.62,38s52.54-34.31,46.23-92"/><polyline class="a" points="386.57 181.46 309.83 153.47 400.5 88.46 400.5 164.49"/><path class="a" d="M471.38,180.6a54.62,54.62,0,0,1,31.91-13.79,54.77,54.77,0,0,1,9.15,23.28"/><path class="a" d="M489.42,207.4a54.38,54.38,0,0,1,47.66-20.94,54.73,54.73,0,0,1,5.11,21.3"/><path class="a" d="M513.5,222.27a54.34,54.34,0,0,1,50.6-12.78,54.66,54.66,0,0,1,1.27,23.28"/><path class="a" d="M525.52,249.8a54.49,54.49,0,0,1,60.89-12.5,54.73,54.73,0,0,1,.37,7"/><path class="a" d="M425.29,694.59c-14.38,11.33-24.79,15.73-24.79,15.73"/><line class="a" x1="509.32" y1="343.73" x2="509.28" y2="422.51"/><polyline class="a" points="476.74 220.75 509.36 242.43 509.35 278.54"/><path class="a" d="M443.84,704.76c-23.71,21.51-43.34,29.37-43.34,29.37"/><path class="a" d="M504.23,615.05c-14.47,37.22-34.24,63.83-52.65,82.32"/><path class="a" d="M525.41,441.4v38.93a395.14,395.14,0,0,1-5.62,78.59"/><line class="a" x1="525.46" y1="349.17" x2="525.43" y2="412.31"/><polyline class="a" points="474.96 197.6 525.52 231.87 525.5 275.15"/><path class="a" d="M651.62,234c8.75-30.33,3.24-55-5.47-86.31-8.92,47.15-31.27,82.38-75.79,108.79a172.71,172.71,0,0,1-57,21.39,171.5,171.5,0,0,1-27.95,2.81,39.2,39.2,0,0,1-3.8,18.69A38.79,38.79,0,0,1,466.39,316a39.37,39.37,0,0,1-6.85,3.21"/><path class="a" d="M525.52,495.14a54.46,54.46,0,0,1,23.7,38,54.57,54.57,0,0,1-27.22,11"/><path class="a" d="M525.61,467.38a54.35,54.35,0,0,1,37.55,36.28,54.56,54.56,0,0,1-18.81,13.21"/><path class="a" d="M532.21,436.55A54.46,54.46,0,0,1,568.61,465a54.68,54.68,0,0,1-18,17.19"/><polyline class="a" points="275.6 259.88 275.6 231.87 326.12 197.59"/><line class="a" x1="275.6" y1="410.48" x2="275.6" y2="345.46"/><polyline class="a" points="291.74 264.38 291.74 242.43 326.22 219.48"/><line class="a" x1="291.74" y1="421.36" x2="291.74" y2="342.83"/><path class="a" d="M257,320.61a54.7,54.7,0,0,0-14.26,5.91,54.37,54.37,0,0,0,27.77,46.75,55.51,55.51,0,0,0,5.13,2.54"/><path class="a" d="M275.48,488.49a54.38,54.38,0,0,0-24.7,38.63,54.65,54.65,0,0,0,27.44,11"/><path class="a" d="M275.6,461.07a54.32,54.32,0,0,0-38.76,36.59,54.68,54.68,0,0,0,18.8,13.22"/><path class="a" d="M263.77,431.63A54.49,54.49,0,0,0,231.39,459a54.71,54.71,0,0,0,18.1,17.26"/><line class="a" x1="437.01" y1="496.32" x2="562.24" y2="417.7"/><line class="a" x1="318.2" y1="570.9" x2="360.8" y2="544.16"/><polyline class="a" points="193.32 620.85 173.38 633.36 186.19 653.77 206.63 640.94"/><path class="a" d="M280.27,553.33a399.14,399.14,0,0,1-4.67-73V439.59"/><path class="a" d="M400.5,734.13S328.22,705.2,293.58,606.42"/><path class="a" d="M297,551a380,380,0,0,1-5.21-74.11V450.78"/><path class="a" d="M400.5,710.32S336.22,683.15,306.45,590"/><polyline class="a" points="600.05 627.67 620.12 641.1 606.72 661.12 586.35 647.49"/><line class="a" x1="429.16" y1="513.32" x2="490.32" y2="554.24"/><line class="a" x1="250.94" y1="394.06" x2="375.49" y2="477.4"/><path class="a" d="M491.2,598c-13.95,39.25-33.42,66.1-51.18,83.59"/><path class="a" d="M509.27,451v26c.64,29.53-1.67,55.58-6,78.49"/><line class="a" x1="355.35" y1="519.13" x2="305.34" y2="550.53"/><line class="a" x1="549.43" y1="397.3" x2="420.74" y2="478.08"/><line class="a" x1="357.88" y1="494.61" x2="237.54" y2="414.08"/><line class="a" x1="477.18" y1="574.44" x2="420.82" y2="536.72"/></svg>