<svg xmlns="http://www.w3.org/2000/svg" viewBox="0 0 800 800"><defs><style>.a{fill:none;stroke:#c2bed7;stroke-linecap:round;stroke-linejoin:round;stroke-width:6px;}</style></defs><title>WOW-crest</title><polyline class="a" points="394.39 117.42 355.78 102 328.15 107.52 293.64 94.88"/><line class="a" x1="465.89" y1="120.26" x2="421.18" y2="128.12"/><path class="a" d="M149.87,253.36a39.66,39.66,0,0,0,12,1.87c15.34,0,27.9-8.2,32.27-21.75,0,0,47.33,4.56,37.12,47.52-6.39,26.91-32.4,65.24-36.39,126.71"/><path class="a" d="M186.77,162.46c10.72-6.53,21.66-10.7,35.13-10.7a70.89,70.89,0,0,1,68.3,51.94l-20.13,12,22.68,6.94a70.84,70.84,0,0,1-65.33,70.63"/><path class="a" d="M188,184.65A54,54,0,0,0,143.58,263a54,54,0,0,1,48.2-29.6c.81,0,1.61,0,2.41.06"/><polyline class="a" points="186.77 162.46 187.96 184.66 179.57 212.1 194.2 233.48"/><path class="a" d="M221.9,198C208.42,182.42,188,184.66,188,184.66s14.46-18.14,41.77-14.46L212.09,187"/><path class="a" d="M186.77,162.46c34-23,74.1-35.77,118.28-35.77a213.38,213.38,0,0,1,61.23,8.92h0L285.86,192.1"/><path class="a" d="M245.18,155.68s27.81-14.9,76.34-10.51l-46.9,30.11"/><path class="a" d="M428.33,172.36c38.88,17.37,84.57,45.71,117.51,90.66"/><path class="a" d="M350.71,147.38a280.46,280.46,0,0,1,30.07,7.4"/><line class="a" x1="526.19" y1="393.19" x2="706.28" y2="393.19"/><line class="a" x1="208.26" y1="393.19" x2="378.14" y2="393.19"/><polygon class="a" points="173.47 364.49 94.65 393.19 173.47 421.9 208.26 393.19 173.47 364.49"/><line class="a" x1="129.51" y1="393.19" x2="185.86" y2="393.19"/><line class="a" x1="634.33" y1="393.19" x2="665.01" y2="362.51"/><line class="a" x1="665.01" y1="423.87" x2="634.33" y2="393.19"/><polyline class="a" points="685.57 423.87 654.89 393.19 670.23 377.85"/><line class="a" x1="675.46" y1="393.19" x2="706.13" y2="362.51"/><line class="a" x1="706.13" y1="423.87" x2="675.46" y2="393.19"/><polygon class="a" points="434.55 164.82 405.84 199.61 377.13 164.82 405.84 86 434.55 164.82"/><line class="a" x1="405.84" y1="123.38" x2="405.84" y2="177.22"/><polyline class="a" points="436.52 685.74 405.84 655.06 391.53 669.37"/><polyline class="a" points="375.16 706.3 405.84 675.63 423.41 693.2"/><line class="a" x1="405.84" y1="696.19" x2="436.52" y2="726.87"/><line class="a" x1="375.16" y1="726.87" x2="405.84" y2="696.19"/><polyline class="a" points="244.81 563.38 272.44 545.96 272.44 523.05 292.75 508.85 300.83 533.83 296.77 554.36 314.98 570.21 314.98 617.71"/><polyline class="a" points="278.54 595.37 314.98 570.21 335.91 551.66 350.71 576.21 345.78 594.12 360.95 633.66"/><polyline class="a" points="272.44 523.05 254.86 502.4 260.27 483.96 248.78 456.44"/><line class="a" x1="260.27" y1="483.96" x2="272.44" y2="476.62"/><line class="a" x1="292.75" y1="508.85" x2="298.12" y2="490.36"/><polyline class="a" points="350.71 576.21 366.28 551.66 358.5 538.81"/><line class="a" x1="221.73" y1="530.32" x2="263.79" y2="512.9"/><polyline class="a" points="471.35 195.21 470.66 158.35 502.48 142.81 494.58 123.38 534.44 107.52"/><polyline class="a" points="483.09 152.28 464.28 133.04 468.03 103.36"/><polyline class="a" points="496 212.38 512.44 182.29 534.44 177.22 555.44 150.3 579.44 159.82 579.44 202.01 555.44 212.1 541.2 259.18"/><polyline class="a" points="524.49 178.58 524.49 144.36 534.44 130 545.85 123.38"/><polyline class="a" points="579.44 188.76 607.84 181.93 620.88 205.2"/><polyline class="a" points="548.98 233.48 537.72 205.2 556.44 192.1 556.44 171.62"/><polyline class="a" points="561.42 277.69 579.44 248.66 607.84 262.35 626.71 233.48 654.89 236.26 658.08 263.02"/><polyline class="a" points="599.48 258.33 595.44 279.84 613.46 293.24"/><polyline class="a" points="641.91 236.26 634.33 267.05 674.15 303.87"/><polyline class="a" points="654.24 313.67 613.46 313.67 610.65 358.5 629.52 362.51 648.09 358.5"/><polyline class="a" points="641.91 299.84 629.52 313.67 641.91 342.75 685.57 336.51 690.79 313.67 701.44 296.5"/><line class="a" x1="355.78" y1="102" x2="345.78" y2="86"/><polyline class="a" points="590.7 254.09 595.44 226.62 590.7 216.05"/><polyline class="a" points="620.88 455.16 658.08 448.6 678.44 471.32 715.29 449.93"/><polyline class="a" points="670.23 462.5 660.16 483.96 690.79 506.7"/><line class="a" x1="679.77" y1="498.52" x2="706.28" y2="483.96"/><polyline class="a" points="613.73 495.96 651.78 506.7 649.02 536.4 682.44 538.81"/><polyline class="a" points="623.9 533.83 629.52 501.63 641.91 485.59"/><polyline class="a" points="665.01 537.55 670.23 517.73 685.57 521.72"/><polyline class="a" points="220.97 309.64 199.11 290.03 171.78 301.38 160.44 284.33 123.11 293.24 109.11 273"/><line class="a" x1="123.11" y1="293.24" x2="104.44" y2="307.28"/><polyline class="a" points="187.96 293.24 185.86 273 201.78 263.02"/><polyline class="a" points="128.81 273 136.55 290.03 132.68 305.33"/><polyline class="a" points="211.17 334.22 187.96 338.68 165.04 317 141.78 325.96"/><polyline class="a" points="141.78 325.96 123.11 328.21 119.11 351.94 94.65 338.09"/><polyline class="a" points="176.89 328.21 157.69 351.94 137.73 341.03 134.44 358.5"/><polyline class="a" points="448.13 123.38 439.78 109 442.19 89.67"/><polyline class="a" points="470.66 169.71 455.78 159.82 457.27 147.38 445.44 140"/><line class="a" x1="473.83" y1="142.81" x2="481.44" y2="123.38"/><line class="a" x1="441.1" y1="98.42" x2="425.78" y2="92.33"/><polyline class="a" points="381.47 112.26 375.11 94 381.47 86"/><line class="a" x1="367.11" y1="106.52" x2="355.78" y2="119"/><polyline class="a" points="305.66 99.28 292.75 112.76 256.78 111.5"/><line class="a" x1="318.46" y1="103.97" x2="318.46" y2="89.67"/><polyline class="a" points="471.35 183.84 494.58 172.33 496 159.39"/><polyline class="a" points="494.58 189.67 501.41 202.5 522.44 199.61"/><line class="a" x1="524.49" y1="161.47" x2="510.78" y2="154.85"/><line class="a" x1="499.88" y1="136.43" x2="514.44" y2="128.12"/><line class="a" x1="545.84" y1="162.46" x2="541.78" y2="142.81"/><line class="a" x1="564.49" y1="153.89" x2="561.42" y2="132.27"/><line class="a" x1="556.44" y1="184.65" x2="568.94" y2="171.62"/><line class="a" x1="540.47" y1="212.1" x2="524.49" y2="220"/><polyline class="a" points="596.53 184.65 593.07 154.85 608.12 152.28"/><polyline class="a" points="613.73 192.1 623.9 177.22 643.71 187.21"/><line class="a" x1="590.7" y1="186.05" x2="600.6" y2="202.55"/><polyline class="a" points="545.85 243.84 568.94 236.26 570.94 220"/><polyline class="a" points="561.42 254.09 568.94 265.57 583.44 268"/><polyline class="a" points="593.78 236.26 613.46 226.62 632.44 222.5 634.33 208"/><line class="a" x1="634.33" y1="216.05" x2="654.24" y2="212.1"/><line class="a" x1="656.35" y1="248.51" x2="674.15" y2="235.07"/><line class="a" x1="665.25" y1="241.79" x2="679.77" y2="263.02"/><line class="a" x1="602.34" y1="284.97" x2="595.65" y2="303.87"/><polyline class="a" points="639.94 275.78 637.44 287.5 618.94 275.78"/><polyline class="a" points="658.08 287.5 679.77 287.5 690.79 278.13"/><line class="a" x1="658.08" y1="340.44" x2="667.62" y2="320.59"/><line class="a" x1="687.98" y1="325.96" x2="706.28" y2="325.96"/><line class="a" x1="611.63" y1="342.75" x2="626.71" y2="340.07"/><line class="a" x1="674.44" y1="341.03" x2="682.44" y2="351.93"/><line class="a" x1="697.13" y1="328.21" x2="701.44" y2="342.75"/><polyline class="a" points="634.33 423.87 648.09 437.8 632.44 451.04 641.91 471.32"/><line class="a" x1="662.85" y1="453.92" x2="682.44" y2="444.42"/><line class="a" x1="697.13" y1="460.47" x2="697.13" y2="442.47"/><line class="a" x1="649.02" y1="527.55" x2="637.11" y2="530.32"/><line class="a" x1="604.45" y1="537.39" x2="619.17" y2="545.96"/><polyline class="a" points="572.43 612.34 592.03 609.33 590.7 637 611.63 644.73"/><line class="a" x1="590.7" y1="637" x2="583.44" y2="666.54"/><polyline class="a" points="554.02 641.3 568.94 649.06 562.69 676.33 541.78 682.54"/><line class="a" x1="206.55" y1="294.42" x2="215.58" y2="278.13"/><line class="a" x1="123.11" y1="328.21" x2="104.44" y2="322.34"/><line class="a" x1="109.11" y1="346.48" x2="97.44" y2="368.5"/><path class="a" d="M194.2,427.74l-24.46,16.68s-33.3-9.34-35.3-10.71-25.33,21.45-25.33,21.45l-26.5-21.3"/><polyline class="a" points="134.44 433.71 110.78 419.19 93.86 421.9 82.61 404.79"/><line class="a" x1="93.74" y1="444.42" x2="86.93" y2="464.7"/><polyline class="a" points="120.38 442.62 137.73 458.08 104.44 476.62 115.78 508.71"/><path class="a" d="M108.15,489.75c-.15-.52-8.37,11.65-8.37,11.65"/><line class="a" x1="198.31" y1="336.69" x2="193.82" y2="313.67"/><line class="a" x1="157.69" y1="319.83" x2="149.87" y2="305.33"/><polyline class="a" points="501.38 120.67 501.38 102 481.44 102"/><path class="a" d="M194.66,439.65c-6.13,18-23.51,27.81-42.1,26a100,100,0,0,0,4.65,140.18,62.37,62.37,0,0,1-3.81-42.65c7.16-26.9,34.13-46.61,60.51-48"/><path class="a" d="M198.66,471.26s-45.6,5.46-52,53.36c0,0,27.85-27.95,59.68-26.72"/><path class="a" d="M216,519.41c.89,16.46-10.16,29.76-25.72,34.29A86.73,86.73,0,0,0,239.39,665a54.06,54.06,0,0,1-16.88-33.08c-3-24,12.07-47.29,32.83-57"/><path class="a" d="M229.14,544.82s-34.89,17.67-24.56,58.29c0,0,11.87-31.53,37.87-40.86"/><path class="a" d="M263.14,582.48a30.9,30.9,0,0,1-10,36.4,73.18,73.18,0,0,0,71.22,74,45.83,45.83,0,0,1-14.64-74.58"/><path class="a" d="M321.68,621.92c5.53,7.37,4.5,16.56-1.32,23.51a48.46,48.46,0,0,0,57.42,36.36,30.33,30.33,0,0,1-21.13-45.66"/><path class="a" d="M288.78,605.18s-13.09,15.07-11,39.31"/><path class="a" d="M194.92,407.71q-.72,8.76-.72,17.73c0,117.82,95.51,213.33,213.33,213.33a213.91,213.91,0,0,0,46.57-5.1c1.22-.27,2.42-.57,3.63-.86L458,723a96.65,96.65,0,0,0,31.16-16.7h0c135.9-97,131.68-280.86,131.68-280.86,0-117.83-95.51-213.34-213.33-213.34a212.31,212.31,0,0,0-119.28,36.44"/><path class="a" d="M599.48,425.44c0-106-85.94-192-192-192s-191.95,85.94-191.95,192,85.94,192,191.95,192c25.78,0,46.29-5.06,68.75-14.28h0v85.43s43.16-30.54,65.9-74.66l-25.82-70.43,46.41,34.6a449.41,449.41,0,0,0,27-78.24L544.71,466l51.26-3.9A192.74,192.74,0,0,0,599.48,425.44Z"/><line class="a" x1="591.18" y1="627.03" x2="575.11" y2="629.27"/><line class="a" x1="565.3" y1="664.98" x2="552.94" y2="664.98"/><line class="a" x1="510.86" y1="488.73" x2="641.91" y2="593.41"/><line class="a" x1="286.64" y1="309.64" x2="338.11" y2="350.75"/><line class="a" x1="607.83" y1="566.19" x2="658.08" y2="560.57"/><line class="a" x1="613.46" y1="616.43" x2="607.83" y2="566.19"/><line class="a" x1="623.9" y1="579.02" x2="674.15" y2="573.4"/><line class="a" x1="629.52" y1="629.27" x2="623.9" y2="579.02"/><path class="a" d="M391.59,597.29c79.76,0,135.31-114.16,135.31-184.12,0-73.67-28.33-129-70.43-159.08l-36.07,17,6.28,20.57-25.28,8.5-19-16.3-42.18,53.18-4.26,28.36,40.92,24.42,5,12.68-27.44,5.57,12.06,17.05-14.9,10.72v24.58l22.7-2.84-15.6,22,9.21,17.67-7.09,19.18,21.62,12.06,6.88,33.78L397.84,575Z"/><polyline class="a" points="420.46 479.61 401.4 491.57 382.35 479.61"/><path class="a" d="M420.46,479.61l-10.09-15.39V394.85s26.08,7.47,64.87-31.81c29.56-29.91,47.23-2.81,49.25,13.18"/><line class="a" x1="470.66" y1="495.96" x2="470.66" y2="508.85"/><line class="a" x1="470.66" y1="415.9" x2="470.66" y2="483.96"/><line class="a" x1="483.84" y1="437.8" x2="483.84" y2="451.04"/><line class="a" x1="483.84" y1="412.4" x2="483.84" y2="426.73"/><line class="a" x1="458.01" y1="458.08" x2="458.01" y2="471.32"/><line class="a" x1="458.01" y1="412.4" x2="458.01" y2="447.01"/><polyline class="a" points="439.44 533.83 419.12 509.61 401.4 515.28 380.35 509.61 371.76 522.61"/><polyline class="a" points="502.48 307.27 487.41 322.35 471.35 309.64 448.13 307.27 423.84 334.22 397.84 329.02"/><polyline class="a" points="434.55 322.35 449.84 340.98 442.19 355.02"/><polygon class="a" points="298.14 341.03 288.06 368.19 314.24 375.98 323.26 357.47 298.14 341.03"/><polygon class="a" points="320.73 319.34 332.07 325.96 345.78 301.38 321.2 301.38 320.73 319.34"/><polygon class="a" points="340.99 421.04 339.02 438.42 324.92 446.68 315.32 427.83 340.99 421.04"/><polygon class="a" points="335.31 455.16 314.98 460.11 319.48 476.19 340.99 479.97 335.31 455.16"/><polygon class="a" points="300.22 432.3 305.66 445.61 290.06 452.95 275.88 434.89 300.22 432.3"/><polygon class="a" points="345.51 490.36 350.71 506.03 342.2 523.05 322.81 504.58 345.51 490.36"/><ellipse class="a" cx="471.35" cy="402.52" rx="23.22" ry="12.67"/><polyline class="a" points="351.84 322.35 371.76 348.64 405.6 355.02"/><line class="a" x1="389.23" y1="351.93" x2="389.23" y2="371.16"/><line class="a" x1="471.35" y1="309.64" x2="459.53" y2="290.03"/><path class="a" d="M385,533.83h54.49s-5.57,24.25-36,24.25A56.33,56.33,0,0,1,389,556.4"/><path class="a" d="M494.21,403.06c12.58-2.31,23.87-7.2,31.48-16.16"/><path class="a" d="M410.37,394.85A253.43,253.43,0,0,0,448.5,403"/><line class="a" x1="405.84" y1="596.06" x2="405.84" y2="725.04"/><line class="a" x1="405.84" y1="199.61" x2="405.84" y2="298.69"/></svg>