<svg xmlns="http://www.w3.org/2000/svg" viewBox="0 0 800 800"><defs><style>.a{fill:none;stroke:#c79c1a;stroke-linecap:round;stroke-linejoin:round;stroke-width:6px;}.b{fill:#c79c1a;}</style></defs><title>WOW-crest</title><path class="a" d="M626.23,611.66a10.2,10.2,0,1,0-14.61-13.21"/><path class="a" d="M573.14,637.09a10.2,10.2,0,1,0,13.09,14.46"/><path class="a" d="M594.27,660.44a28.84,28.84,0,1,0,40.79-40.79"/><polyline class="a" points="553.94 615.86 594.27 660.44 635.06 619.65 498.75 496.33"/><line class="a" x1="476.49" y1="530.25" x2="521.92" y2="580.46"/><path class="a" d="M235.13,298.08c-22,20.78-14.51,52.8,9.75,65.42l4.81,44.67s-17.32-30.61-60.2-32c-74.36-2.39-94.11-77.5-94.11-77.5,34,24.14,88.53,22.23,120.91-19.44"/><rect class="a" x="217.37" y="247.3" width="53.13" height="44.03" transform="translate(606.85 287.26) rotate(135)"/><rect class="a" x="178.49" y="208.42" width="53.13" height="44.03" transform="translate(512.99 248.38) rotate(135)"/><rect class="a" x="139.34" y="169.27" width="53.13" height="44.03" transform="translate(418.48 209.23) rotate(135)"/><path class="a" d="M134.92,199.57,85.2,249.29s41.57,5.07,73.63-27.51"/><path class="a" d="M253.42,241.23s15.17-10.8,10-26.52c0,0,36.15-3.1,57.5,32,0,0-31.68-11.67-48.05,14"/><path class="a" d="M234,221.78s9.62-10.86,18-12.24c0,0-7.82-19.74-27.44-25,0,0-3.83,13-11.73,16.08"/><path class="a" d="M195.72,183.53s9.62-10.86,18-12.24c0,0-7.82-19.74-27.44-25,0,0-3.83,13-11.73,16.08"/><path class="a" d="M246.58,379.28c-9.58-8.28-25.17-17.31-48-18C153,359.78,128,331,115.37,309"/><path class="a" d="M182.32,272.92a85.63,85.63,0,0,1-71-2.53"/><path class="a" d="M100.26,234.24a89.82,89.82,0,0,0,47.5-22.89"/><path class="a" d="M153.77,155.12,104.05,105.4s-6,40.85,26.54,72.91"/><path class="a" d="M119.11,120.46A89.77,89.77,0,0,0,142,168"/><circle class="a" cx="599.21" cy="624.59" r="10.19"/><polyline class="a" points="165.13 160.94 157.08 152.88 127.5 182.46 135.56 190.51"/><line class="a" x1="204.28" y1="200.08" x2="196.27" y2="192.07"/><line class="a" x1="166.82" y1="221.78" x2="174.7" y2="229.66"/><path class="a" d="M195.61,258.56c-7.51,4.43-19.49,14.26-11.38,28.79,0,0-48.76,26.91-97.43-16.18,0,0,56.57,4.79,89.59-31.83"/><line class="a" x1="243.16" y1="238.96" x2="235.41" y2="231.21"/><line class="a" x1="205.73" y1="260.69" x2="213.58" y2="268.54"/><line class="a" x1="294.13" y1="289.93" x2="274.29" y2="270.09"/><line class="a" x1="287.86" y1="342.81" x2="299.27" y2="354.23"/><line class="a" x1="244.71" y1="299.67" x2="273.1" y2="328.05"/><path class="a" d="M173.77,611.66a10.19,10.19,0,1,1,14.6-13.22"/><path class="a" d="M226.86,637.09a10.2,10.2,0,1,1-13.09,14.46"/><path class="a" d="M205.73,660.44a28.84,28.84,0,1,1-40.79-40.79"/><polyline class="a" points="239.78 622.8 205.73 660.44 164.94 619.65 301.25 496.33"/><line class="a" x1="323.51" y1="530.25" x2="288.11" y2="569.38"/><path class="a" d="M564.87,298.08c22,20.78,14.51,52.8-9.75,65.42l-4.81,44.67s17.32-30.61,60.2-32c74.36-2.39,94.11-77.5,94.11-77.5-34,24.14-88.53,22.23-120.91-19.44"/><rect class="a" x="529.5" y="247.3" width="53.13" height="44.03" transform="translate(353.3 -314.32) rotate(45)"/><rect class="a" x="568.38" y="208.42" width="53.13" height="44.03" transform="translate(337.2 -353.2) rotate(45)"/><rect class="a" x="607.53" y="169.27" width="53.13" height="44.03" transform="translate(320.98 -392.34) rotate(45)"/><path class="a" d="M665.08,199.57l49.72,49.72s-41.57,5.07-73.63-27.51"/><path class="a" d="M546.58,241.23s-15.17-10.8-10-26.52c0,0-36.15-3.1-57.5,32,0,0,31.68-11.67,48.05,14"/><path class="a" d="M566,221.78s-9.62-10.86-18-12.24c0,0,7.82-19.74,27.44-25,0,0,3.83,13,11.73,16.08"/><path class="a" d="M604.28,183.53s-9.62-10.86-18-12.24c0,0,7.82-19.74,27.44-25,0,0,3.83,13,11.73,16.08"/><path class="a" d="M553.42,379.28c9.58-8.28,25.17-17.31,48-18C647,359.78,672.05,331,684.63,309"/><path class="a" d="M617.68,272.92a85.63,85.63,0,0,0,71-2.53"/><path class="a" d="M699.74,234.24a89.82,89.82,0,0,1-47.5-22.89"/><path class="a" d="M646.23,155.12,696,105.4s6,40.85-26.54,72.91"/><path class="a" d="M680.89,120.46A89.77,89.77,0,0,1,658,168"/><circle class="a" cx="200.79" cy="624.59" r="10.19"/><polyline class="a" points="634.87 160.94 642.92 152.88 672.5 182.46 664.45 190.51"/><line class="a" x1="595.72" y1="200.08" x2="603.73" y2="192.07"/><line class="a" x1="633.18" y1="221.78" x2="625.3" y2="229.66"/><path class="a" d="M604.39,258.56c7.51,4.43,19.49,14.26,11.38,28.79,0,0,48.76,26.91,97.43-16.18,0,0-56.57,4.79-89.59-31.83"/><line class="a" x1="556.84" y1="238.96" x2="564.59" y2="231.21"/><line class="a" x1="594.27" y1="260.69" x2="586.42" y2="268.54"/><line class="a" x1="505.87" y1="289.93" x2="525.71" y2="270.09"/><line class="a" x1="512.14" y1="342.81" x2="500.73" y2="354.23"/><line class="a" x1="555.29" y1="299.67" x2="526.9" y2="328.05"/><line class="a" x1="485.75" y1="481.55" x2="471.66" y2="467.46"/><polyline class="a" points="521.91 650.93 521.91 684.93 537.94 671.41 553.94 683.06 553.94 546.26 521.91 517.29 521.91 632.77"/><line class="a" x1="337.25" y1="297.13" x2="337.25" y2="275.5"/><line class="a" x1="337.25" y1="632.77" x2="337.25" y2="548.07"/><polyline class="a" points="462.75 650.93 462.75 689.14 337.25 689.14 337.25 650.93"/><line class="a" x1="462.75" y1="548.07" x2="462.75" y2="632.77"/><line class="a" x1="462.75" y1="275.83" x2="462.75" y2="297.14"/><polyline class="a" points="337.25 253.99 337.25 134.1 355.48 113.45 446.38 113.45 462.75 134.1 462.75 253.99"/><path class="a" d="M462.75,136l21.18-21.18H596a140.56,140.56,0,0,1-133.23,95.78"/><path class="a" d="M471.66,467.46a28.1,28.1,0,0,1,45.2-7.68"/><path class="a" d="M423.61,337,400,366.22,376.39,337a58.24,58.24,0,1,0,47.22,0Z"/><path class="a" d="M427.17,357.26a42.74,42.74,0,1,1-54.34,0L388,376,400,390.86,412.05,376l15.12-18.7M423.61,337,400,366.22,376.39,337a58.24,58.24,0,1,0,47.22,0Z"/><line class="a" x1="406.84" y1="553.1" x2="486.51" y2="632.77"/><line class="a" x1="313.49" y1="632.77" x2="393.16" y2="553.1"/><line class="a" x1="536.18" y1="141.09" x2="571.63" y2="158.93"/><line class="a" x1="580.95" y1="146.04" x2="541.48" y2="133.33"/><line class="a" x1="516.51" y1="160.29" x2="537.24" y2="189.22"/><line class="a" x1="548.96" y1="181.02" x2="523.31" y2="154.9"/><line class="a" x1="492.02" y1="172.84" x2="496.71" y2="206.44"/><line class="a" x1="510.35" y1="202.3" x2="500.46" y2="169.54"/><path class="a" d="M492.34,127.77l-15.75,15v20.06s28.92-2.55,49.68-35.07Z"/><path class="a" d="M337.25,136l-21.18-21.18H204a140.56,140.56,0,0,0,133.23,95.78"/><path class="a" d="M550.11,114.79a92.17,92.17,0,0,1-87.36,62.8S440.43,179,425.46,168L400,206.44,374.54,168c-15,11.06-37.29,9.64-37.29,9.64a92.17,92.17,0,0,1-87.36-62.8"/><line class="a" x1="263.82" y1="141.09" x2="228.37" y2="158.93"/><line class="a" x1="219.05" y1="146.04" x2="258.52" y2="133.33"/><line class="a" x1="283.49" y1="160.29" x2="262.76" y2="189.22"/><line class="a" x1="251.04" y1="181.02" x2="276.69" y2="154.9"/><line class="a" x1="307.98" y1="172.84" x2="303.29" y2="206.44"/><line class="a" x1="289.65" y1="202.3" x2="299.54" y2="169.54"/><path class="a" d="M307.66,127.77l15.75,15v20.06s-28.92-2.55-49.68-35.07Z"/><path class="a" d="M314.49,632.77c-7.91,0-12.7-6.5-14.33-20-1.16-9.62-5.1-17.71-12.38-21.77h-38.3a36.08,36.08,0,0,0-10.31,25.66c0,18.92,13.65,34.25,30.5,34.25H537.94V632.77Z"/><circle class="a" cx="400" cy="546.26" r="9.67"/><polyline class="a" points="454.02 632.77 436.99 650.93 419.95 632.77 402.91 650.93 385.87 632.77 368.84 650.93 351.8 632.77 334.76 650.93"/><line class="a" x1="102.9" y1="423.47" x2="269.63" y2="423.47"/><polyline class="a" points="116.88 403.33 137.16 423.62 117.96 442.82"/><polyline class="a" points="140.4 403.33 160.68 423.62 141.48 442.82"/><polyline class="a" points="163.92 403.33 184.2 423.62 165 442.82"/><polyline class="a" points="187.44 403.33 207.72 423.62 188.52 442.82"/><polyline class="a" points="210.96 403.33 231.24 423.62 212.04 442.82"/><line class="a" x1="138.87" y1="548.07" x2="290.24" y2="478.17"/><polyline class="a" points="143.13 523.93 170.04 533.84 160.66 559.33"/><polyline class="a" points="164.48 514.07 191.39 523.98 182.01 549.47"/><polyline class="a" points="185.83 504.21 212.75 514.12 203.36 539.61"/><polyline class="a" points="207.18 494.35 234.1 504.26 224.71 529.75"/><polyline class="a" points="228.54 484.49 255.45 494.39 246.07 519.88"/><ellipse class="a" cx="147.07" cy="479.48" rx="56.25" ry="20.78" transform="translate(-103.52 45.04) rotate(-12.92)"/><line class="a" x1="93.45" y1="491.78" x2="276.29" y2="449.82"/><line class="a" x1="697.1" y1="423.47" x2="528.82" y2="423.47"/><polyline class="a" points="683.12 403.33 662.84 423.62 682.04 442.82"/><polyline class="a" points="659.6 403.33 639.32 423.62 658.52 442.82"/><polyline class="a" points="636.08 403.33 615.8 423.62 635 442.82"/><polyline class="a" points="612.56 403.33 592.28 423.62 611.48 442.82"/><polyline class="a" points="589.04 403.33 568.76 423.62 587.96 442.82"/><line class="a" x1="661.13" y1="548.07" x2="508.75" y2="477.7"/><polyline class="a" points="656.88 523.93 629.96 533.84 639.34 559.33"/><polyline class="a" points="635.52 514.07 608.61 523.98 617.99 549.47"/><polyline class="a" points="614.17 504.21 587.25 514.12 596.64 539.61"/><polyline class="a" points="592.82 494.35 565.9 504.26 575.29 529.75"/><polyline class="a" points="571.46 484.49 544.55 494.39 553.93 519.88"/><ellipse class="a" cx="652.93" cy="479.48" rx="20.78" ry="56.25" transform="translate(39.56 1008.63) rotate(-77.08)"/><line class="a" x1="706.55" y1="491.78" x2="520.97" y2="449.2"/><polyline class="a" points="269.24 554.18 269.24 591.02 287.98 591.02 287.98 547.89"/><line class="a" x1="249.78" y1="589.99" x2="249.78" y2="576.62"/><line class="a" x1="249.78" y1="564.87" x2="249.78" y2="560.99"/><line class="a" x1="287.98" y1="536.53" x2="287.98" y2="532.66"/><line class="a" x1="269.23" y1="543.54" x2="269.23" y2="539.67"/><polygon class="a" points="483.04 709.95 316.96 709.95 337.25 689.14 462.75 689.14 483.04 709.95"/><polyline class="a" points="462.75 146.27 424.76 156.78 400 141.9 375.24 156.78 337.25 146.27"/><line class="a" x1="400" y1="141.89" x2="400" y2="206.44"/><path class="a" d="M337.25,134.1s28.5-6.33,49.25,15.91"/><line class="a" x1="358.31" y1="136.1" x2="365.68" y2="153.64"/><path class="a" d="M462.75,134.1s-28.5-6.33-49.25,15.91"/><line class="a" x1="441.69" y1="136.1" x2="434.32" y2="153.64"/><path class="a" d="M379.56,177.49c-17.44,12.11-26,37.22-27.8,69.51"/><path class="a" d="M419.39,176.78c18,11.75,27.05,37.35,28.86,70.32"/><polyline class="a" points="443.42 214.64 430.26 240.18 423.74 203.15 411.47 238.4 400 216.67 388.53 238.4 376.26 203.15 369.74 240.18 356.58 214.64"/><line class="a" x1="239.78" y1="609.81" x2="299.7" y2="609.81"/><path class="b" d="M400,338.82h-.3a4.46,4.46,0,0,0,.3,8.91h.3a4.46,4.46,0,0,0-.3-8.91Z"/><path class="b" d="M406.41,325.12h-.3a4.46,4.46,0,0,0,.29,8.91h.31a4.46,4.46,0,0,0-.3-8.91Z"/><path class="b" d="M420.62,320.35h-.31a4.46,4.46,0,0,0,.3,8.91h.3a4.46,4.46,0,0,0-.29-8.91Z"/><path class="b" d="M424.76,304.51h-.3a4.46,4.46,0,0,0,.29,8.91h.31a4.46,4.46,0,0,0-.3-8.91Z"/><path class="b" d="M428.9,290.49a4.7,4.7,0,0,0-1,.12,4.46,4.46,0,0,0,1,8.8,4.31,4.31,0,0,0,1.05-.13,4.46,4.46,0,0,0-1-8.79Z"/><path class="b" d="M432.87,274.17a4.83,4.83,0,0,0-1.05.12,4.46,4.46,0,0,0,1,8.8,4.7,4.7,0,0,0,1.05-.12,4.46,4.46,0,0,0-1-8.8Z"/><path class="b" d="M439.45,301.14a4.7,4.7,0,0,0-1.05.12,4.46,4.46,0,0,0,1,8.8,4.19,4.19,0,0,0,1.05-.13,4.46,4.46,0,0,0-1-8.79Z"/><path class="b" d="M455.36,302.42a4.7,4.7,0,0,0-1.05.12,4.46,4.46,0,0,0,1,8.8,4.31,4.31,0,0,0,1-.13,4.46,4.46,0,0,0-1-8.79Z"/><path class="b" d="M435.17,314.27a4.7,4.7,0,0,0-1.05.12,4.46,4.46,0,0,0,1,8.8,4.77,4.77,0,0,0,1-.12,4.46,4.46,0,0,0-1-8.8Z"/><path class="b" d="M444.39,330.45a4.19,4.19,0,0,0-1.05.13,4.46,4.46,0,0,0,1,8.79,4.7,4.7,0,0,0,1.05-.12,4.46,4.46,0,0,0-1-8.8Z"/><path class="b" d="M455.62,318.71a4.19,4.19,0,0,0-1.05.13,4.46,4.46,0,0,0,1,8.79,4.7,4.7,0,0,0,1.05-.12,4.46,4.46,0,0,0-1-8.8Z"/><path class="b" d="M472,309.33a4.19,4.19,0,0,0-1.05.13,4.46,4.46,0,0,0,1,8.79,4.7,4.7,0,0,0,1.05-.12,4.46,4.46,0,0,0-1-8.8Z"/><path class="b" d="M470.43,324.51a4.68,4.68,0,0,0-1,.12,4.46,4.46,0,0,0,1,8.8,4.68,4.68,0,0,0,1-.12,4.46,4.46,0,0,0-1-8.8Z"/><path class="b" d="M456.75,337a4.7,4.7,0,0,0-1.05.12,4.46,4.46,0,0,0,1,8.8,4.7,4.7,0,0,0,1.05-.12,4.46,4.46,0,0,0-1-8.8Z"/><path class="b" d="M462,355.3a4.17,4.17,0,0,0-1,.13,4.46,4.46,0,0,0,1,8.79,4.68,4.68,0,0,0,1-.12,4.46,4.46,0,0,0-1-8.8Z"/><path class="b" d="M470.7,340.43a4.19,4.19,0,0,0-1.05.13,4.46,4.46,0,0,0,1,8.8,4.71,4.71,0,0,0,1.05-.13,4.46,4.46,0,0,0-1-8.8Z"/><path class="b" d="M484.05,348.27a4.17,4.17,0,0,0-1,.13,4.46,4.46,0,0,0,1,8.79,4.68,4.68,0,0,0,1-.12,4.46,4.46,0,0,0-1-8.8Z"/><path class="b" d="M476.37,364.24a4.19,4.19,0,0,0-1.05.13,4.46,4.46,0,0,0,1,8.79,4.83,4.83,0,0,0,1.05-.12,4.46,4.46,0,0,0-1-8.8Z"/><path class="b" d="M468.43,375.58a4.68,4.68,0,0,0-1,.12,4.46,4.46,0,0,0,1,8.8,4.17,4.17,0,0,0,1-.13,4.46,4.46,0,0,0-1-8.79Z"/><path class="b" d="M469.45,393.84a4.31,4.31,0,0,0-1.05.13,4.46,4.46,0,0,0,1,8.79,4.7,4.7,0,0,0,1.05-.12,4.46,4.46,0,0,0-1-8.8Z"/><path class="b" d="M479.59,382.88a4.77,4.77,0,0,0-1,.12,4.46,4.46,0,0,0,1,8.8,4.19,4.19,0,0,0,1.05-.13,4.46,4.46,0,0,0-1-8.79Z"/><path class="b" d="M494.8,359.38a4.7,4.7,0,0,0-1.05.12,4.46,4.46,0,0,0,1,8.8,4.19,4.19,0,0,0,1-.13,4.46,4.46,0,0,0-1-8.79Z"/><path class="b" d="M493.1,374.07a4.7,4.7,0,0,0-1.05.12,4.46,4.46,0,0,0,1,8.8,4.25,4.25,0,0,0,1.05-.13,4.46,4.46,0,0,0-1-8.79Z"/><path class="b" d="M483.21,399a4.19,4.19,0,0,0-1,.13,4.46,4.46,0,0,0,1,8.79,4.7,4.7,0,0,0,1.05-.12,4.46,4.46,0,0,0-1-8.8Z"/><path class="b" d="M470.31,408.89a4.31,4.31,0,0,0-1.05.13,4.46,4.46,0,0,0,1.05,8.79,4.68,4.68,0,0,0,1-.12,4.46,4.46,0,0,0-1-8.8Z"/><path class="b" d="M461.11,421.49a4.77,4.77,0,0,0-1.05.12,4.46,4.46,0,0,0,1,8.8,4.19,4.19,0,0,0,1-.13,4.46,4.46,0,0,0-1-8.79Z"/><path class="b" d="M484.54,415.66a4.7,4.7,0,0,0-1.05.12,4.46,4.46,0,0,0,1,8.8,4.83,4.83,0,0,0,1.05-.12,4.46,4.46,0,0,0-1-8.8Z"/><path class="b" d="M475.24,426.63a4.7,4.7,0,0,0-1.05.12,4.46,4.46,0,0,0,1,8.8,4.19,4.19,0,0,0,1-.13,4.46,4.46,0,0,0-1-8.79Z"/><path class="b" d="M489.34,432.77a4.19,4.19,0,0,0-1,.13,4.46,4.46,0,0,0,1,8.79,4.7,4.7,0,0,0,1.05-.12,4.46,4.46,0,0,0-1-8.8Z"/><path class="b" d="M468.81,445.37a4.77,4.77,0,0,0-1.05.12,4.46,4.46,0,0,0,1,8.8,4.19,4.19,0,0,0,1.05-.13,4.46,4.46,0,0,0-1-8.79Z"/><path class="b" d="M454,435.48a4.77,4.77,0,0,0-1.05.12,4.46,4.46,0,0,0,1,8.8,4.7,4.7,0,0,0,1.05-.12,4.46,4.46,0,0,0-1-8.8Z"/><path class="b" d="M437.66,445.2a4.7,4.7,0,0,0-1.05.12,4.46,4.46,0,0,0,1,8.8,4.31,4.31,0,0,0,1.05-.13,4.46,4.46,0,0,0-1-8.79Z"/><path class="b" d="M438.56,462a4.19,4.19,0,0,0-1.05.13,4.46,4.46,0,0,0,1,8.79,4.7,4.7,0,0,0,1.05-.12,4.46,4.46,0,0,0-1-8.8Z"/><path class="b" d="M454.05,472.15a4.17,4.17,0,0,0-1,.13,4.46,4.46,0,0,0,1,8.8,4.17,4.17,0,0,0,1-.13,4.46,4.46,0,0,0-1-8.8Z"/><path class="b" d="M457.76,489.26a4.83,4.83,0,0,0-1.05.12,4.46,4.46,0,0,0,1,8.8,4.19,4.19,0,0,0,1.05-.13,4.46,4.46,0,0,0-1-8.79Z"/><path class="b" d="M439.39,478.32a4.7,4.7,0,0,0-1.05.12,4.46,4.46,0,0,0,1,8.8,4.19,4.19,0,0,0,1.05-.13,4.46,4.46,0,0,0-1-8.79Z"/><path class="b" d="M421.81,453.61a4.19,4.19,0,0,0-1.05.13,4.46,4.46,0,0,0,1,8.8,4.25,4.25,0,0,0,1.05-.13,4.46,4.46,0,0,0-1-8.8Z"/><path class="b" d="M422.15,469.83a4.7,4.7,0,0,0-1,.12,4.46,4.46,0,0,0,1,8.8,4.83,4.83,0,0,0,1.05-.12,4.46,4.46,0,0,0-1-8.8Z"/><path class="b" d="M403.56,456.07a4.77,4.77,0,0,0-1.05.12,4.46,4.46,0,0,0,1,8.8,4.7,4.7,0,0,0,1.05-.12,4.46,4.46,0,0,0-1-8.8Z"/><path class="b" d="M426.56,486.51a4.19,4.19,0,0,0-1.05.13,4.46,4.46,0,0,0,1,8.79,4.7,4.7,0,0,0,1.05-.12,4.46,4.46,0,0,0-1-8.8Z"/><path class="b" d="M444.51,497.21a4.19,4.19,0,0,0-1.05.13,4.46,4.46,0,0,0,1,8.79,4.7,4.7,0,0,0,1.05-.12,4.46,4.46,0,0,0-1-8.8Z"/><path class="b" d="M430,505.32a4.17,4.17,0,0,0-1,.13,4.46,4.46,0,0,0,1,8.79,4.68,4.68,0,0,0,1-.12,4.46,4.46,0,0,0-1-8.8Z"/><path class="b" d="M404.61,470.24a4.19,4.19,0,0,0-1.05.13,4.46,4.46,0,0,0,1,8.79,4.7,4.7,0,0,0,1-.12,4.46,4.46,0,0,0-1-8.8Z"/><path class="b" d="M411.22,488.71a4.25,4.25,0,0,0-1.05.13,4.46,4.46,0,0,0,1,8.79,4.7,4.7,0,0,0,1.05-.12,4.46,4.46,0,0,0-1-8.8Z"/><path class="b" d="M416,503.4a4.19,4.19,0,0,0-1.05.13,4.46,4.46,0,0,0,1,8.8,4.79,4.79,0,0,0,1-.13,4.46,4.46,0,0,0-1-8.8Z"/><path class="b" d="M415,521.3a4.68,4.68,0,0,0-1,.12,4.46,4.46,0,0,0,1,8.8,4.31,4.31,0,0,0,1-.13,4.46,4.46,0,0,0-1-8.79Z"/><path class="b" d="M383.88,521.3a4.7,4.7,0,0,0-1.05.12,4.46,4.46,0,0,0,1,8.8,4.19,4.19,0,0,0,1.05-.13,4.46,4.46,0,0,0-1-8.79Z"/><path class="b" d="M400.42,518.82a4.7,4.7,0,0,0-1.05.12,4.46,4.46,0,0,0,1,8.8,4.19,4.19,0,0,0,1-.13,4.46,4.46,0,0,0-1-8.79Z"/><path class="b" d="M400.42,504.84a4.19,4.19,0,0,0-1.05.13,4.46,4.46,0,0,0,1,8.79,4.7,4.7,0,0,0,1-.12,4.46,4.46,0,0,0-1-8.8Z"/><path class="b" d="M381.7,504.66a4.7,4.7,0,0,0-1.05.12,4.46,4.46,0,0,0,1,8.8,4.31,4.31,0,0,0,1.05-.13,4.46,4.46,0,0,0-1-8.79Z"/><path class="b" d="M395.36,488.62a4.19,4.19,0,0,0-1.05.13,4.46,4.46,0,0,0,1,8.79,4.7,4.7,0,0,0,1-.12,4.46,4.46,0,0,0-1-8.8Z"/><path class="b" d="M388.87,473.86a4.7,4.7,0,0,0-1.05.12,4.46,4.46,0,0,0,1,8.8,4.7,4.7,0,0,0,1.05-.12,4.46,4.46,0,0,0-1-8.8Z"/><path class="b" d="M383.37,458a4.7,4.7,0,0,0-1.05.12,4.46,4.46,0,0,0,1,8.8,4.19,4.19,0,0,0,1.05-.13,4.46,4.46,0,0,0-1-8.79Z"/><path class="b" d="M368.07,448.06a4.7,4.7,0,0,0-1.05.12,4.46,4.46,0,0,0,1,8.8,4.19,4.19,0,0,0,1.05-.13,4.46,4.46,0,0,0-1-8.79Z"/><path class="b" d="M371.57,461.83a4.19,4.19,0,0,0-1.05.13,4.46,4.46,0,0,0,1,8.79,4.7,4.7,0,0,0,1.05-.12,4.46,4.46,0,0,0-1-8.8Z"/><path class="b" d="M372,475.9a4.19,4.19,0,0,0-1.05.13,4.46,4.46,0,0,0,1,8.79,4.7,4.7,0,0,0,1-.12,4.46,4.46,0,0,0-1-8.8Z"/><path class="b" d="M378.71,488.56a4.7,4.7,0,0,0-1,.12,4.46,4.46,0,0,0,1,8.8,4.19,4.19,0,0,0,1.05-.13,4.46,4.46,0,0,0-1-8.79Z"/><path class="b" d="M367.21,499.37a4.83,4.83,0,0,0-1,.12,4.46,4.46,0,0,0,1,8.8,4.17,4.17,0,0,0,1-.13,4.46,4.46,0,0,0-1-8.79Z"/><path class="b" d="M352.86,496.41a4.7,4.7,0,0,0-1.05.12,4.46,4.46,0,0,0,1,8.8,4.31,4.31,0,0,0,1-.13,4.46,4.46,0,0,0-1-8.79Z"/><path class="b" d="M340,490.77a4.68,4.68,0,0,0-1,.12,4.46,4.46,0,0,0,1,8.8,4.17,4.17,0,0,0,1-.13,4.46,4.46,0,0,0-1-8.79Z"/><path class="b" d="M357.92,481.19a4.19,4.19,0,0,0-1.05.13,4.46,4.46,0,0,0,1,8.79,4.7,4.7,0,0,0,1-.12,4.46,4.46,0,0,0-1-8.8Z"/><path class="b" d="M344.17,472.19a4.71,4.71,0,0,0-1.05.13,4.46,4.46,0,0,0,1,8.8,4.19,4.19,0,0,0,1-.13,4.46,4.46,0,0,0-1-8.8Z"/><path class="b" d="M355.45,458.92a4.71,4.71,0,0,0-1.05.13,4.46,4.46,0,0,0,1,8.8,4.19,4.19,0,0,0,1.05-.13,4.46,4.46,0,0,0-1-8.8Z"/><path class="b" d="M339.45,453.51a4.19,4.19,0,0,0-1.05.13,4.46,4.46,0,0,0,1,8.79,4.77,4.77,0,0,0,1.05-.12,4.46,4.46,0,0,0-1-8.8Z"/><path class="b" d="M350.7,442.12a4.7,4.7,0,0,0-1.05.12,4.46,4.46,0,0,0,1,8.8,4.19,4.19,0,0,0,1.05-.13,4.46,4.46,0,0,0-1-8.79Z"/><path class="b" d="M342.7,428.27a4.17,4.17,0,0,0-1,.13,4.46,4.46,0,0,0,1,8.79,4.83,4.83,0,0,0,1.05-.12,4.46,4.46,0,0,0-1.05-8.8Z"/><path class="b" d="M329.87,440.67a4.83,4.83,0,0,0-1.05.12,4.46,4.46,0,0,0,1,8.8,4.19,4.19,0,0,0,1.05-.13,4.46,4.46,0,0,0-1-8.79Z"/><path class="b" d="M315.8,436.94a4.19,4.19,0,0,0-1.05.13,4.46,4.46,0,0,0,1,8.79,4.7,4.7,0,0,0,1-.12,4.46,4.46,0,0,0-1-8.8Z"/><path class="b" d="M314.46,420.94a4.7,4.7,0,0,0-1,.12,4.46,4.46,0,0,0,1,8.8,4.7,4.7,0,0,0,1.05-.12,4.46,4.46,0,0,0-1-8.8Z"/><path class="b" d="M329.1,424.41a4.7,4.7,0,0,0-1.05.12,4.46,4.46,0,0,0,1,8.8,4.31,4.31,0,0,0,1.05-.13,4.46,4.46,0,0,0-1-8.79Z"/><path class="b" d="M332.75,410.91a4.19,4.19,0,0,0-1.05.13,4.46,4.46,0,0,0,1,8.79,4.77,4.77,0,0,0,1.05-.12,4.46,4.46,0,0,0-1-8.8Z"/><path class="b" d="M318.89,402.28a4.19,4.19,0,0,0-1.05.13,4.46,4.46,0,0,0,1,8.79,4.77,4.77,0,0,0,1.05-.12,4.46,4.46,0,0,0-1-8.8Z"/><path class="b" d="M328.12,391.34a4.25,4.25,0,0,0-1.05.13,4.46,4.46,0,0,0,1,8.79,4.7,4.7,0,0,0,1.05-.12,4.46,4.46,0,0,0-1-8.8Z"/><path class="b" d="M329.48,375.79a4.7,4.7,0,0,0-1.05.12,4.46,4.46,0,0,0,1,8.8,4.31,4.31,0,0,0,1-.13,4.46,4.46,0,0,0-1-8.79Z"/><path class="b" d="M312,378.72a4.19,4.19,0,0,0-1.05.13,4.46,4.46,0,0,0,1,8.79,4.7,4.7,0,0,0,1-.12,4.46,4.46,0,0,0-1-8.8Z"/><path class="b" d="M301.75,366.55a4.17,4.17,0,0,0-1,.13,4.46,4.46,0,0,0,1,8.79,4.68,4.68,0,0,0,1-.12,4.46,4.46,0,0,0-1-8.8Z"/><path class="b" d="M315,351.25a4.19,4.19,0,0,0-1.05.13,4.46,4.46,0,0,0,1,8.79,4.7,4.7,0,0,0,1.05-.12,4.46,4.46,0,0,0-1-8.8Z"/><path class="b" d="M321.24,364.21a4.19,4.19,0,0,0-1.05.13,4.46,4.46,0,0,0,1,8.79,4.7,4.7,0,0,0,1-.12,4.46,4.46,0,0,0-1-8.8Z"/><path class="b" d="M335.19,356.78a4.19,4.19,0,0,0-1.05.13,4.46,4.46,0,0,0,1,8.79,4.77,4.77,0,0,0,1.05-.12,4.46,4.46,0,0,0-1-8.8Z"/><path class="b" d="M328,342.17a4.17,4.17,0,0,0-1,.13,4.46,4.46,0,0,0,1,8.79,4.68,4.68,0,0,0,1-.12,4.46,4.46,0,0,0-1-8.8Z"/><path class="b" d="M321.52,327.18a4.17,4.17,0,0,0-1,.13,4.46,4.46,0,0,0,1,8.79,4.68,4.68,0,0,0,1-.12,4.46,4.46,0,0,0-1-8.8Z"/><path class="b" d="M345.61,340.51a4.7,4.7,0,0,0-1.05.12,4.46,4.46,0,0,0,1,8.8,4.19,4.19,0,0,0,1-.13,4.46,4.46,0,0,0-1-8.79Z"/><path class="b" d="M337.4,329.24a4.83,4.83,0,0,0-1,.12,4.46,4.46,0,0,0,1,8.8,4.7,4.7,0,0,0,1.05-.12,4.46,4.46,0,0,0-1-8.8Z"/><path class="b" d="M357.79,330.51a4.19,4.19,0,0,0-1.05.13,4.46,4.46,0,0,0,1,8.79,4.7,4.7,0,0,0,1.05-.12,4.46,4.46,0,0,0-1-8.8Z"/><path class="b" d="M369.73,319.72a4.17,4.17,0,0,0-1,.13,4.46,4.46,0,0,0,1,8.8,4.7,4.7,0,0,0,1-.13,4.46,4.46,0,0,0-1-8.8Z"/><path class="b" d="M389.57,326.94a4.31,4.31,0,0,0-1.05.13,4.46,4.46,0,0,0,1,8.8,4.71,4.71,0,0,0,1.05-.13,4.46,4.46,0,0,0-1-8.8Z"/><path class="b" d="M392.21,310a4.19,4.19,0,0,0-1,.13,4.46,4.46,0,0,0,1,8.79,4.7,4.7,0,0,0,1.05-.12,4.46,4.46,0,0,0-1-8.8Z"/><path class="b" d="M377.35,306a4.7,4.7,0,0,0-1.05.12,4.46,4.46,0,0,0,1,8.8,4.31,4.31,0,0,0,1.05-.13,4.46,4.46,0,0,0-1-8.79Z"/><path class="b" d="M389.08,279.68a4.7,4.7,0,0,0-1.05.12,4.46,4.46,0,0,0,1,8.8,4.25,4.25,0,0,0,1.05-.13,4.46,4.46,0,0,0-1-8.79Z"/><path class="b" d="M376.1,292a4.17,4.17,0,0,0-1,.13,4.46,4.46,0,0,0,1,8.79,4.68,4.68,0,0,0,1-.12,4.46,4.46,0,0,0-1-8.8Z"/><path class="b" d="M370.7,271.37a4.17,4.17,0,0,0-1,.13,4.46,4.46,0,0,0,1,8.79,4.68,4.68,0,0,0,1-.12,4.46,4.46,0,0,0-1-8.8Z"/><path class="b" d="M361.69,285.24a4.17,4.17,0,0,0-1,.13,4.46,4.46,0,0,0,1,8.8,4.86,4.86,0,0,0,1.05-.13,4.46,4.46,0,0,0-1.05-8.8Z"/><path class="b" d="M361.36,303a4.7,4.7,0,0,0-1.05.12,4.46,4.46,0,0,0,1,8.8,4.77,4.77,0,0,0,1-.12,4.46,4.46,0,0,0-1-8.8Z"/><path class="b" d="M346.08,303a4.46,4.46,0,0,0-4.17,6,4.47,4.47,0,0,0,4.17,2.87,4.42,4.42,0,0,0,1.59-.29,4.46,4.46,0,0,0-1.59-8.63Z"/><path class="b" d="M352.9,316.68a4.46,4.46,0,1,0,4.17,2.87,4.44,4.44,0,0,0-4.17-2.87Z"/><path class="b" d="M335.46,315.57a4.46,4.46,0,1,0,0,8.92,4.23,4.23,0,0,0,1.59-.3,4.46,4.46,0,0,0-1.59-8.62Z"/><path class="b" d="M320.13,308.7a4.46,4.46,0,1,0,4.17,2.87,4.44,4.44,0,0,0-4.17-2.87Z"/><path class="b" d="M452.87,454.33a4.86,4.86,0,0,0-1.05.13,4.46,4.46,0,0,0,1,8.8,4.19,4.19,0,0,0,1.05-.13,4.46,4.46,0,0,0-1-8.8Z"/><path class="b" d="M397.06,295.34h-.31a4.46,4.46,0,0,0,.3,8.91h.31a4.46,4.46,0,0,0-.3-8.91Z"/><path class="b" d="M411.45,294.37h-.3a4.46,4.46,0,0,0,.29,8.91l.31,0a4.45,4.45,0,0,0-.3-8.9Z"/><path class="b" d="M417.86,279.71l-.3,0a4.45,4.45,0,0,0,.29,8.9h.31a4.46,4.46,0,0,0-.3-8.91Z"/><path class="b" d="M408,308.66h-.3a4.46,4.46,0,0,0,.29,8.91h.31a4.46,4.46,0,0,0-.3-8.91Z"/><path class="a" d="M273.1,328.05c.13-.33.24-.59.33-.79a134.57,134.57,0,0,1,253.14,0c1.6,3.71,13.54,33.62,5.29,81.57-5,28.95-16.32,58.74-33.71,88.54-21.51,36.84-52.42,73.85-91.87,110a9.3,9.3,0,0,1-12.56,0c-39.45-36.15-70.36-73.16-91.87-110-17.39-29.8-28.74-59.59-33.71-88.54-7.82-45.45,2.5-74.69,5-80.78m234.7,103a206,206,0,0,0,5.47-23.89,175.54,175.54,0,0,0,2.81-27.34M475.9,498.17q2.89-4.56,5.57-9.12a289.18,289.18,0,0,0,18.63-37.34m-70,105.7a453.34,453.34,0,0,0,33.44-40.92m-76.28,59q6.21,6.19,12.77,12.37,6.56-6.17,12.77-12.37m-76.28-59a453.5,453.5,0,0,0,33.45,40.92m-70-105.69a289.72,289.72,0,0,0,18.63,37.33q2.69,4.56,5.57,9.12M283.92,379.85a175.77,175.77,0,0,0,2.81,27.35,208.65,208.65,0,0,0,5.75,23.7m8.42-118.18a115.17,115.17,0,0,0-10.1,21.18,9,9,0,0,1-.36.85c-.49,1.18-4.15,10.16-5.78,25.85m69-93.9A116.8,116.8,0,0,0,313,296.34m112.35-36.53a115.37,115.37,0,0,0-50.66,0M487,296.34a116.68,116.68,0,0,0-40.66-29.64m69,93.9c-1.65-15.51-5.26-24.63-5.78-25.87-.12-.27-.24-.55-.34-.83a115.12,115.12,0,0,0-10-21.06"/><path class="a" d="M492.09,507.27a28.1,28.1,0,0,1-20.43-39.81"/><path class="a" d="M444.32,569.3A28.09,28.09,0,1,1,478,528.11"/><path class="a" d="M374.42,588.88a28.09,28.09,0,0,1,51.16,0"/><path class="a" d="M283.14,459.78a28.08,28.08,0,1,1,24.77,47.49q6.55,10.43,14.1,20.84a28.09,28.09,0,1,1,33.67,41.19"/><path class="a" d="M265.36,381.83a28.09,28.09,0,1,1,12.08,53.45,28.8,28.8,0,0,1-3.09-.18"/><path class="a" d="M284,304.78a28.09,28.09,0,1,1-17.6,51.81"/><path class="a" d="M344.54,250.37a28.08,28.08,0,1,1-44.31,32.32"/><path class="a" d="M427.33,241.2a28.09,28.09,0,1,1-54.66,0"/><path class="a" d="M499.77,282.69a28.08,28.08,0,1,1-44.31-32.32"/><path class="a" d="M533.61,356.59A28.08,28.08,0,1,1,516,304.78"/><path class="a" d="M525.65,435.1a28.8,28.8,0,0,1-3.09.18,28.09,28.09,0,1,1,12.08-53.45"/></svg>