<svg xmlns="http://www.w3.org/2000/svg" viewBox="0 0 800 800"><defs><style>.a{fill:none;stroke:aqua;stroke-linecap:round;stroke-linejoin:round;stroke-width:6px;}</style></defs><title>WOW-crest</title><polyline class="a" points="491.46 402.19 536.26 446.99 491.07 492.18"/><rect class="a" x="623.56" y="423.48" width="47.03" height="47.03"/><circle class="a" cx="647.07" cy="446.99" r="12.27"/><rect class="a" x="551.19" y="598.19" width="47.03" height="47.03" transform="translate(607.93 -224.29) rotate(45)"/><circle class="a" cx="574.71" cy="621.7" r="12.27"/><rect class="a" x="201.78" y="598.19" width="47.03" height="47.03" transform="translate(824.21 902) rotate(135)"/><circle class="a" cx="225.29" cy="621.7" r="12.27"/><rect class="a" x="129.41" y="423.48" width="47.03" height="47.03" transform="translate(305.85 893.98) rotate(180)"/><circle class="a" cx="152.93" cy="446.99" r="12.27"/><path class="a" d="M361,532.67v54a63.8,63.8,0,0,0-24.92,50.63S330.84,679.73,400,741.07c69.16-61.34,63.94-103.78,63.94-103.78A63.8,63.8,0,0,0,439,586.66v-54"/><circle class="a" cx="400" cy="637.29" r="44.85"/><path class="a" d="M429.52,688.49S418.46,707.09,400,720c-18.46-12.88-29.52-31.48-29.52-31.48A58.8,58.8,0,0,0,400,696.38C410.24,696.38,421.13,693.07,429.52,688.49Z"/><path class="a" d="M423.38,517.53V577.8h0a63.71,63.71,0,0,0-46.76,0V517.53"/><polyline class="a" points="406.85 573.73 406.85 540.01 413.3 533.56 400 520.6 386.7 533.56 393.15 540.01 393.15 573.73"/><line class="a" x1="376.62" y1="566.6" x2="393.15" y2="554.33"/><line class="a" x1="423.38" y1="566.6" x2="406.85" y2="554.33"/><line class="a" x1="422.78" y1="599.4" x2="362.77" y2="659.41"/><line class="a" x1="437.23" y1="613.86" x2="377.22" y2="673.87"/><path class="a" d="M451.53,349.58a37.67,37.67,0,0,1-4.9-4h0a26.13,26.13,0,0,1,0-36.86l28.56-28.57L512.06,317l-10.72,10.72"/><rect class="a" x="522.43" y="185.19" width="68.21" height="46" transform="translate(15.79 454.51) rotate(-45)"/><polygon class="a" points="548.69 248.57 566.35 230.91 653.45 318.02 653.45 353.34 548.69 248.57"/><polygon class="a" points="607.96 147.37 722.13 261.53 722.13 284.67 701.68 305.11 564.39 167.82 584.83 147.37 607.96 147.37"/><line class="a" x1="575.23" y1="178.66" x2="527" y2="226.89"/><line class="a" x1="586.07" y1="189.5" x2="537.84" y2="237.73"/><polyline class="a" points="701.68 305.11 666.36 305.11 666.36 270.05 631.91 270.65 632.39 236.44 597.27 236.02 596.97 200.29"/><polyline class="a" points="653.45 353.34 653.45 318.02 618.39 318.02 618.73 283.3 584.78 284.05 584.36 248.93 548.64 248.63"/><polyline class="a" points="532.58 296.49 512.06 317.01 475.19 280.14 495.71 259.62"/><line class="a" x1="579.26" y1="218" x2="666.36" y2="305.11"/><line class="a" x1="678.94" y1="256.15" x2="667.82" y2="234.21"/><rect class="a" x="248.51" y="530.62" width="102.43" height="34.08" rx="17.04" transform="translate(-299.46 372.34) rotate(-45)"/><path class="a" d="M653.45,353.34,633.68,368c-10.24-19.13-30.71-24.77-49-19.13l-88.95-89.25V236.49L516.16,216Z"/><polyline class="a" points="459.57 434.08 493.37 400.28 455.88 393.16 444.02 357.1 413.3 387.81"/><polyline class="a" points="422.41 396.91 437.57 381.75 444.73 404.31 467.29 409.42 451.1 425.61"/><line class="a" x1="275.57" y1="571.81" x2="323.88" y2="523.5"/><path class="a" d="M348.47,349.58a37.67,37.67,0,0,0,4.9-4h0a26.13,26.13,0,0,0,0-36.86l-28.56-28.57L287.94,317l10.72,10.72"/><rect class="a" x="220.46" y="174.09" width="46" height="68.21" transform="translate(-75.91 233.13) rotate(-45)"/><polygon class="a" points="251.31 248.57 233.65 230.91 146.55 318.02 146.55 353.34 251.31 248.57"/><polygon class="a" points="192.04 147.37 77.87 261.53 77.87 284.67 98.32 305.11 235.61 167.82 215.17 147.37 192.04 147.37"/><line class="a" x1="224.77" y1="178.66" x2="273" y2="226.89"/><line class="a" x1="213.93" y1="189.5" x2="262.16" y2="237.73"/><polyline class="a" points="98.32 305.11 133.64 305.11 133.64 270.05 168.09 270.65 167.61 236.44 202.73 236.02 203.03 200.29"/><polyline class="a" points="146.55 353.34 146.55 318.02 181.6 318.02 181.27 283.3 215.22 284.05 215.64 248.93 251.36 248.63"/><polyline class="a" points="267.42 296.49 287.94 317.01 324.81 280.14 304.29 259.62"/><line class="a" x1="220.74" y1="218" x2="133.64" y2="305.11"/><line class="a" x1="121.06" y1="256.15" x2="132.18" y2="234.21"/><rect class="a" x="483.23" y="496.44" width="34.08" height="102.43" rx="17.04" transform="translate(-240.72 514.15) rotate(-45)"/><path class="a" d="M146.55,353.34,166.32,368c10.24-19.13,30.71-24.77,49-19.13l89-89.25V236.49L283.84,216Z"/><polyline class="a" points="340.43 434.08 306.63 400.28 344.12 393.16 355.98 357.1 386.7 387.81"/><polyline class="a" points="377.59 396.91 362.43 381.75 355.27 404.31 332.71 409.42 348.9 425.61"/><line class="a" x1="524.43" y1="571.81" x2="476.12" y2="523.5"/><rect class="a" x="348.75" y="395.74" width="102.5" height="102.5" transform="translate(433.23 -151.92) rotate(45)"/><rect class="a" x="364.02" y="411.01" width="71.96" height="71.96" transform="translate(433.23 -151.92) rotate(45)"/><circle class="a" cx="400" cy="446.99" r="23.38"/><line class="a" x1="410.88" y1="467.68" x2="379.31" y2="436.11"/><line class="a" x1="389.11" y1="426.31" x2="420.69" y2="457.88"/><line class="a" x1="199.69" y1="407.83" x2="174.98" y2="403"/><line class="a" x1="203.04" y1="393.47" x2="178.74" y2="386.87"/><line class="a" x1="207.41" y1="379.4" x2="183.66" y2="371.06"/><line class="a" x1="199.62" y1="485.83" x2="174.91" y2="490.62"/><line class="a" x1="197.03" y1="468.45" x2="190.37" y2="469.16"/><line class="a" x1="195.96" y1="454" x2="189.27" y2="454.23"/><line class="a" x1="195.93" y1="439.51" x2="189.24" y2="439.26"/><line class="a" x1="196.93" y1="425.06" x2="190.28" y2="424.33"/><line class="a" x1="203.24" y1="501.27" x2="178.98" y2="507.97"/><line class="a" x1="208.05" y1="516.39" x2="184.38" y2="524.95"/><line class="a" x1="214.02" y1="531.08" x2="191.09" y2="541.46"/><line class="a" x1="221.12" y1="545.27" x2="199.05" y2="557.4"/><line class="a" x1="229.29" y1="558.87" x2="208.23" y2="572.67"/><line class="a" x1="285.7" y1="616.09" x2="271.6" y2="636.94"/><line class="a" x1="298.15" y1="623.87" x2="285.58" y2="645.68"/><line class="a" x1="311.12" y1="630.73" x2="300.16" y2="653.39"/><line class="a" x1="322.42" y1="640.28" x2="314.59" y2="659.77"/><line class="a" x1="328.78" y1="662.5" x2="327.97" y2="664.97"/><line class="a" x1="211.31" y1="365.23" x2="198.95" y2="359.81"/><line class="a" x1="600.31" y1="407.83" x2="625.02" y2="403"/><line class="a" x1="596.96" y1="393.47" x2="621.26" y2="386.87"/><line class="a" x1="592.59" y1="379.4" x2="616.34" y2="371.06"/><line class="a" x1="600.38" y1="485.83" x2="625.09" y2="490.62"/><line class="a" x1="602.97" y1="468.45" x2="609.63" y2="469.16"/><line class="a" x1="604.04" y1="454" x2="610.73" y2="454.23"/><line class="a" x1="604.07" y1="439.51" x2="610.76" y2="439.26"/><line class="a" x1="603.07" y1="425.06" x2="609.72" y2="424.33"/><line class="a" x1="596.76" y1="501.27" x2="621.02" y2="507.97"/><line class="a" x1="591.95" y1="516.39" x2="615.62" y2="524.95"/><line class="a" x1="585.98" y1="531.08" x2="608.92" y2="541.46"/><line class="a" x1="578.88" y1="545.27" x2="600.95" y2="557.4"/><line class="a" x1="570.71" y1="558.87" x2="591.77" y2="572.67"/><line class="a" x1="514.3" y1="616.09" x2="528.4" y2="636.94"/><line class="a" x1="501.85" y1="623.87" x2="514.42" y2="645.68"/><line class="a" x1="488.88" y1="630.73" x2="499.84" y2="653.39"/><line class="a" x1="477.58" y1="640.28" x2="485.41" y2="659.77"/><line class="a" x1="471.22" y1="662.5" x2="472.03" y2="664.97"/><line class="a" x1="588.69" y1="365.23" x2="601.05" y2="359.81"/><polyline class="a" points="380.89 167.19 358.74 143.9 358.74 103.42 400 62.09 441.26 103.42 441.26 143.9 417.19 169.21"/><polygon class="a" points="375.06 109.77 400 84.79 424.94 109.77 424.94 137.55 400 164.58 375.06 137.55 375.06 109.77"/><polygon class="a" points="342.25 150.91 342.25 113.13 272.86 182.52 400 309.67 527.14 182.52 457.75 113.13 457.75 150.91 417.3 191.4 417.18 167.19 380.89 167.19 394 180.96 383.09 191.81 342.25 150.91"/><polyline class="a" points="367.07 280.14 400.26 246.95 431.49 278.18"/><circle class="a" cx="400" cy="224.96" r="20.69"/><line class="a" x1="409.63" y1="243.26" x2="381.69" y2="215.32"/><line class="a" x1="390.37" y1="206.65" x2="418.3" y2="234.59"/><line class="a" x1="400" y1="269.62" x2="400" y2="288.04"/><line class="a" x1="390.79" y1="278.83" x2="409.21" y2="278.83"/><line class="a" x1="272.86" y1="182.52" x2="315.85" y2="182.52"/><line class="a" x1="308.56" y1="146.82" x2="325.3" y2="163.55"/><line class="a" x1="308.68" y1="218.34" x2="326.88" y2="200.14"/><line class="a" x1="329.73" y1="239.39" x2="347.94" y2="221.19"/><line class="a" x1="351.8" y1="261.47" x2="366.94" y2="246.33"/><line class="a" x1="527.14" y1="182.52" x2="484.15" y2="182.52"/><line class="a" x1="491.44" y1="146.82" x2="474.7" y2="163.55"/><line class="a" x1="493.37" y1="216.3" x2="475.16" y2="198.09"/><line class="a" x1="470.27" y1="239.39" x2="452.07" y2="221.19"/><line class="a" x1="448.2" y1="261.47" x2="433.06" y2="246.33"/><line class="a" x1="215.67" y1="399.53" x2="260.77" y2="354.42"/><line class="a" x1="261.17" y1="539.95" x2="215.67" y2="494.46"/><line class="a" x1="339.08" y1="617.86" x2="307.43" y2="586.22"/><line class="a" x1="492.57" y1="586.22" x2="461.11" y2="617.68"/><line class="a" x1="276.73" y1="523.5" x2="210.09" y2="456.85"/><line class="a" x1="350.31" y1="597.07" x2="323.44" y2="570.2"/><line class="a" x1="476.56" y1="570.2" x2="449.69" y2="597.08"/><line class="a" x1="345.94" y1="301.28" x2="368.78" y2="278.44"/><line class="a" x1="210.08" y1="437.13" x2="276.16" y2="371.06"/><path class="a" d="M308.43,217.73q-8,3.21-15.8,7"/><path class="a" d="M507.48,224.75q-7.73-3.74-15.73-6.95"/><path class="a" d="M445.19,689.67a245.61,245.61,0,0,0,95.46-39.86l18.77,18.77V683.5h26.24V668.58l35.93-35.93h14.92V606.41H621.59l-18.77-18.77A245.36,245.36,0,0,0,642.9,491h26.51l10.38,10.38,18.55-18.56L688,472.4V421.59l10.37-10.38-18.55-18.55L669.41,403H642.9a244.74,244.74,0,0,0-9-35.1"/><path class="a" d="M166.13,367.94a244.27,244.27,0,0,0-9,35.09H130.59l-10.38-10.37-18.55,18.55L112,421.59V472.4l-10.37,10.37,18.55,18.56L130.59,491H157.1a245.36,245.36,0,0,0,40.08,96.69l-18.77,18.77H163.49v26.24h14.92l35.93,35.93V683.5h26.24V668.58l18.77-18.77a245.51,245.51,0,0,0,95.8,39.92"/><path class="a" d="M245.2,557.7a190.39,190.39,0,0,1-1.08-219.9"/><path class="a" d="M336.94,626.59A189.76,189.76,0,0,1,289.56,602"/><path class="a" d="M510.44,602A189.75,189.75,0,0,1,463,626.6"/><path class="a" d="M555.88,337.8a190.39,190.39,0,0,1-1.23,220.11"/><path class="a" d="M447.09,262.56a189.4,189.4,0,0,1,33.63,12.05"/><path class="a" d="M319.28,274.61a188.48,188.48,0,0,1,33.62-12"/><polyline class="a" points="293.18 507.94 232.24 446.99 292.79 386.44"/><line class="a" x1="360.98" y1="575.73" x2="339.58" y2="554.34"/><line class="a" x1="460.76" y1="553.99" x2="439.02" y2="575.73"/><polyline class="a" points="507.64 386.87 567.76 446.99 506.82 507.94"/><line class="a" x1="415.22" y1="294.45" x2="440.41" y2="319.64"/><line class="a" x1="359.82" y1="319.41" x2="384.78" y2="294.45"/><polyline class="a" points="354.81 355.92 400 310.73 445.19 355.92"/><polyline class="a" points="308.93 492.18 263.74 446.99 308.54 402.19"/><polyline class="a" points="370.54 371.66 400 342.21 429.45 371.66"/><line class="a" x1="432.34" y1="279.56" x2="454.06" y2="301.28"/><line class="a" x1="459.57" y1="434.08" x2="564.87" y2="328.78"/><path class="a" d="M340.91,460.21l-89.68,89.68a32.8,32.8,0,0,0,0,46.27h0a32.81,32.81,0,0,0,46.26,0L386.7,507"/><path class="a" d="M542,305.89l-31.24,31.24-37.59-37.59s-8.32,8.31-11.93,27.83C458,345,453,348.16,453,348.16L413.3,387.81"/><line class="a" x1="340.43" y1="434.07" x2="235.13" y2="328.78"/><path class="a" d="M459.09,460.21l89.68,89.68a32.8,32.8,0,0,1,0,46.27h0a32.81,32.81,0,0,1-46.26,0l-89.6-89.6"/><path class="a" d="M258,305.89l31.24,31.24,37.59-37.59s8.32,8.31,11.93,27.83c3.27,17.66,8.27,20.79,8.27,20.79l39.64,39.65"/><polyline class="a" points="324.67 476.44 295.21 446.99 324.28 417.93"/><polyline class="a" points="475.72 417.93 504.79 446.99 475.33 476.44"/><line class="a" x1="584.34" y1="494.45" x2="538.83" y2="539.95"/><line class="a" x1="539.23" y1="354.42" x2="584.33" y2="399.53"/><line class="a" x1="590.05" y1="456.71" x2="522.82" y2="523.94"/><line class="a" x1="523.21" y1="370.43" x2="590.05" y2="437.27"/></svg>