<svg xmlns="http://www.w3.org/2000/svg" viewBox="0 0 800 800"><defs><style>.a{fill:none;stroke:#98d549;stroke-linecap:round;stroke-linejoin:round;stroke-width:6px;}.b{fill:#98d549;}</style></defs><title>WOW-crest</title><line class="a" x1="212.34" y1="430.4" x2="226.96" y2="477.88"/><line class="a" x1="416.45" y1="137.28" x2="454.19" y2="179.87"/><line class="a" x1="383.95" y1="176.63" x2="341.38" y2="158.48"/><line class="a" x1="574.67" y1="477.88" x2="589.32" y2="457.85"/><line class="a" x1="179.06" y1="460.4" x2="173.27" y2="508.73"/><line class="a" x1="416.45" y1="543.03" x2="416.45" y2="582.77"/><polyline class="a" points="383.95 256.64 383.95 72.1 416.45 72.1 416.45 256.47"/><line class="a" x1="383.95" y1="582.77" x2="383.95" y2="542.66"/><path class="a" d="M449.33,629.84c0-.23,0-.45,0-.68s0-.56,0-.84c0-.47,0-.91,0-1.33,0-.16,0-.33,0-.49a32.07,32.07,0,0,0-.44-4.49h0a49.14,49.14,0,0,0-97.24,0h0a32.07,32.07,0,0,0-.44,4.49c0,.17,0,.33,0,.5q0,.62,0,1.32c0,.28,0,.56,0,.84s0,.45,0,.68c.13,15.78,5.76,55,49.13,113.73C443.58,684.81,449.2,645.62,449.33,629.84Z"/><path class="a" d="M577.65,237.1l-.6.33-.71.43c-.41.24-.78.47-1.14.7l-.41.26a31.86,31.86,0,0,0-3.67,2.63h0a49.14,49.14,0,0,0,48.68,84.18h0a30.42,30.42,0,0,0,4.11-1.86l.44-.23c.37-.19.76-.4,1.16-.63s.5-.26.74-.4l.58-.36c13.6-8,44.71-32.5,73.87-99.46C628.12,214.56,591.37,229.32,577.65,237.1Z"/><line class="a" x1="468.23" y1="338.34" x2="553.36" y2="289.12"/><line class="a" x1="261.55" y1="457.85" x2="311.64" y2="428.89"/><polyline class="a" points="207.84 526.46 123.4 575.28 107.35 547.01 251.09 463.9"/><line class="a" x1="269.19" y1="490.98" x2="222.43" y2="518.02"/><line class="a" x1="328.9" y1="456.46" x2="289.58" y2="479.19"/><line class="a" x1="569.63" y1="317.26" x2="486.4" y2="365.96"/><path class="a" d="M173.42,322.61c.2.11.39.24.58.35l.74.4,1.17.64.43.22a32.57,32.57,0,0,0,4.12,1.86h0A49.15,49.15,0,0,0,229,241.79h0a31.26,31.26,0,0,0-3.67-2.62l-.42-.27c-.35-.22-.72-.45-1.13-.69l-.71-.43c-.2-.12-.4-.22-.6-.33C208.7,229.69,171.92,215,99.36,223.29,128.65,290.2,159.81,314.62,173.42,322.61Z"/><path class="a" d="M179.06,239.26a47.7,47.7,0,0,1,0,34.77c10.29-6.17,17.95-19.3,15.71-31.09h0A131.46,131.46,0,0,0,179.06,239.26Z"/><path class="a" d="M168.24,299.56c-29.35-21-44.08-61.94-44.08-61.94a254.79,254.79,0,0,1,32.27-.73c15.14,1.24,11.26,27,11.26,27S162.85,286.75,168.24,299.56Z"/><path class="a" d="M194,291c-3.06,2.8-6.87,4.95-8.72,8.67s-2,7.55.88,10.56c15.13,4.74,31.61-.8,39.37-14.28,8.25-14.34,3.78-32.71-9.79-43.2h0a24.07,24.07,0,0,0-2.63-1.86l-.3-.19-.81-.49-.51-.31-.43-.23c-1.08-.61-2.37-1.29-3.85-2C207.2,247.68,216.41,270.55,194,291Z"/><polyline class="a" points="549.41 463.59 693.31 546.41 677.32 574.72 531.4 490.73"/><line class="a" x1="488.83" y1="428.72" x2="539.04" y2="457.62"/><line class="a" x1="246.83" y1="289.42" x2="331.38" y2="337.66"/><line class="a" x1="314.65" y1="365.96" x2="230.61" y2="317.59"/><line class="a" x1="511.11" y1="479.05" x2="471.86" y2="456.46"/><polygon class="a" points="418.6 448.74 445.64 461.76 485.02 399.79 400.18 266.29 315.34 399.79 354.72 461.76 381.76 448.74 365.81 479.21 400.18 533.29 434.53 479.25 418.6 448.74"/><line class="a" x1="365.81" y1="402.92" x2="365.81" y2="456.46"/><line class="a" x1="365.81" y1="320.37" x2="365.81" y2="375.94"/><line class="a" x1="431.25" y1="404.7" x2="431.25" y2="454.88"/><line class="a" x1="431.25" y1="315.17" x2="431.25" y2="377.87"/><polygon class="a" points="374.83 407.78 347.54 393.07 352.43 368.87 392.37 390.4 374.83 407.78"/><polygon class="a" points="425.53 407.78 452.82 393.07 447.94 368.87 407.99 390.4 425.53 407.78"/><polyline class="a" points="614.19 443.25 614.19 482.96 639.06 468.35"/><polyline class="a" points="589.32 418.55 589.32 457.85 614.19 443.25"/><polyline class="a" points="663.94 444.25 663.94 482.96 639.06 468.35"/><polyline class="a" points="688.81 418.55 688.81 457.85 664.94 443.25"/><rect class="a" x="593.25" y="357.61" width="91.74" height="91.74" transform="translate(-98.11 570.1) rotate(-45)"/><rect class="a" x="627.02" y="365.71" width="24.21" height="24.21" transform="translate(-79.96 562.58) rotate(-45)"/><rect class="a" x="601.34" y="391.38" width="24.21" height="24.21" transform="translate(761.92 1122.56) rotate(-135)"/><rect class="a" x="652.69" y="391.38" width="24.21" height="24.21" transform="translate(480.02 -351.9) rotate(45)"/><line class="a" x1="622.01" y1="412.04" x2="658.72" y2="448.75"/><line class="a" x1="593.85" y1="383.88" x2="604.21" y2="394.24"/><line class="a" x1="673.35" y1="412.04" x2="684.39" y2="423.08"/><line class="a" x1="647.68" y1="386.37" x2="656.24" y2="394.92"/><line class="a" x1="619.52" y1="358.21" x2="630.56" y2="369.25"/><ellipse class="a" cx="502.68" cy="201.11" rx="51.13" ry="85.78"/><polyline class="a" points="539.56 249.41 520.74 227.12 502.68 249.41 484.62 227.12 465.8 249.41"/><polygon class="a" points="475.29 168.21 470.43 207.94 502.68 203.75 475.29 168.21"/><polygon class="a" points="530.08 168.21 534.93 207.94 502.68 203.75 530.08 168.21"/><line class="a" x1="520.74" y1="227.12" x2="464.7" y2="154.61"/><line class="a" x1="516.88" y1="185.34" x2="478.68" y2="135.91"/><line class="a" x1="549.64" y1="227.72" x2="534.57" y2="208.22"/><polyline class="a" points="199.76 422.24 199.76 395.95 221.16 382.43 151.87 338.67 82.59 382.43 103.99 395.95 103.99 421.62"/><polygon class="a" points="151.87 424.49 128.33 404.74 113.52 429.05 83.52 405.65 102.88 460.4 200.86 460.4 221.37 406.79 190.23 429.05 175.42 404.74 151.87 424.49"/><polygon class="a" points="125.39 382.43 103.99 395.95 82.59 382.43 103.99 368.92 125.39 382.43"/><polygon class="a" points="178.36 382.43 199.76 395.95 221.15 382.43 199.76 368.92 178.36 382.43"/><polygon class="a" points="173.27 369.18 151.87 382.69 130.48 369.18 151.87 355.66 173.27 369.18"/><line class="a" x1="151.87" y1="424.49" x2="102.88" y2="460.4"/><line class="a" x1="143.9" y1="460.4" x2="190.23" y2="429.05"/><polygon class="a" points="360.19 204.78 298.62 122.67 237.05 204.78 298.62 286.89 360.19 204.78"/><line class="a" x1="275.63" y1="213.6" x2="259.64" y2="234.91"/><line class="a" x1="321.21" y1="152.81" x2="305.23" y2="174.12"/><line class="a" x1="291.79" y1="235.15" x2="275.81" y2="256.47"/><line class="a" x1="337.38" y1="174.36" x2="321.39" y2="195.68"/><polygon class="a" points="328.22 204.78 298.62 165.3 269.02 204.78 298.62 244.26 328.22 204.78"/><path class="a" d="M329.4,485.19s12.94,16.1,3,35.52"/><path class="a" d="M315.34,485.53s9.23,19.62,0,32.49"/><path class="a" d="M471,485.19s-12.94,16.1-3,35.52"/><path class="a" d="M485,485.53s-9.23,19.62,0,32.49"/><circle class="a" cx="264.31" cy="568.92" r="35.62"/><path class="a" d="M301.35,606a52.38,52.38,0,0,1-72.66,1.36"/><path class="a" d="M248.37,584.27a22.17,22.17,0,0,1-4.69-7.32"/><path class="a" d="M257.86,590.1c-.6-.18-1.19-.39-1.77-.62"/><path class="a" d="M277.56,586.66a22.19,22.19,0,0,1-10,4.17"/><path class="a" d="M284.92,577a22,22,0,0,1-1.1,2.36"/><line class="a" x1="253.49" y1="559.49" x2="221.07" y2="527.07"/><circle class="a" cx="215.59" cy="521.59" r="7.75"/><polyline class="a" points="571.28 619.07 582.57 607.78 557.63 582.84 546.34 594.14"/><polygon class="a" points="586.13 589.7 575.71 579.29 557.63 582.84 582.57 607.78 586.13 589.7"/><circle class="a" cx="535.19" cy="630.22" r="37.77"/><line class="a" x1="522.02" y1="630.22" x2="572.96" y2="630.22"/><path class="a" d="M515.87,645.79a24.81,24.81,0,0,1,1.78-33.11"/><path class="a" d="M530.77,654.64a24.46,24.46,0,0,1-6.49-2.13"/><line class="a" x1="221.15" y1="323.99" x2="277.56" y2="422.24"/><line class="a" x1="572.96" y1="341.29" x2="505.31" y2="438.2"/><line class="a" x1="605.37" y1="533.3" x2="467.58" y2="588.74"/><line class="a" x1="535.19" y1="592.46" x2="535.19" y2="492.91"/><line class="a" x1="264.31" y1="533.3" x2="264.31" y2="493.8"/><line class="a" x1="326.72" y1="249.42" x2="374.67" y2="271.51"/><line class="a" x1="449.35" y1="629.16" x2="505.31" y2="652.51"/><path class="a" d="M373.68,665.78a47.69,47.69,0,0,1,30.1-17.42c-10.49-5.82-25.69-5.9-34.78,1.93h0A128,128,0,0,0,373.68,665.78Z"/><path class="a" d="M431.31,645c-3.49,35.92-31.6,69.15-31.6,69.15a255.68,255.68,0,0,1-16.77-27.58c-6.49-13.73,17.77-23.26,17.77-23.26S422.91,656.07,431.31,645Z"/><path class="a" d="M411,627c4,1.26,7.73,3.48,11.87,3.22s7.53-2.06,8.71-6c-3.46-15.47-16.5-27-32.05-26.95-16.55,0-30.22,13.08-32.52,30.07h0a24.39,24.39,0,0,0-.3,3.21c0,.12,0,.24,0,.36,0,.29,0,.61,0,.94s0,.4,0,.6,0,.33,0,.49c0,1.24.07,2.69.2,4.33C366.91,637.19,382.1,617.78,411,627Z"/><path class="a" d="M646.16,285.21A47.72,47.72,0,0,1,616,267.84c.2,12,7.74,25.2,19.06,29.16h0A130.24,130.24,0,0,0,646.16,285.21Z"/><path class="a" d="M599.35,245.69c32.85-14.93,75.68-7.21,75.68-7.21a255.55,255.55,0,0,1-15.5,28.31c-8.64,12.5-29-3.75-29-3.75S613.14,247.42,599.35,245.69Z"/><path class="a" d="M593.88,272.26c-.9-4.05-.86-8.42-3.15-11.88s-5.56-5.49-9.59-4.53c-11.67,10.74-15.11,27.78-7.32,41.24,8.3,14.32,26.45,19.63,42.31,13.12h0a26.46,26.46,0,0,0,2.93-1.35l.31-.17.83-.46.53-.28.41-.26c1.07-.63,2.3-1.41,3.65-2.34C624.79,305.36,600.39,301.91,593.88,272.26Z"/><polyline class="a" points="585.02 521.59 614.19 500.87 616.03 539.44 649.04 520.93 647.68 557.66"/><polyline class="a" points="383.95 103.69 416.45 122.67 383.95 148.87 416.45 165.3 383.95 188.07"/><polyline class="a" points="118.55 540.54 150.72 559.49 147.35 523.89 175.06 545.41 183.56 502.95"/><line class="a" x1="303.9" y1="630.22" x2="354.3" y2="653.58"/><path class="b" d="M275.14,554.3a5.09,5.09,0,0,0-1.79.32,5.19,5.19,0,0,0,1.79,10.06,5.37,5.37,0,0,0,1.79-.32,5.19,5.19,0,0,0-1.79-10.06Z"/><path class="b" d="M379.37,319.4a5.06,5.06,0,0,0-1.08.13,4.58,4.58,0,0,0,1.07,9,5,5,0,0,0,1.08-.13,4.58,4.58,0,0,0-1.07-9Z"/><path class="b" d="M386.85,307.5a4.43,4.43,0,0,0-1.08.13,4.58,4.58,0,0,0,1.07,9,5,5,0,0,0,1.08-.13,4.58,4.58,0,0,0-1.07-9Z"/><path class="b" d="M400.18,286.2a4.41,4.41,0,0,0-1.07.13,4.58,4.58,0,0,0,1.07,9,4.41,4.41,0,0,0,1.07-.13,4.58,4.58,0,0,0-1.07-9Z"/><path class="b" d="M399.16,300.61a4.43,4.43,0,0,0-1.08.13,4.58,4.58,0,0,0,1.07,9,4.49,4.49,0,0,0,1.08-.13,4.58,4.58,0,0,0-1.07-9Z"/><path class="b" d="M413.08,303.84A5,5,0,0,0,412,304a4.58,4.58,0,0,0,1.07,9,5.06,5.06,0,0,0,1.08-.13,4.58,4.58,0,0,0-1.07-9Z"/><path class="b" d="M419.24,315.79a4.43,4.43,0,0,0-1.08.13,4.58,4.58,0,0,0,1.07,9,4.43,4.43,0,0,0,1.08-.13,4.58,4.58,0,0,0-1.07-9Z"/><path class="b" d="M402.44,315.12a5,5,0,0,0-1.08.13,4.58,4.58,0,0,0,1.07,9,5,5,0,0,0,1.08-.13,4.58,4.58,0,0,0-1.07-9Z"/><path class="b" d="M391.91,328.56a4.53,4.53,0,0,0-2.52.76,4.58,4.58,0,0,0,2.53,8.4,4.51,4.51,0,0,0,2.52-.76,4.58,4.58,0,0,0-2.53-8.4Z"/><path class="b" d="M378.34,333.76a4.58,4.58,0,1,0,4.36,3.18,4.59,4.59,0,0,0-4.36-3.18Z"/><path class="b" d="M384.79,349.44a4.58,4.58,0,0,0,0,9.16,4.58,4.58,0,0,0,0-9.16Z"/><path class="b" d="M379.37,364.07a4.5,4.5,0,0,0-1.4.22,4.58,4.58,0,1,0,1.4-.22Z"/><path class="b" d="M394.38,368.64a4.59,4.59,0,0,0,0,9.17,4.5,4.5,0,0,0,1.4-.22,4.59,4.59,0,0,0-1.4-8.95Z"/><path class="b" d="M400.18,395.21a4.58,4.58,0,0,0-2.29,8.54,4.53,4.53,0,0,0,2.29.62,4.58,4.58,0,1,0,0-9.16Z"/><path class="b" d="M390.2,406.08a4.58,4.58,0,1,0,3.24,1.34,4.56,4.56,0,0,0-3.24-1.34Z"/><path class="b" d="M379.36,413.92a4.58,4.58,0,0,0-.19,9.16h.2a4.58,4.58,0,0,0,.2-9.15Z"/><path class="b" d="M378.4,432.78a4.58,4.58,0,0,0-.2,9.16h.21a4.58,4.58,0,0,0,.2-9.15Z"/><path class="b" d="M390.2,423.48a4.58,4.58,0,0,0-.2,9.16h.21a4.58,4.58,0,0,0,.19-9.15Z"/><path class="b" d="M411.81,406.08a4.58,4.58,0,0,0-.2,9.16h.2a4.58,4.58,0,0,0,.2-9.15Z"/><path class="b" d="M404.94,418.5a4.58,4.58,0,0,0-.2,9.16H405a4.58,4.58,0,0,0,.2-9.16Z"/><path class="b" d="M418.49,423.48a4.58,4.58,0,0,0-.19,9.16h.2a4.58,4.58,0,0,0,.2-9.15Z"/><path class="b" d="M408.73,436.71a4.58,4.58,0,0,0-.2,9.15h.2a4.58,4.58,0,0,0,.2-9.16Z"/><path class="b" d="M394.05,436.71a4.58,4.58,0,0,0-.2,9.15h.2a4.58,4.58,0,0,0,.2-9.16Z"/><path class="b" d="M393.26,455.7a4.58,4.58,0,0,0-.2,9.16h.21a4.58,4.58,0,0,0,.19-9.16Z"/><path class="b" d="M406,450.3a4.58,4.58,0,0,0-.19,9.15h.2a4.58,4.58,0,0,0,.2-9.16Z"/><path class="b" d="M383.94,467.13a4.58,4.58,0,0,0-.19,9.16h.2a4.58,4.58,0,0,0,.2-9.15Z"/><path class="b" d="M384,481.75a4.58,4.58,0,0,0-.2,9.15h.2a4.58,4.58,0,0,0,.2-9.16Z"/><path class="b" d="M399.25,473.3a4.58,4.58,0,0,0-.19,9.15h.2a4.58,4.58,0,0,0,.2-9.16Z"/><path class="b" d="M395.14,489.85A4.58,4.58,0,0,0,395,499h.2a4.58,4.58,0,0,0,.2-9.15Z"/><path class="b" d="M399.16,505.43a4.49,4.49,0,0,0-.73.06,4.57,4.57,0,1,0,.73-.06Z"/><path class="b" d="M408.74,492a4.49,4.49,0,0,0-.73.06,4.58,4.58,0,0,0,.72,9.1,6.11,6.11,0,0,0,.73-.05,4.58,4.58,0,0,0-.72-9.11Z"/><path class="b" d="M411.82,464.36a4.49,4.49,0,0,0-.73.06,4.56,4.56,0,1,0,.73-.06Z"/><path class="b" d="M416.46,479.61a4.49,4.49,0,0,0-.73.06,4.58,4.58,0,0,0,.72,9.1,6.11,6.11,0,0,0,.73,0,4.58,4.58,0,0,0-.72-9.11Z"/><path class="b" d="M398.53,340.86a4.58,4.58,0,1,0,4.36,3.18,4.59,4.59,0,0,0-4.36-3.18Z"/><path class="b" d="M400.84,355.86a4.5,4.5,0,0,0-1.4.22,4.58,4.58,0,1,0,1.4-.22Z"/><path class="b" d="M408,371.36a4.58,4.58,0,1,0,4.36,3.18,4.59,4.59,0,0,0-4.36-3.18Z"/><path class="b" d="M418.5,362.26a4.58,4.58,0,0,0,0,9.16,4.58,4.58,0,0,0,0-9.16Z"/><path class="b" d="M407.6,328.56a4.58,4.58,0,0,0,0,9.16,4.58,4.58,0,0,0,0-9.16Z"/><path class="b" d="M419.66,334.46a4.58,4.58,0,0,0,0,9.16,4.58,4.58,0,0,0,0-9.16Z"/><path class="b" d="M412.33,347.21a4.5,4.5,0,0,0-1.4.22,4.58,4.58,0,1,0,1.4-.22Z"/><line class="a" x1="134.12" y1="284.8" x2="139.55" y2="346.45"/><line class="a" x1="265.41" y1="166.96" x2="168.24" y2="221.96"/><line class="a" x1="383.95" y1="99.88" x2="312.04" y2="140.57"/><line class="a" x1="481.73" y1="132.71" x2="417.12" y2="99.4"/><line class="a" x1="631.6" y1="221.59" x2="548.3" y2="170.57"/><line class="a" x1="655.33" y1="354.83" x2="663.39" y2="287.79"/><line class="a" x1="198.09" y1="329.52" x2="193.21" y2="364.78"/><line class="a" x1="267.53" y1="245.42" x2="238.95" y2="252.44"/><line class="a" x1="383.95" y1="119.43" x2="332.13" y2="166.96"/><line class="a" x1="144" y1="563.37" x2="223.34" y2="617.19"/><line class="a" x1="136.19" y1="460.4" x2="127.2" y2="535.53"/><line class="a" x1="451.66" y1="205.51" x2="416.45" y2="190.49"/><line class="a" x1="540.21" y1="296.72" x2="525.06" y2="268.04"/><line class="a" x1="601.75" y1="376.24" x2="558.47" y2="323.72"/><line class="a" x1="613.45" y1="327.68" x2="613.45" y2="364.29"/><line class="a" x1="553.71" y1="205.31" x2="576.34" y2="237.86"/><line class="a" x1="374.55" y1="271.3" x2="296.15" y2="316.26"/><line class="a" x1="514.35" y1="311.68" x2="423.21" y2="267.6"/><line class="a" x1="277.56" y1="344.62" x2="277.56" y2="448.75"/><path class="a" d="M291.09,592.41a40.31,40.31,0,1,1-53.81.23"/><line class="a" x1="251.46" y1="535.7" x2="237.86" y2="509.1"/><line class="a" x1="383.95" y1="568.21" x2="328.12" y2="572.59"/><polyline class="a" points="298.9 643.3 332.57 676.98 319.59 689.96 286.1 656.47"/><polyline class="a" points="230.43 600.8 197.76 568.13 210.74 555.14 228.98 573.38"/><polyline class="a" points="243.68 657.03 210.74 689.96 197.76 676.98 230.61 644.12"/><polyline class="a" points="299.65 575.08 319.59 555.14 332.57 568.13 298.9 601.81"/><line class="a" x1="445.17" y1="609.31" x2="535.44" y2="520.94"/><line class="a" x1="315.74" y1="584.69" x2="351.49" y2="622.1"/><line class="a" x1="532.33" y1="464.83" x2="532.33" y2="339.83"/><line class="a" x1="416.45" y1="559.26" x2="507.38" y2="509.27"/><polyline class="a" points="319.16 519.31 321.21 520.93 384 558.52"/><polygon class="a" points="507.21 399.79 400.18 568.21 293.15 399.79 400.18 231.37 507.21 399.79"/><path class="a" d="M269.19,491a96.23,96.23,0,0,0,98.22,25.66"/><path class="a" d="M345.16,481.63a76.38,76.38,0,0,1-101-72.26c0-.21,0-.42,0-.64a97.2,97.2,0,0,0-1.35,16.11A95.77,95.77,0,0,0,269.19,491"/><path class="a" d="M455.2,481.63a76.38,76.38,0,0,0,101-72.26c0-.21,0-.42,0-.64a97.2,97.2,0,0,1,1.35,16.11A96.17,96.17,0,0,1,433,516.64"/><line class="a" x1="433.26" y1="689.2" x2="505.31" y2="652.51"/><line class="a" x1="677.43" y1="537.27" x2="663.94" y2="482.96"/><line class="a" x1="584.25" y1="597.19" x2="658.72" y2="563.12"/></svg>