<svg xmlns="http://www.w3.org/2000/svg" viewBox="0 0 800 800"><defs><style>.a{fill:none;stroke:lime;stroke-linecap:round;stroke-linejoin:round;stroke-width:6px;}.b{fill:lime;}</style></defs><title>WOW-crest</title><line class="a" x1="205.39" y1="433.75" x2="161.16" y2="421.46"/><polyline class="a" points="671.67 439.95 696.39 447.33 711.34 475.04 720.56 444.2 705.61 416.5 680.89 409.11"/><polygon class="a" points="649.88 399.49 633.45 455.44 648.4 483.15 679.24 492.36 664.29 464.66 680.89 409.11 649.88 399.49"/><polyline class="a" points="711.34 475.04 701.54 480.33 687.88 455.01 697.68 449.72"/><polyline class="a" points="665.58 467.05 675.38 461.76 689.04 487.07 679.24 492.36"/><polyline class="a" points="610.54 466.99 633.45 455.44 647.69 406.71 581 440.73"/><polyline class="a" points="623.68 418.96 615.94 462.5 606.02 427.97"/><polyline class="a" points="189.69 467.03 141.88 453.74 121.27 417.27 90.94 408.84 118.96 393.01 149.29 401.44 169.9 437.91 225.66 453.4"/><polyline class="a" points="133.96 439.73 111.5 452.42 81.17 443.99 97.01 472.01 127.34 480.44 163.81 459.84 189.69 467.03"/><polyline class="a" points="118.66 416.55 115.67 427.28 87.96 419.58 90.94 408.84"/><polyline class="a" points="108.89 451.69 111.87 440.96 84.16 433.26 81.17 443.99"/><rect class="a" x="566.5" y="217.65" width="87.76" height="98.3" transform="translate(314.3 -329.93) rotate(40)"/><polygon class="a" points="610.06 171.89 687.44 177.58 703.91 250.64 610.06 171.89"/><circle class="a" cx="610.63" cy="266.51" r="10.43"/><circle class="a" cx="611.88" cy="232.57" r="10.43"/><circle class="a" cx="643.83" cy="259.38" r="10.43"/><circle class="a" cx="577.42" cy="273.64" r="10.43"/><circle class="a" cx="609.37" cy="300.45" r="10.43"/><polyline class="a" points="605.75 327.07 590.34 331.92 549.74 297.85 551.83 281.83"/><line class="a" x1="558.5" y1="305.2" x2="539.92" y2="327.34"/><line class="a" x1="565.8" y1="343.37" x2="581.58" y2="324.56"/><polyline class="a" points="580.42 352.42 532.7 322.88 521.93 335.71"/><polygon class="a" points="610.06 171.89 608.36 200.94 675.59 257.36 703.91 250.64 610.06 171.89"/><path class="b" d="M625.52,196.22a3.88,3.88,0,0,0-1.73,7.35,3.88,3.88,0,1,0,3.45-6.94,3.78,3.78,0,0,0-1.72-.41Z"/><path class="b" d="M641.49,209.63a3.88,3.88,0,1,0,1.73.41,3.88,3.88,0,0,0-1.73-.41Z"/><path class="b" d="M657.47,223a3.89,3.89,0,1,0,1.72.41,3.78,3.78,0,0,0-1.72-.41Z"/><path class="b" d="M673.44,236.44a3.87,3.87,0,0,0-1.72,7.34,3.78,3.78,0,0,0,1.72.41,3.88,3.88,0,0,0,0-7.75Z"/><circle class="a" cx="150.15" cy="217.84" r="7.37"/><circle class="a" cx="129.17" cy="235.45" r="7.37"/><circle class="a" cx="171.13" cy="200.24" r="7.37"/><rect class="a" x="147.56" y="219.96" width="87.76" height="94.18" transform="translate(-126.87 185.53) rotate(-40)"/><polyline class="a" points="248.67 280.5 250.76 296.51 210.16 330.59 194.75 325.74"/><line class="a" x1="218.92" y1="323.23" x2="235.3" y2="342.75"/><line class="a" x1="260.71" y1="326.17" x2="242" y2="303.87"/><polyline class="a" points="278.53 334.34 267.79 321.55 220.24 352.58"/><path class="a" d="M127.56,259.18s-13.11-15.61-32.15-17.78L182.85,168c-1.17,19.13,11.94,34.74,11.94,34.74"/><polygon class="a" points="170.37 162.62 92.25 228.17 95.41 241.4 182.85 168.03 170.37 162.62"/><rect class="a" x="121.72" y="229.36" width="87.76" height="13.79" transform="translate(-113.12 161.72) rotate(-40)"/><rect class="a" x="160.99" y="276.1" width="87.76" height="13.92" transform="translate(-134.02 197.91) rotate(-40)"/><polygon class="a" points="474.86 122.4 546.94 102 589.99 164.31 474.86 122.4"/><polyline class="a" points="523.89 269.7 511.07 279.52 461.26 261.39 457.75 245.63"/><line class="a" x1="472.01" y1="265.31" x2="467.39" y2="278"/><line class="a" x1="493.88" y1="293.3" x2="500.32" y2="275.61"/><line class="a" x1="507.69" y1="134.35" x2="466.08" y2="248.66"/><line class="a" x1="466.62" y1="230.25" x2="480.93" y2="229.88"/><line class="a" x1="484.07" y1="182.29" x2="498.38" y2="181.93"/><line class="a" x1="485.28" y1="217.93" x2="475.14" y2="206.84"/><line class="a" x1="479.3" y1="195.41" x2="491.82" y2="199.96"/><rect class="a" x="495.95" y="204.84" width="48.5" height="17.08" rx="8.24" transform="translate(-37.58 284.2) rotate(-29.54)"/><rect class="a" x="495.95" y="204.84" width="48.5" height="17.08" rx="8.24" transform="translate(449.37 -344.4) rotate(60.46)"/><line class="a" x1="516.19" y1="162.29" x2="524.18" y2="140.35"/><line class="a" x1="532.69" y1="168.3" x2="540.67" y2="146.35"/><line class="a" x1="549.18" y1="174.3" x2="557.17" y2="152.36"/><line class="a" x1="485.73" y1="143.35" x2="568.2" y2="173.36"/><polyline class="a" points="573.66 158.36 532.05 272.68 449.59 242.66 491.19 128.34"/><polygon class="a" points="213.65 164.08 255.76 102 328.78 122.18 213.65 164.08"/><polyline class="a" points="312.45 128.12 354.06 242.44 271.59 272.45 229.98 158.14"/><circle class="a" cx="295.88" cy="210.9" r="10.43"/><circle class="a" cx="267.12" cy="192.85" r="10.43"/><circle class="a" cx="306.31" cy="178.58" r="10.43"/><circle class="a" cx="285.46" cy="243.22" r="10.43"/><circle class="a" cx="324.65" cy="228.96" r="10.43"/><rect class="a" x="232.66" y="154.22" width="19.55" height="19.12" transform="translate(-41.39 92.8) rotate(-20)"/><rect class="a" x="264.71" y="142.55" width="19.55" height="19.12" transform="translate(-35.47 103.05) rotate(-20)"/><rect class="a" x="296.76" y="130.89" width="19.55" height="19.12" transform="translate(642.62 167.58) rotate(160)"/><polyline class="a" points="345.89 245.41 342.38 261.17 292.57 279.3 279.75 269.48"/><line class="a" x1="303.33" y1="275.39" x2="309.2" y2="291.52"/><line class="a" x1="335.69" y1="276.22" x2="331.63" y2="265.08"/><polyline class="a" points="413.66 250.8 413.66 226.62 386.34 226.62 386.34 250.8"/><polyline class="a" points="374.85 279.84 374.85 250.8 425.15 250.8 425.15 279.84"/><line class="a" x1="241.66" y1="356.73" x2="291.74" y2="327.82"/><line class="a" x1="561.67" y1="458.78" x2="561.67" y2="570.42"/><line class="a" x1="508.26" y1="327.83" x2="559.18" y2="357.22"/><polyline class="a" points="354.09 291.82 400 265.32 445.9 291.82"/><line class="a" x1="270.88" y1="363.13" x2="301.81" y2="345.27"/><line class="a" x1="541.53" y1="462.98" x2="541.53" y2="527.55"/><line class="a" x1="498.19" y1="345.27" x2="531.01" y2="364.22"/><polyline class="a" points="364.16 309.27 400 288.58 435.84 309.27"/><polyline class="a" points="377.38 332.16 342.73 272.16 280.38 308.16 312.12 363.13"/><circle class="a" cx="328.11" cy="318.67" r="17.85"/><line class="a" x1="340.73" y1="331.29" x2="315.49" y2="306.05"/><polyline class="a" points="422.62 332.17 457.27 272.16 519.62 308.16 487.88 363.13"/><polygon class="a" points="481.89 335.98 491.88 318.67 481.89 301.35 461.89 301.35 451.9 318.67 461.89 335.98 481.89 335.98"/><circle class="a" cx="471.89" cy="318.67" r="6.9"/><path class="a" d="M488.78,407.94l34.78,23.8-7.32,48.05S455.71,494.43,453,564.45l-11.45,13.27L400,554.38l-41.52,23.34L347,564.45c-2.74-70-63.27-84.66-63.27-84.66l-7.32-48.05,34.78-23.8L300.7,371.79c45.76-37.52,99.3-44.85,99.3-44.85s53.54,7.33,99.3,44.85Z"/><polyline class="a" points="110.69 341.94 238.32 465.69 280.5 458.36"/><polyline class="a" points="300.7 371.79 76.46 318.25 81.04 331.93 311.22 407.94"/><polyline class="a" points="157.61 357.22 250.81 437.81 277.69 439.93"/><polyline class="a" points="689.32 341.94 554.22 465.6 519.5 458.36"/><polyline class="a" points="499.3 371.79 723.54 318.25 718.96 331.93 488.78 407.94"/><polyline class="a" points="642.39 357.22 549.18 437.81 522.31 439.93"/><polyline class="a" points="366.08 573.45 379.98 607.01 420.02 607.01 433.92 573.45"/><polyline class="a" points="350.96 455.82 361.56 440.87 381.69 436.31 392 407.94 392 378.37"/><polyline class="a" points="449.04 455.82 438.44 440.87 418.31 436.31 408 407.94 408 378.13"/><path class="a" d="M367.81,452.8c9.27,8.69,23.73,23.81,29.19,47.75h6c5.46-23.94,19.92-39.06,29.19-47.75"/><polyline class="a" points="283.76 479.79 319.46 434.71 316.18 495.72 350.96 455.82 337.99 519.38 375.79 489.84 347.04 564.45 388.56 526.47"/><polyline class="a" points="516.24 479.79 480.54 434.71 483.82 495.72 449.04 455.82 462.01 519.38 424.21 489.84 452.96 564.45 411.44 526.47"/><path class="a" d="M279.16,449.59l40.3-14.88s56.74,25.4,69.1,91.76h22.88c12.36-66.36,69.1-91.76,69.1-91.76l40.3,14.88"/><polygon class="a" points="413.02 581.01 386.98 581.01 379.98 607.01 420.02 607.01 413.02 581.01"/><path class="a" d="M447.65,164.09a47.65,47.65,0,1,0-79.43,35.49h0a.35.35,0,0,1,.08.06q1,.9,2.07,1.74c4.21,3.74,13.38,13.08,16,25.24h27.32c2.6-12.16,11.77-21.49,16-25.24q1.07-.84,2.07-1.74l.08-.06h0A47.54,47.54,0,0,0,447.65,164.09Z"/><line class="a" x1="400" y1="226.62" x2="400" y2="150.9"/><line class="a" x1="378.09" y1="163.24" x2="421.91" y2="163.24"/><line class="a" x1="400" y1="150.9" x2="400" y2="174.72"/><line class="a" x1="421.91" y1="150.9" x2="421.91" y2="174.72"/><line class="a" x1="378.09" y1="150.9" x2="378.09" y2="174.72"/><path class="a" d="M222.13,466.18a100.24,100.24,0,0,1,11.29-.64c1.65,0,3.28,0,4.9.14"/><path class="a" d="M251.73,574.14A31.91,31.91,0,0,0,263.2,559.3l.27-.78a25.42,25.42,0,0,1,45.75,22.19l-.78,2.12a82.87,82.87,0,0,1-11,17.62"/><path class="a" d="M238.33,516.76a31.79,31.79,0,0,0-4.91-.37A33.78,33.78,0,0,0,219,519.6"/><path class="a" d="M203.1,538.81a35.72,35.72,0,1,1-51.92-.41"/><path class="a" d="M151.61,559.75c1.52,6.31,5.1,12.69,11.06,16.37a25.54,25.54,0,0,0,35.15-8.31c2.66-4.3,4.44-9.08,4.37-13.78"/><path class="a" d="M230.83,516.42a35.73,35.73,0,1,1-19.55-48.09"/><path class="a" d="M196.14,474,191,476.85a25.54,25.54,0,0,0,25.22,44.06s1.06-.57,2.78-1.31"/><path class="a" d="M194.81,474.71a82.4,82.4,0,0,1,27.32-8.53"/><rect class="a" x="225.69" y="585.82" width="65.25" height="22.98" rx="9.64" transform="translate(-242.99 182.33) rotate(-27)"/><line class="a" x1="243.37" y1="592.03" x2="253.98" y2="612.41"/><line class="a" x1="273.26" y1="602.59" x2="262.64" y2="582.21"/><path class="a" d="M585.23,573.82a35.75,35.75,0,1,0,9.55,56,32.13,32.13,0,0,0,4.33-5.72"/><path class="a" d="M580.69,629.53c-6.48.19-15.64-2.08-20.76-6.86a25.56,25.56,0,0,1,9-42.82"/><path class="a" d="M596.9,538.81a35.72,35.72,0,1,0,51.92-.41"/><path class="a" d="M648.31,560.33a25,25,0,0,1-11,15.79,25.54,25.54,0,0,1-35.15-8.31,27.92,27.92,0,0,1-4.26-14.37"/><path class="a" d="M569.17,516.42a35.73,35.73,0,1,0,19.55-48.09"/><path class="a" d="M608.82,477.14a25,25,0,0,1,10.32,16.27A25.54,25.54,0,0,1,598,522.68a27.49,27.49,0,0,1-14.77-1.62"/><path class="a" d="M539.93,565.47a29.5,29.5,0,1,0-58.09-7.3,29.43,29.43,0,0,0,7.9,20.1"/><path class="a" d="M542.57,569a38,38,0,1,0-51.08,14"/><circle class="a" cx="448.21" cy="400.77" r="26.77"/><line class="a" x1="437.77" y1="390.33" x2="458.27" y2="410.83"/><line class="a" x1="433.33" y1="403.25" x2="445.35" y2="415.27"/><line class="a" x1="450.3" y1="386.27" x2="462.33" y2="398.3"/><polygon class="a" points="334.63 419.15 324.05 401.06 340.71 388.35 367.96 393.73 378.54 411.82 361.88 424.53 334.63 419.15"/><line class="a" x1="324.05" y1="401.06" x2="378.54" y2="411.82"/><path class="a" d="M429.62,334.34a32.19,32.19,0,1,1-59.28.08"/><circle class="a" cx="400" cy="353.17" r="12.54"/><line class="a" x1="391.13" y1="362.04" x2="408.87" y2="344.3"/><path class="b" d="M317.76,371.67a4.7,4.7,0,0,0-1.05.12,4.46,4.46,0,0,0,1,8.8,4.31,4.31,0,0,0,1.05-.13,4.46,4.46,0,0,0-1-8.79Z"/><path class="b" d="M354.6,351.76a4.68,4.68,0,0,0-1,.12,4.46,4.46,0,0,0,1,8.8,4.68,4.68,0,0,0,1-.12,4.46,4.46,0,0,0-1-8.8Z"/><path class="b" d="M482.24,371.67a4.46,4.46,0,0,0-1,8.79,4.31,4.31,0,0,0,1.05.13,4.46,4.46,0,0,0,1-8.8,4.7,4.7,0,0,0-1.05-.12Z"/><path class="b" d="M445.4,351.76a4.46,4.46,0,0,0-1,8.8,4.68,4.68,0,0,0,1,.12,4.46,4.46,0,0,0,1-8.8,4.68,4.68,0,0,0-1-.12Z"/><path class="b" d="M267.1,412.51a4.46,4.46,0,0,0-1,8.8,4.7,4.7,0,0,0,1.05.12,4.46,4.46,0,0,0,1-8.79,4.19,4.19,0,0,0-1-.13Z"/><path class="b" d="M249.71,404.79a4.46,4.46,0,0,0-1,8.8,4.25,4.25,0,0,0,1.05.13,4.46,4.46,0,0,0,1-8.8,4.71,4.71,0,0,0-1-.13Z"/><path class="b" d="M232.33,397.08a4.46,4.46,0,0,0-1,8.79,4.19,4.19,0,0,0,1.05.13,4.46,4.46,0,0,0,1-8.8,4.77,4.77,0,0,0-1-.12Z"/><path class="b" d="M532.9,412.51a4.25,4.25,0,0,0-1,.13,4.46,4.46,0,0,0,1,8.79,4.7,4.7,0,0,0,1.05-.12,4.46,4.46,0,0,0-1-8.8Z"/><path class="b" d="M550.29,404.79a4.71,4.71,0,0,0-1,.13,4.46,4.46,0,0,0,1,8.8,4.25,4.25,0,0,0,1.05-.13,4.46,4.46,0,0,0-1-8.8Z"/><path class="b" d="M567.67,397.08a4.83,4.83,0,0,0-1,.12,4.46,4.46,0,0,0,1,8.8,4.19,4.19,0,0,0,1.05-.13,4.46,4.46,0,0,0-1-8.79Z"/><line class="a" x1="400" y1="77.46" x2="400" y2="98.5"/><line class="a" x1="422.84" y1="80.47" x2="417.38" y2="100.79"/><line class="a" x1="444.11" y1="89.31" x2="433.57" y2="107.52"/><line class="a" x1="462.36" y1="103.36" x2="447.46" y2="118.21"/><line class="a" x1="377.16" y1="80.47" x2="382.62" y2="100.79"/><line class="a" x1="355.89" y1="89.31" x2="366.43" y2="107.52"/><line class="a" x1="337.64" y1="103.36" x2="352.54" y2="118.21"/><path class="a" d="M260.07,565.47a29.5,29.5,0,1,1,58.09-7.3,29.36,29.36,0,0,1-7.91,20.1"/><path class="a" d="M258.43,528.75A38,38,0,1,1,308.51,583"/><path class="a" d="M257.43,569a38,38,0,0,1,1-40.23"/><polyline class="a" points="251.76 574.09 238.33 566.34 238.33 465.69"/><polyline class="a" points="501.82 600.89 400 659.68 297.41 600.45"/><polyline class="a" points="491.87 583.38 400 636.42 308.17 583.4"/><path class="a" d="M151.6,559.75a83.45,83.45,0,0,1-.8-11.59,82.31,82.31,0,0,1,11.71-42.43"/><path class="a" d="M297.4,600.45a82.63,82.63,0,0,1-130.19-2.85"/><path class="a" d="M211.74,571.4a31.79,31.79,0,0,0,40,2.74"/><path class="a" d="M203.67,537a28.45,28.45,0,0,0-2,11.18,32.25,32.25,0,0,0,.54,5.86"/><rect class="a" x="258.55" y="671.93" width="107.42" height="20.55" transform="translate(382.94 -64.73) rotate(30)"/><polygon class="a" points="374.26 676.63 286.09 625.72 303.44 619.07 371.34 658.27 374.26 676.63"/><polyline class="a" points="369.75 674.02 354.78 679.75 293.12 644.15 290.6 628.33"/><path class="a" d="M269,669.07a56.29,56.29,0,0,0,76.32,44.07"/><polyline class="a" points="277.36 650.19 293.12 644.15 354.78 679.75 357.43 696.42"/><polyline class="a" points="383.98 650.43 371.34 658.27 303.44 619.07 303.91 604.2"/><rect class="a" x="434.03" y="671.93" width="107.42" height="20.55" transform="translate(1251.25 1029.14) rotate(150)"/><polygon class="a" points="425.74 676.63 513.91 625.72 496.56 619.07 428.66 658.27 425.74 676.63"/><polyline class="a" points="430.25 674.02 445.22 679.75 506.88 644.15 509.4 628.33"/><path class="a" d="M531,669.07a56.29,56.29,0,0,1-76.32,44.07"/><polyline class="a" points="522.64 650.19 506.88 644.15 445.22 679.75 442.57 696.42"/><polyline class="a" points="416.02 650.43 428.66 658.27 496.56 619.07 496.09 604.2"/><line class="a" x1="259.3" y1="462.74" x2="259.3" y2="526.47"/><path class="a" d="M549.75,575.13a31.94,31.94,0,0,1-13-15.83l-.27-.78a25.42,25.42,0,0,0-45.75,22.19l.78,2.12a82.89,82.89,0,0,0,47.95,43.42"/><path class="a" d="M588.25,571.4A31.62,31.62,0,0,1,569,579.85"/><path class="a" d="M596.34,537a31.93,31.93,0,0,1,1.58,16.46"/><path class="a" d="M561.67,516.76a31.26,31.26,0,0,1,21.55,4.3"/><path class="a" d="M580.7,629.58a82.55,82.55,0,0,0,52.09-32"/><path class="a" d="M608.82,477.14a82.22,82.22,0,0,0-42.24-11.6c-1.65,0-3.28,0-4.9.14"/><path class="a" d="M648.31,560.33a82.9,82.9,0,0,0-10.83-54.61"/></svg>