<svg xmlns="http://www.w3.org/2000/svg" viewBox="0 0 800 800"><defs><style>.a{fill:none;stroke:#00ff96;stroke-linecap:round;stroke-linejoin:round;stroke-width:6px;}.b{fill:#00ff96;}</style></defs><title>WOW-crest</title><polyline class="a" points="90.01 174.76 71.4 212.71 90.01 212.71"/><polyline class="a" points="342.17 136.06 342.17 99.29 369.95 99.29"/><polyline class="a" points="451.81 136.06 451.81 99.29 424.03 99.29"/><polyline class="a" points="342.17 613.4 342.17 635.5 369.95 635.5"/><polyline class="a" points="451.81 613.4 451.81 635.5 424.03 635.5"/><circle class="a" cx="222.62" cy="374.73" r="53.57"/><circle class="a" cx="396.99" cy="184.55" r="53.57"/><circle class="a" cx="571.36" cy="374.73" r="53.57"/><circle class="a" cx="396.99" cy="564.91" r="53.57"/><path class="a" d="M473.25,281.05c14-14.69,24.76-29.68,30.83-42.26l28.85,28.85c-12.55,6.05-27.49,16.75-42.15,30.73"/><path class="a" d="M243.63,545.42c-15.95,16-28.12,32.54-34.75,46.26L180,562.84c13.72-6.63,30.31-18.8,46.26-34.75s28.13-32.55,34.75-46.27l28.85,28.85C276.18,517.29,259.58,529.47,243.63,545.42Z"/><path class="a" d="M648.69,140.36c-16,15.95-28.13,32.55-34.75,46.27l-28.85-28.85c13.72-6.62,30.32-18.8,46.27-34.75s28.12-32.54,34.75-46.26L695,105.61C681.23,112.24,664.64,124.41,648.69,140.36Z"/><path class="a" d="M567.67,221.37c-15.95,15.95-28.12,32.55-34.74,46.27l-28.85-28.85c13.72-6.62,30.32-18.79,46.27-34.74s28.12-32.55,34.74-46.27l28.85,28.85C600.22,193.25,583.62,205.42,567.67,221.37Z"/><path class="a" d="M162.62,626.43c-16,16-28.12,32.54-34.75,46.26L99,643.85c13.72-6.63,30.31-18.8,46.26-34.75s28.13-32.54,34.75-46.26l28.84,28.84C195.17,598.3,178.57,610.48,162.62,626.43Z"/><path class="a" d="M226.3,221.37c-16-16-32.54-28.12-46.26-34.74l28.84-28.85c6.63,13.72,18.8,30.32,34.75,46.27s32.55,28.12,46.27,34.74l-28.85,28.85C254.43,253.92,242.25,237.32,226.3,221.37Z"/><path class="a" d="M145.29,140.36c-15.95-16-32.54-28.12-46.26-34.75l28.84-28.84c6.63,13.72,18.8,30.31,34.75,46.26s32.55,28.13,46.26,34.75L180,186.63C173.42,172.91,161.24,156.31,145.29,140.36Z"/><circle class="a" cx="396.99" cy="374.73" r="120.8"/><circle class="a" cx="396.99" cy="374.73" r="102.63"/><rect class="a" x="90.01" y="174.76" width="64.3" height="145.05"/><circle class="a" cx="122.16" cy="199.6" r="14.87"/><line class="a" x1="122.16" y1="197.34" x2="122.16" y2="120.7"/><line class="a" x1="342.16" y1="232.16" x2="342.16" y2="266.44"/><line class="a" x1="451.81" y1="232.16" x2="451.81" y2="266.44"/><line class="a" x1="342.16" y1="517.3" x2="342.16" y2="483.02"/><line class="a" x1="451.81" y1="517.3" x2="451.81" y2="483.02"/><circle class="a" cx="103.55" cy="461.55" r="14.69"/><path class="a" d="M696.07,261.8a51.37,51.37,0,1,1-55.31,33.06"/><polygon class="a" points="695.75 261.77 640.91 294.5 635.95 278.58 684.1 249.84 695.75 261.77"/><line class="a" x1="665.85" y1="221.23" x2="665.85" y2="125.55"/><circle class="a" cx="688.95" cy="312.68" r="26.08"/><rect class="a" x="618.3" y="202.33" width="23.82" height="23.82" transform="matrix(0.86, -0.51, 0.51, 0.86, -20.75, 353.21)"/><line class="a" x1="109.55" y1="234.8" x2="120.08" y2="244.21"/><path class="a" d="M135.7,235.36s-1.23,23.7-22,28.21"/><polyline class="a" points="111.43 287.27 111.43 299.3 126.75 299.3"/><line class="a" x1="135.91" y1="286.14" x2="116.04" y2="319.8"/><polyline class="a" points="93.47 339.19 116.04 339.19 95.72 358.94"/><polyline class="a" points="111.43 369.66 111.43 380.37 93.47 380.37 111.43 398.99"/><path class="b" d="M203.86,218.85a4.67,4.67,0,0,0-1.11.13,5,5,0,0,0,1.1,9.93,5.31,5.31,0,0,0,1.11-.12,5,5,0,0,0-1.1-9.94Z"/><path class="b" d="M245.78,179.52a5.22,5.22,0,0,0-1.1.12,5,5,0,0,0,1.09,9.94,4.67,4.67,0,0,0,1.11-.13,5,5,0,0,0-1.1-9.93Z"/><path class="b" d="M233.75,165.6a5.24,5.24,0,0,0-1.11.12,5,5,0,0,0,1.1,9.94,5.22,5.22,0,0,0,1.1-.12,5,5,0,0,0-1.09-9.94Z"/><path class="b" d="M259.32,165.6a5,5,0,1,0,3,1,5,5,0,0,0-3-1Z"/><path class="b" d="M245.78,154.69a5,5,0,0,0-3.05,9,5,5,0,0,0,7.05-1,5,5,0,0,0-4-8.07Z"/><path class="b" d="M276.14,160.05a5,5,0,1,0,3,1,5,5,0,0,0-3-1Z"/><path class="b" d="M292.31,151.14a5,5,0,1,0,3,1,5,5,0,0,0-3-1Z"/><path class="b" d="M310.71,142.11a5,5,0,0,0-3,9,5,5,0,1,0,3-9Z"/><path class="b" d="M310.71,123a5,5,0,1,0,3,1,5,5,0,0,0-3-1Z"/><path class="b" d="M295.71,134.22a5,5,0,0,0-3,9,5,5,0,0,0,7-1,5,5,0,0,0-4-8.07Z"/><path class="b" d="M277.7,141.65a5,5,0,1,0,3,1,5,5,0,0,0-3-1Z"/><path class="b" d="M261.19,144.56a5,5,0,0,0-3.05,9,5,5,0,0,0,7.05-1,5,5,0,0,0-4-8.07Z"/><path class="b" d="M225.43,148.13a5,5,0,1,0,3,1,5,5,0,0,0-3-1Z"/><path class="b" d="M243.09,137.74a5,5,0,1,0,3,1,5,5,0,0,0-3-1Z"/><path class="b" d="M228.13,127.14a5,5,0,0,0-3,9,5,5,0,0,0,7-1,5,5,0,0,0-4-8.07Z"/><path class="b" d="M264.06,124.78a5,5,0,1,0,3,1,5,5,0,0,0-3-1Z"/><path class="b" d="M281.36,126.29a5,5,0,1,0,3,1,5,5,0,0,0-3-1Z"/><path class="b" d="M311.86,104.34a5,5,0,1,0,3,1,4.94,4.94,0,0,0-3-1Z"/><path class="b" d="M295,115.69a5,5,0,1,0,3,1,5,5,0,0,0-3-1Z"/><path class="b" d="M292.74,97.53a5,5,0,0,0-3.05,9,5,5,0,0,0,7.05-1,5,5,0,0,0-4-8.07Z"/><path class="b" d="M278.31,109.42a5,5,0,1,0,3,1,5,5,0,0,0-3-1Z"/><path class="b" d="M247.15,119.6a5,5,0,0,0-3.05,9,5,5,0,0,0,3,1,5,5,0,0,0,0-10.06Z"/><path class="b" d="M257.41,104.75a5,5,0,0,0-3,9,5,5,0,0,0,3,1,5,5,0,1,0,0-10.06Z"/><path class="b" d="M548.2,179.52a5,5,0,0,0-1.1,9.93,4.67,4.67,0,0,0,1.11.13,5,5,0,0,0,1.09-9.94,5.22,5.22,0,0,0-1.1-.12Z"/><path class="b" d="M560.23,165.6a5,5,0,0,0-1.09,9.94,5.22,5.22,0,0,0,1.1.12,5,5,0,0,0,1.1-9.94,5.24,5.24,0,0,0-1.11-.12Z"/><path class="b" d="M533.53,169a5,5,0,1,0,4,2,5,5,0,0,0-4-2Z"/><path class="b" d="M543.68,157a5,5,0,0,0-3,1,5,5,0,1,0,3-1Z"/><path class="b" d="M517.83,160.05a5,5,0,1,0,4,2,5,5,0,0,0-4-2Z"/><path class="b" d="M501.67,151.14a5,5,0,0,0-3,1,5,5,0,1,0,3-1Z"/><path class="b" d="M483.27,142.11a5,5,0,1,0,4,2,5,5,0,0,0-4-2Z"/><path class="b" d="M483.27,123a5,5,0,0,0,0,10.06,4.94,4.94,0,0,0,3-1,5,5,0,0,0-3-9Z"/><path class="b" d="M498.27,134.22a5,5,0,0,0,0,10.06,5,5,0,0,0,3-1,5,5,0,0,0-3.05-9Z"/><path class="b" d="M517.41,142.78a5,5,0,0,0-3,1,5,5,0,1,0,3-1Z"/><path class="b" d="M532.79,144.56a5,5,0,0,0,0,10.06,5,5,0,0,0,3-1,5,5,0,0,0-3.05-9Z"/><path class="b" d="M568.55,150.39a5,5,0,1,0,4,2,5,5,0,0,0-4-2Z"/><path class="b" d="M549.76,138.87a5,5,0,1,0,4,2,5,5,0,0,0-4-2Z"/><path class="b" d="M581.91,136.44a5,5,0,1,0,4,2,5,5,0,0,0-4-2Z"/><path class="b" d="M563.59,130.53a5,5,0,1,0,4,2,5,5,0,0,0-4-2Z"/><path class="b" d="M532.18,123.65a5,5,0,0,0,0,10.06,5,5,0,0,0,0-10.06Z"/><path class="b" d="M512.62,126.29a5,5,0,1,0,4,2,5,5,0,0,0-4-2Z"/><path class="b" d="M482.11,104.34a5,5,0,0,0-3,1,5,5,0,1,0,3-1Z"/><path class="b" d="M499,115.69a5,5,0,1,0,4,2,5,5,0,0,0-4-2Z"/><path class="b" d="M501.24,94.15a5,5,0,1,0,4,2,5,5,0,0,0-4-2Z"/><path class="b" d="M515.67,109.42a5,5,0,0,0-3,1,5,5,0,1,0,3-1Z"/><path class="b" d="M549.8,115.75a5,5,0,1,0,4,2,5,5,0,0,0-4-2Z"/><path class="b" d="M192.21,207.68a5.22,5.22,0,0,0-1.1.12,5,5,0,0,0,1.1,9.94,5.22,5.22,0,0,0,1.1-.12,5,5,0,0,0-1.1-9.94Z"/><path class="b" d="M177.54,199.86a5.22,5.22,0,0,0-1.1.12,5,5,0,0,0,1.1,9.94,5.22,5.22,0,0,0,1.1-.12,5,5,0,0,0-1.1-9.94Z"/><path class="b" d="M167.41,189.54a4.67,4.67,0,0,0-1.11.13,5,5,0,0,0,1.1,9.93,5.22,5.22,0,0,0,1.1-.12,5,5,0,0,0-1.09-9.94Z"/><path class="b" d="M145.86,156.17a5.24,5.24,0,0,0-1.11.12,5,5,0,0,0,1.1,9.94,4.65,4.65,0,0,0,1.1-.13,5,5,0,0,0-1.09-9.93Z"/><path class="b" d="M134.2,144.56a5.24,5.24,0,0,0-1.11.12,5,5,0,0,0,1.1,9.94,5.22,5.22,0,0,0,1.1-.12,5,5,0,0,0-1.09-9.94Z"/><path class="b" d="M167.41,213.25a5.24,5.24,0,0,0-1.11.12,5,5,0,0,0,1.1,9.94,5.22,5.22,0,0,0,1.1-.12,5,5,0,0,0-1.09-9.94Z"/><path class="b" d="M181.81,220a5.24,5.24,0,0,0-1.11.12,5,5,0,0,0,1.1,9.94,5.31,5.31,0,0,0,1.11-.12,5,5,0,0,0-1.1-9.94Z"/><path class="b" d="M168.27,232a5.22,5.22,0,0,0-1.1.12,5,5,0,0,0,1.1,9.94,4.65,4.65,0,0,0,1.1-.13,5,5,0,0,0-1.1-9.93Z"/><path class="b" d="M193.34,232a5.22,5.22,0,0,0-1.1.12,5,5,0,0,0,1.09,9.94,4.67,4.67,0,0,0,1.11-.13,5,5,0,0,0-1.1-9.93Z"/><path class="b" d="M180,241.05a5.22,5.22,0,0,0-1.1.12,5,5,0,0,0,1.1,9.94,5.22,5.22,0,0,0,1.1-.12,5,5,0,0,0-1.1-9.94Z"/><path class="b" d="M181.61,260.29a5.24,5.24,0,0,0-1.11.12,5,5,0,0,0,1.1,9.94,4.65,4.65,0,0,0,1.1-.13,5,5,0,0,0-1.09-9.93Z"/><path class="b" d="M168.27,251.68a5.22,5.22,0,0,0-1.1.12,5,5,0,0,0,1.1,9.94,4.65,4.65,0,0,0,1.1-.13,5,5,0,0,0-1.1-9.93Z"/><path class="b" d="M169.05,270.93a4.67,4.67,0,0,0-1.11.13A5,5,0,0,0,169,281a5.24,5.24,0,0,0,1.11-.12,5,5,0,0,0-1.1-9.94Z"/><path class="b" d="M168.27,288.25a4.65,4.65,0,0,0-1.1.13,5,5,0,0,0,1.1,9.93,5.22,5.22,0,0,0,1.1-.12,5,5,0,0,0-1.1-9.94Z"/><path class="b" d="M149.83,331.56a4.65,4.65,0,0,0-1.1.13,5,5,0,0,0,1.09,9.93,5.24,5.24,0,0,0,1.11-.12,5,5,0,0,0-1.1-9.94Z"/><path class="b" d="M156.38,346.39a4.65,4.65,0,0,0-1.1.13,5,5,0,0,0,1.09,9.93,5.24,5.24,0,0,0,1.11-.12,5,5,0,0,0-1.1-9.94Z"/><path class="b" d="M149.11,359.91a4.65,4.65,0,0,0-1.1.13A5,5,0,0,0,149.1,370a5.24,5.24,0,0,0,1.11-.12,5,5,0,0,0-1.1-9.94Z"/><path class="b" d="M154.32,374.48a5.24,5.24,0,0,0-1.11.12,5,5,0,0,0,1.1,9.94,5.22,5.22,0,0,0,1.1-.12,5,5,0,0,0-1.09-9.94Z"/><path class="b" d="M148.31,390.16a5.24,5.24,0,0,0-1.11.12,5,5,0,0,0,1.1,9.94,5.22,5.22,0,0,0,1.1-.12,5,5,0,0,0-1.09-9.94Z"/><path class="b" d="M156.38,403.18a5.22,5.22,0,0,0-1.1.12,5,5,0,0,0,1.1,9.94,4.65,4.65,0,0,0,1.1-.13,5,5,0,0,0-1.1-9.93Z"/><path class="b" d="M149.1,416.7a5,5,0,1,0,4,2,5,5,0,0,0-4-2Z"/><path class="b" d="M147.17,439.06a5,5,0,1,0,0,10.06,5,5,0,0,0,3-1,5,5,0,0,0-3-9Z"/><path class="b" d="M164,445.68a5.27,5.27,0,0,0-1.51.23,5,5,0,0,0,1.5,9.83,5,5,0,0,0,1.51-.23,5,5,0,0,0-1.5-9.83Z"/><path class="b" d="M172,462a4.88,4.88,0,0,0-1.5.23A5,5,0,0,0,172,472a5.32,5.32,0,0,0,1.51-.23A5,5,0,0,0,172,462Z"/><path class="b" d="M179.05,477.66a5.27,5.27,0,0,0-1.51.23,5,5,0,0,0,1.5,9.83,5,5,0,0,0,1.51-.23,5,5,0,0,0-1.5-9.83Z"/><path class="b" d="M196.84,505.64a4.93,4.93,0,0,0-1.5.23,5,5,0,0,0,1.5,9.83,5.27,5.27,0,0,0,1.51-.23,5,5,0,0,0-1.51-9.83Z"/><path class="b" d="M206,519.58a4.9,4.9,0,0,0-1.5.24,5,5,0,0,0,1.5,9.82,4.88,4.88,0,0,0,1.5-.23,5,5,0,0,0-1.5-9.83Z"/><path class="b" d="M262.18,571a5,5,0,0,0-1.51.24,5,5,0,0,0,1.51,9.82,4.93,4.93,0,0,0,1.5-.23,5,5,0,0,0-1.5-9.83Z"/><path class="b" d="M275.87,580.9a5,5,0,0,0-.33,10h.34a5,5,0,0,0,.34-10Z"/><path class="b" d="M283,598.88a5,5,0,0,0-.34,10H283a5,5,0,0,0,.33-10l-.34,0Z"/><path class="b" d="M293,587.3a5,5,0,0,0-.34,10H293a5,5,0,0,0,.33-10Z"/><path class="b" d="M309.36,595.13a5,5,0,0,0-.34,10l.35,0a5,5,0,0,0,.33-10.05Z"/><path class="b" d="M314.54,611.91A5,5,0,0,0,314.2,622h.35a5,5,0,0,0,.33-10l-.34,0Z"/><path class="b" d="M298,606.9a5,5,0,0,0-.33,10.05H298a5,5,0,0,0,.34-10.05Z"/><path class="b" d="M296.45,624.88a5,5,0,0,0-.33,10l.34,0a5,5,0,0,0,.34-10.05Z"/><path class="b" d="M265.85,614a5,5,0,0,0-.34,10.05h.35a5,5,0,0,0,.33-10.05Z"/><path class="b" d="M267.3,594.2a5,5,0,0,0-.34,10l.35,0a5,5,0,0,0,.33-10Z"/><path class="b" d="M191,614.59a5,5,0,0,0-.34,10H191a5,5,0,0,0,.33-10Z"/><path class="b" d="M279.88,616.59a5,5,0,0,0-.34,10h.35a5,5,0,0,0,.33-10Z"/><path class="b" d="M281,634.51a5,5,0,0,0-.34,10H281a5,5,0,0,0,.33-10.05Z"/><path class="b" d="M290.88,659.34a5,5,0,0,0-.33,10l.34,0a5,5,0,0,0,.34-10Z"/><path class="b" d="M310,634.53a5,5,0,0,0-.34,10H310a5,5,0,0,0,.33-10Z"/><path class="b" d="M295.93,643.47a5,5,0,0,0-.33,10h.34a5,5,0,0,0,.34-10Z"/><path class="b" d="M205.48,605a5,5,0,0,0-.33,10.05h.34a5,5,0,0,0,.34-10l-.35,0Z"/><path class="b" d="M206.24,619.7a5,5,0,0,0-.34,10h.35a5,5,0,0,0,.33-10Z"/><path class="b" d="M225.58,579.54a5,5,0,0,0-.34,10.05h.35a5,5,0,0,0,.33-10.05Z"/><path class="b" d="M248.15,560.45a5,5,0,0,0-.34,10l.35,0a5,5,0,0,0,.33-10Z"/><path class="b" d="M253.51,583.77a5,5,0,0,0-.34,10.05h.35a5,5,0,0,0,.33-10.05Z"/><path class="b" d="M313.51,655.93a5,5,0,0,0-.34,10.05h.35a5,5,0,0,0,.33-10Z"/><path class="b" d="M332.77,661.3a5,5,0,0,0-.33,10.05h.34a5,5,0,0,0,.34-10l-.35,0Z"/><path class="b" d="M350,661.3a5,5,0,0,0-.34,10.05H350a5,5,0,0,0,.33-10l-.34,0Z"/><path class="b" d="M336.85,678.93a5,5,0,0,0-.34,10l.35,0a5,5,0,0,0,.33-10Z"/><path class="b" d="M355.83,675.56a5,5,0,0,0-.34,10l.35,0a5,5,0,0,0,.33-10Z"/><path class="b" d="M314.7,673.85a5,5,0,0,0-.34,10h.35a5,5,0,0,0,.33-10Z"/><path class="b" d="M548.2,559.88a5,5,0,0,0-1.5,9.83,4.88,4.88,0,0,0,1.5.23,5,5,0,0,0,1.51-9.83,5.27,5.27,0,0,0-1.51-.23Z"/><path class="b" d="M595.83,508.88a5,5,0,0,0-1.5,9.83,5,5,0,0,0,1.51.23,5,5,0,0,0,1.5-9.82,5,5,0,0,0-1.51-.24Z"/><path class="b" d="M606.37,492.33a5,5,0,0,0-1.51,9.83,5,5,0,0,0,1.51.23,5,5,0,0,0,1.5-9.83,5.26,5.26,0,0,0-1.5-.23Z"/><path class="b" d="M613.14,507.76a5,5,0,0,0-1.51,9.82,5,5,0,0,0,1.51.24,5,5,0,0,0,1.5-9.83,4.93,4.93,0,0,0-1.5-.23Z"/><path class="b" d="M623.93,493.71a5,5,0,0,0-1.5,9.83,4.88,4.88,0,0,0,1.5.23,5,5,0,0,0,1.51-9.83,5.27,5.27,0,0,0-1.51-.23Z"/><path class="b" d="M616.06,478.51a5,5,0,1,0,1.5.23,5.2,5.2,0,0,0-1.5-.23Z"/><path class="b" d="M624.86,456.14a5,5,0,0,0-1.51,9.83,5,5,0,0,0,1.51.23,5,5,0,0,0,1.5-9.82,5,5,0,0,0-1.5-.24Z"/><path class="b" d="M629.3,471.46a5,5,0,0,0-1.51,9.83,5,5,0,0,0,1.51.23,5,5,0,0,0,1.5-9.83,5.26,5.26,0,0,0-1.5-.23Z"/><path class="b" d="M638,487.38a5,5,0,0,0-1.5,9.83,5,5,0,0,0,1.51.23,5,5,0,0,0,1.5-9.83,5.27,5.27,0,0,0-1.51-.23Z"/><path class="b" d="M633.59,508.38a5,5,0,0,0-1.5,9.83,4.93,4.93,0,0,0,1.5.23,5,5,0,0,0,1.51-9.83,5.27,5.27,0,0,0-1.51-.23Z"/><path class="b" d="M649.61,502a5,5,0,0,0-1.5,9.83,4.93,4.93,0,0,0,1.5.23,5,5,0,0,0,1.51-9.82,5,5,0,0,0-1.51-.24Z"/><path class="b" d="M630.43,439.9a5,5,0,0,0-1.51,9.83,5.27,5.27,0,0,0,1.51.23,5,5,0,0,0,1.5-9.83,4.93,4.93,0,0,0-1.5-.23Z"/><path class="b" d="M638.72,405.06a5,5,0,0,0-1.5,9.83,5,5,0,0,0,1.51.23,5,5,0,0,0,1.5-9.83,5.27,5.27,0,0,0-1.51-.23Z"/><path class="b" d="M639.1,388.13a5,5,0,0,0-.74,10,6.3,6.3,0,0,0,.75.05,5,5,0,0,0,.73-10,4.71,4.71,0,0,0-.74-.06Z"/><path class="b" d="M639.47,370.08a5,5,0,0,0-.73,10,4.71,4.71,0,0,0,.74.06,5,5,0,0,0,.74-10,6.3,6.3,0,0,0-.75-.05Z"/><path class="b" d="M639.73,351.73a5,5,0,0,0-.73,10,4.74,4.74,0,0,0,.75.06,5,5,0,0,0,.73-10,6.3,6.3,0,0,0-.75,0Z"/><path class="b" d="M620.94,279a4.73,4.73,0,0,0-1,.1,5,5,0,0,0,1,10,4.73,4.73,0,0,0,1-.1,5,5,0,0,0-1-10Z"/><path class="b" d="M627,294.84a4.73,4.73,0,0,0-1,.1,5,5,0,0,0,1,10,4.73,4.73,0,0,0,1-.1,5,5,0,0,0-1-10Z"/><path class="b" d="M605.92,245.32a5,5,0,0,0-.74,10,4.74,4.74,0,0,0,.75.06,5,5,0,0,0,.73-10,6.27,6.27,0,0,0-.74-.05Z"/><path class="b" d="M586.73,217.11a5,5,0,1,0,2.68,9.29,5,5,0,0,0-2.68-9.29Z"/><path class="b" d="M595.76,232.34a5,5,0,0,0-4.26,7.7,5.05,5.05,0,0,0,4.27,2.36,5,5,0,1,0,0-10.06Z"/><path class="b" d="M609.56,224.49a5,5,0,1,0,4.36,2.52,5,5,0,0,0-4.36-2.52Z"/><path class="b" d="M601.66,209.54a5.11,5.11,0,0,0-2.51.67,5,5,0,0,0,2.52,9.39,5,5,0,0,0,2.51-.68,5,5,0,0,0-2.52-9.38Z"/><path class="b" d="M633.45,179.83a5.11,5.11,0,0,0-2.51.67,5,5,0,0,0,2.52,9.39,5,5,0,0,0,2.51-.68,5,5,0,0,0-2.52-9.38Z"/><path class="b" d="M654.05,149.41a5,5,0,1,0,3,1,5,5,0,0,0-3-1Z"/><path class="b" d="M641.63,162.39a5,5,0,1,0,3,1,5,5,0,0,0-3-1Z"/><path class="b" d="M652.58,173.74a5,5,0,1,0,3,1,5,5,0,0,0-3-1Z"/><path class="b" d="M651.6,192.25a5,5,0,1,0,3,1,5,5,0,0,0-3-1Z"/><path class="b" d="M680.7,207.29a5,5,0,1,0,3,1,5,5,0,0,0-3-1Z"/><path class="b" d="M692.36,223.14a5,5,0,0,0,0,10.06,5,5,0,0,0,3-9.07,5,5,0,0,0-3-1Z"/><path class="b" d="M700.39,240.42a5,5,0,1,0,3,1,5,5,0,0,0-3-1Z"/><path class="b" d="M655.44,368.69a5,5,0,0,0-.73,10,6.3,6.3,0,0,0,.75.05,5,5,0,0,0,.73-10,4.74,4.74,0,0,0-.75-.06Z"/><path class="b" d="M635,422a5,5,0,0,0-1.5,9.83,5.26,5.26,0,0,0,1.5.23,5,5,0,0,0,1.51-9.83A5,5,0,0,0,635,422Z"/><path class="b" d="M641.36,455.47a5,5,0,0,0-1.51,9.83,5.27,5.27,0,0,0,1.51.23,5,5,0,0,0,1.5-9.83,4.93,4.93,0,0,0-1.5-.23Z"/><path class="b" d="M648.5,473.15A5,5,0,0,0,647,483a5.27,5.27,0,0,0,1.51.23,5,5,0,0,0,1.5-9.83,5,5,0,0,0-1.51-.23Z"/><path class="b" d="M647.1,436.74a5,5,0,0,0-1.5,9.82,4.9,4.9,0,0,0,1.5.24,5,5,0,1,0,0-10.06Z"/><path class="b" d="M653.32,419.31a5,5,0,0,0-1.5,9.83,5,5,0,0,0,1.51.23,5,5,0,0,0,1.5-9.83,5.27,5.27,0,0,0-1.51-.23Z"/><path class="b" d="M654.1,402.31a5,5,0,0,0-.67,10,5.31,5.31,0,0,0,.68.05,5,5,0,0,0,.68-10,4,4,0,0,0-.69-.05Z"/><path class="b" d="M658.28,385.12a5,5,0,0,0-.67,10,5.27,5.27,0,0,0,.68,0,5,5,0,0,0,.68-10,5.47,5.47,0,0,0-.69-.05Z"/><path class="b" d="M671.18,372.83a5,5,0,0,0-.67,10,5.31,5.31,0,0,0,.68.05,5,5,0,0,0,.68-10,5.34,5.34,0,0,0-.69-.05Z"/><path class="b" d="M689.12,373.6a5,5,0,0,0-.67,10,5.34,5.34,0,0,0,.69.05,5,5,0,0,0,.67-10,5.32,5.32,0,0,0-.69,0Z"/><path class="b" d="M670.69,405.25a5,5,0,0,0-.67,10,5.34,5.34,0,0,0,.69.05,5,5,0,0,0,.67-10,4,4,0,0,0-.69-.05Z"/><path class="b" d="M678.61,420.36a5,5,0,0,0-.67,10,5.19,5.19,0,0,0,.68.05,5,5,0,0,0,.67-10,5.31,5.31,0,0,0-.68-.05Z"/><path class="b" d="M676.31,390.53a5,5,0,0,0-.68,10,4,4,0,0,0,.69,0,5,5,0,0,0,.67-10,5.31,5.31,0,0,0-.68-.05Z"/><path class="b" d="M698.46,388.13a5,5,0,0,0-.67,10,5.27,5.27,0,0,0,.68,0,5,5,0,0,0,.68-10,5.34,5.34,0,0,0-.69-.05Z"/><path class="b" d="M699.81,422a5,5,0,0,0-.67,10,5.31,5.31,0,0,0,.68.05,5,5,0,0,0,.68-10,4,4,0,0,0-.69-.05Z"/><path class="b" d="M693.19,455.38a5,5,0,0,0-.67,10,5.27,5.27,0,0,0,.68,0,5,5,0,0,0,.68-10,5.32,5.32,0,0,0-.69,0Z"/><path class="b" d="M690.93,476.44a5,5,0,0,0-.67,10,5.34,5.34,0,0,0,.69.05,5,5,0,0,0,.67-10,5.34,5.34,0,0,0-.69-.05Z"/><path class="b" d="M690.33,404.59a5,5,0,0,0-.68,10,5.34,5.34,0,0,0,.69,0,5,5,0,0,0,.67-10,4,4,0,0,0-.68-.05Z"/><path class="b" d="M708.31,373.09a5,5,0,0,0-.67,10,5.31,5.31,0,0,0,.68,0,5,5,0,0,0,.68-10,5.32,5.32,0,0,0-.69,0Z"/><path class="b" d="M709.32,405.33a5,5,0,0,0-.67,10,5.32,5.32,0,0,0,.69,0,5,5,0,0,0,.67-10,5.32,5.32,0,0,0-.69,0Z"/><path class="b" d="M706.71,439.61a5,5,0,0,0-.67,10,5.31,5.31,0,0,0,.68.05,5,5,0,0,0,.68-10,5.34,5.34,0,0,0-.69-.05Z"/><path class="b" d="M689.24,435.27a5,5,0,0,0-.68,10,5.32,5.32,0,0,0,.69,0,5,5,0,0,0,.67-10,5.31,5.31,0,0,0-.68-.05Z"/><path class="b" d="M677.43,494.45a5,5,0,0,0-.67,10,5.27,5.27,0,0,0,.68,0,5,5,0,0,0,.68-10,5.32,5.32,0,0,0-.69,0Z"/><path class="b" d="M665.05,433.62a5,5,0,0,0-.67,10,5.31,5.31,0,0,0,.68.05,5,5,0,0,0,.68-10,5.34,5.34,0,0,0-.69-.05Z"/><path class="b" d="M659.38,454.47a5,5,0,0,0-.67,10,5.32,5.32,0,0,0,.69,0,5,5,0,0,0,.67-10,5.34,5.34,0,0,0-.69,0Z"/><path class="b" d="M660.2,486a5,5,0,0,0-.67,10,5.32,5.32,0,0,0,.69,0,5,5,0,0,0,.67-10,5.32,5.32,0,0,0-.69,0Z"/><path class="b" d="M673.9,471a5,5,0,0,0-.67,10,5.19,5.19,0,0,0,.68.05,5,5,0,0,0,.67-10,4,4,0,0,0-.68,0Z"/><path class="b" d="M676.8,451.07a5,5,0,0,0-.67,10,5.34,5.34,0,0,0,.69.05,5,5,0,0,0,.67-10,4,4,0,0,0-.69-.05Z"/><path class="b" d="M667.28,514.63a5,5,0,0,0-.68,10,5.34,5.34,0,0,0,.69.05,5,5,0,0,0,.67-10,4,4,0,0,0-.68,0Z"/><path class="b" d="M535.18,569.92a5,5,0,0,0-1.5,9.82,5,5,0,0,0,1.51.24,5,5,0,0,0,1.5-9.83,5,5,0,0,0-1.51-.23Z"/><path class="b" d="M559.22,573.36a5,5,0,0,0-1.5,9.83,4.93,4.93,0,0,0,1.5.23,5,5,0,0,0,1.51-9.83,5,5,0,0,0-1.51-.23Z"/><path class="b" d="M546.24,585.36a5,5,0,0,0-1.5,9.83,4.93,4.93,0,0,0,1.5.23,5,5,0,0,0,1.51-9.83,5.27,5.27,0,0,0-1.51-.23Z"/><path class="b" d="M524.92,584.45l-.34,0a5,5,0,0,0,.33,10h.35a5,5,0,0,0-.34-10Z"/><path class="b" d="M508.11,586h-.35a5,5,0,0,0,.34,10h.34a5,5,0,0,0-.33-10Z"/><path class="b" d="M500.15,602.25h-.34a5,5,0,0,0,.33,10h.35a5,5,0,0,0-.34-10Z"/><path class="b" d="M484.62,595.13h-.34a5,5,0,0,0,.33,10.05l.35,0a5,5,0,0,0-.34-10Z"/><path class="b" d="M479.44,611.91l-.34,0a5,5,0,0,0,.33,10h.35a5,5,0,0,0-.34-10.05Z"/><path class="b" d="M493.72,618.18l-.35,0a5,5,0,0,0,.34,10h.34a5,5,0,0,0-.33-10.05Z"/><path class="b" d="M517.67,600.83h-.34a5,5,0,0,0,.33,10H518a5,5,0,0,0-.34-10Z"/><path class="b" d="M536.41,599.36h-.35a5,5,0,0,0,.33,10h.35a5,5,0,0,0-.33-10Z"/><path class="b" d="M568.1,591.24h-.34a5,5,0,0,0,.33,10h.35a5,5,0,0,0-.34-10Z"/><path class="b" d="M551,608.39h-.34a5,5,0,0,0,.33,10.05h.35a5,5,0,0,0-.34-10.05Z"/><path class="b" d="M567.34,610.67H567a5,5,0,0,0,.33,10.05l.35,0a5,5,0,0,0-.34-10Z"/><path class="b" d="M531.14,618.29h-.34a5,5,0,0,0,.33,10.05h.35a5,5,0,0,0-.34-10.05Z"/><path class="b" d="M511.84,616.59h-.34a5,5,0,0,0,.33,10h.35a5,5,0,0,0-.34-10Z"/><path class="b" d="M511.84,635.36h-.34a5,5,0,0,0,.33,10l.35,0a5,5,0,0,0-.34-10Z"/><path class="b" d="M480.65,633.4h-.35a5,5,0,0,0,.34,10.05l.34,0a5,5,0,0,0-.33-10Z"/><path class="b" d="M494.66,644.6h-.35a5,5,0,0,0,.34,10H495a5,5,0,0,0-.33-10Z"/><path class="b" d="M528.79,638.28l-.34,0a5,5,0,0,0,.33,10h.35a5,5,0,0,0-.34-10.05Z"/><path class="b" d="M544.28,627.52h-.35a5,5,0,0,0,.34,10.05h.34a5,5,0,0,0-.33-10.05Z"/><path class="b" d="M561.73,629.81h-.35a5,5,0,0,0,.34,10h.34a5,5,0,0,0-.33-10.05Z"/><path class="b" d="M544.28,647h-.35a5,5,0,0,0,.34,10h.34a5,5,0,0,0-.33-10Z"/><path class="b" d="M512.54,654.72h-.34a5,5,0,0,0,.33,10h.35a5,5,0,0,0-.34-10Z"/><path class="b" d="M479.34,655.93H479a5,5,0,0,0,.33,10h.35a5,5,0,0,0-.34-10.05Z"/><path class="b" d="M457.82,662.43l-.35,0a5,5,0,0,0,.34,10h.34a5,5,0,0,0-.33-10.05Z"/><path class="b" d="M473,671.67h-.35a5,5,0,0,0,.34,10.05l.34,0a5,5,0,0,0-.33-10Z"/><path class="b" d="M437.21,661.3l-.34,0a5,5,0,0,0,.33,10h.35a5,5,0,0,0-.34-10.05Z"/><path class="b" d="M441.54,680.07h-.35a5,5,0,0,0,.34,10h.34a5,5,0,0,0-.33-10Z"/><path class="b" d="M498.32,666l-.35,0a5,5,0,0,0,.34,10h.34a5,5,0,0,0-.33-10.05Z"/><path class="b" d="M196.84,531.72a5.26,5.26,0,0,0-1.5.23,5,5,0,0,0,1.5,9.83,5,5,0,0,0,1.51-.23,5,5,0,0,0-1.51-9.83Z"/><path class="b" d="M182.76,517a5.27,5.27,0,0,0-1.51.23,5,5,0,0,0,1.5,9.83,5,5,0,0,0,1.51-.23,5,5,0,0,0-1.5-9.83Z"/><path class="b" d="M176.78,541.56a5,5,0,0,0-1.51.23,5,5,0,0,0,1.5,9.83,5.27,5.27,0,0,0,1.51-.23,5,5,0,0,0-1.5-9.83Z"/><path class="b" d="M182.9,496.61a5.26,5.26,0,0,0-1.5.23,5,5,0,0,0,1.5,9.83,5,5,0,0,0,1.51-.23,5,5,0,0,0-1.51-9.83Z"/><path class="b" d="M169.05,492.38a5,5,0,0,0-1.51.23,5,5,0,0,0,1.5,9.83,5.27,5.27,0,0,0,1.51-.23,5,5,0,0,0-1.5-9.83Z"/><path class="b" d="M161.41,508.18a4.88,4.88,0,0,0-1.5.23,5,5,0,0,0,1.5,9.83,4.9,4.9,0,0,0,1.5-.24,5,5,0,0,0-1.5-9.82Z"/><path class="b" d="M168.64,527.57a5,5,0,0,0-1.51.23,5,5,0,0,0,1.5,9.83,5.27,5.27,0,0,0,1.51-.23,5,5,0,0,0-1.5-9.83Z"/><path class="b" d="M156.43,541.17a5,5,0,0,0-1.51.23,5,5,0,0,0,1.5,9.83,5.27,5.27,0,0,0,1.51-.23,5,5,0,0,0-1.5-9.83Z"/><path class="b" d="M149.1,518.41a5,5,0,0,0-.35,10.05h.36a5,5,0,0,0,.35-10l-.36,0Z"/><path class="b" d="M137.79,530.69a5,5,0,0,0-.35,10l.36,0a5,5,0,0,0,.35-10Z"/><path class="b" d="M155.85,562.68a5,5,0,0,0-.35,10l.36,0a5,5,0,0,0,.34-10Z"/><path class="b" d="M139.38,550.89a5,5,0,0,0-.35,10h.36a5,5,0,0,0,.35-10Z"/><path class="b" d="M162.52,475.48a4.93,4.93,0,0,0-1.5.23,5,5,0,0,0,1.5,9.83,5.27,5.27,0,0,0,1.51-.23,5,5,0,0,0-1.51-9.83Z"/><path class="b" d="M152.21,490.7a5,5,0,0,0,0,10.06,5.2,5.2,0,0,0,1.5-.23,5,5,0,0,0-1.5-9.83Z"/><path class="b" d="M145.42,474a5.2,5.2,0,0,0-1.5.23,5,5,0,0,0,1.5,9.83,5,5,0,0,0,1.51-.23,5,5,0,0,0-1.51-9.83Z"/><path class="b" d="M153.11,459.91a4.93,4.93,0,0,0-1.5.23,5,5,0,0,0,1.5,9.83,5,5,0,0,0,1.51-.24,5,5,0,0,0-1.51-9.82Z"/><path class="b" d="M135.54,454.79A5,5,0,0,0,134,455a5,5,0,0,0,1.51,9.83,5,5,0,0,0,1.5-.24,5,5,0,0,0-1.5-9.82Z"/><path class="b" d="M128.39,440.16a5,5,0,0,0-1.51.23,5,5,0,0,0,1.51,9.83,5.26,5.26,0,0,0,1.5-.23,5,5,0,0,0-1.5-9.83Z"/><path class="b" d="M117.21,425.55a4.93,4.93,0,0,0-1.5.23,5,5,0,0,0,1.5,9.83,5,5,0,0,0,1.51-.24,5,5,0,0,0-1.51-9.82Z"/><path class="b" d="M87.17,427a5.27,5.27,0,0,0-1.51.23,5,5,0,0,0,1.51,9.83,4.93,4.93,0,0,0,1.5-.23,5,5,0,0,0-1.5-9.83Z"/><path class="b" d="M127.05,481.33a5,5,0,0,0-1.51.23,5,5,0,0,0,1.51,9.83,4.93,4.93,0,0,0,1.5-.23,5,5,0,0,0-1.5-9.83Z"/><path class="b" d="M137.34,502.32a5,5,0,0,0-1.51.23,5,5,0,0,0,1.51,9.83,5.26,5.26,0,0,0,1.5-.23,5,5,0,0,0-1.5-9.83Z"/><path class="b" d="M115.56,500.74a5,5,0,0,0-1.51.24,5,5,0,0,0,1.5,9.82,5,5,0,0,0,1.51-.23,5,5,0,0,0-1.5-9.83Z"/><path class="b" d="M124,516.67a5.2,5.2,0,0,0-1.5.23,5,5,0,0,0,1.5,9.83,4.88,4.88,0,0,0,1.5-.23,5,5,0,0,0-1.5-9.83Z"/><path class="b" d="M135.9,426.66a5,5,0,1,0,4,2,5,5,0,0,0-4-2Z"/><path class="b" d="M159.79,427.29a5,5,0,1,0,3.9,1.85,5,5,0,0,0-3.9-1.85Z"/><polyline class="a" points="582.84 700.87 559.01 664.42 582.84 664.42"/><polyline class="a" points="647.9 526.25 671.24 563.01 647.41 562.69"/><polyline class="a" points="582.84 587.29 582.84 526.25 647.14 526.25 647.14 700.87 582.84 700.87 582.84 587.29"/><line class="a" x1="600.86" y1="558.39" x2="611.4" y2="567.8"/><path class="a" d="M627,560.05s-1.22,23.7-22,28.22"/><polyline class="a" points="622.92 604.31 622.92 615.03 604.96 615.03 622.92 633.65"/><polyline class="a" points="604.96 654.25 626.13 654.25 609.57 675.09"/><circle class="a" cx="396.99" cy="404.29" r="50.94"/><path class="a" d="M389.8,329.23a13.93,13.93,0,0,1-27.86,0c0-7.7,6.24-30.86,13.93-30.86S389.8,321.53,389.8,329.23Z"/><path class="a" d="M353.83,352.15a13.93,13.93,0,0,1-27.86,0c0-7.69,6.24-30.86,13.93-30.86S353.83,344.46,353.83,352.15Z"/><path class="a" d="M404.18,329.23a13.93,13.93,0,0,0,27.86,0c0-7.7-6.24-30.86-13.93-30.86S404.18,321.53,404.18,329.23Z"/><path class="a" d="M440.15,352.15a13.93,13.93,0,1,0,27.86,0c0-7.69-6.24-30.86-13.93-30.86S440.15,344.46,440.15,352.15Z"/><path class="a" d="M577.62,355.26v4.44a9.67,9.67,0,0,1-9.66,9.67h-22.1a6.88,6.88,0,0,0-6.89,6.88h0a6.88,6.88,0,0,0,6.89,6.89h47.56a6.77,6.77,0,0,1,6.77,6.77h0a6.77,6.77,0,0,1-6.77,6.77H575.91a8.73,8.73,0,0,0-8.73,8.73v7.28"/><circle class="a" cx="573" cy="345.84" r="9.41"/><path class="a" d="M243.93,352.05a12.93,12.93,0,0,1,12.89,12.89h0a12.93,12.93,0,0,1-12.89,12.89H201.31a12.93,12.93,0,0,1-12.89-12.89h0a12.93,12.93,0,0,1,12.89-12.89"/><polyline class="a" points="201.31 377.83 222.62 406.89 243.93 377.83"/><path class="a" d="M360.47,572.15l27.61-27.61a8.11,8.11,0,0,1,11.49,0l33.85,33.84"/><line class="a" x1="382.99" y1="549.63" x2="412.31" y2="578.95"/><line class="a" x1="373.66" y1="562.82" x2="389.79" y2="578.95"/><path class="a" d="M375.39,158.56h36.66a8,8,0,0,1,7.92,7.12c1.28,12.36-.29,38.1-30.69,55.23C389.28,220.91,397.83,181.72,375.39,158.56Z"/><path class="a" d="M277,667.27a39.51,39.51,0,0,0-39.2-39.8C216,627.31,199.54,645,198,666.67c0,0-7.58,40.12,48.67,76.93l9.54-8.07s-11.24-13.46-11.12-21.66A11.78,11.78,0,0,1,252,703.39C260.45,699.54,276.79,689.27,277,667.27Z"/><circle class="a" cx="237.46" cy="666.97" r="21.64"/><circle class="a" cx="237.76" cy="611.15" r="16.33"/><line class="a" x1="237.76" y1="551.49" x2="237.76" y2="611.43"/><path class="a" d="M441.92,428.3c-23.5,24.35-54.54,15.24-67.6,2.07s-14.19-40.07,2.18-51.6c13.09-9.22,36.67-9.37,45.89,3.72,7.38,10.47,9.58,31.86-4.51,40-12.37,7.16-26.55,2.79-32.45-5.59-4.72-6.7-3.11-20.36,3.59-25.08,5.36-3.77,15-2.49,18.75,2.88,3,4.29,2,12.41-2.3,15.43a6.92,6.92,0,0,1-10.59-2.94"/><line class="a" x1="288.98" y1="320.43" x2="226.2" y2="288.86"/><line class="a" x1="295.03" y1="309.78" x2="264.8" y2="290.53"/><line class="a" x1="283.89" y1="332.05" x2="267.37" y2="325.82"/><line class="a" x1="505" y1="320.43" x2="567.78" y2="288.86"/><line class="a" x1="498.95" y1="309.78" x2="529.17" y2="290.53"/><line class="a" x1="510.09" y1="332.05" x2="526.6" y2="325.82"/><line class="a" x1="288.98" y1="429.03" x2="226.2" y2="460.6"/><line class="a" x1="295.03" y1="439.68" x2="264.8" y2="458.93"/><line class="a" x1="283.89" y1="417.41" x2="267.37" y2="423.65"/><line class="a" x1="505" y1="429.03" x2="567.78" y2="460.6"/><line class="a" x1="498.95" y1="439.68" x2="529.17" y2="458.93"/><line class="a" x1="510.09" y1="417.41" x2="526.6" y2="423.65"/><path class="a" d="M567.15,221.9a228.71,228.71,0,0,1,0,305.66"/><path class="a" d="M467.57,157.11a228.35,228.35,0,0,1,82.25,47.46"/><path class="a" d="M244.16,204.57a228.35,228.35,0,0,1,82.25-47.46"/><path class="a" d="M601.17,419.24a208.39,208.39,0,0,1-47.42,93.62"/><path class="a" d="M553.73,236.58a208.25,208.25,0,0,1,47.44,93.63"/><path class="a" d="M467.57,178a208.67,208.67,0,0,1,67.56,40"/><path class="a" d="M258.84,218a208.57,208.57,0,0,1,67.57-40"/><path class="a" d="M636,278.59a32.37,32.37,0,0,1-9.83-48"/><path class="a" d="M646.55,218.41a32.37,32.37,0,0,1,37.56,31.43"/><path class="a" d="M582.84,587.29c-7-12.79-18.21-27.59-32.49-41.87-16-15.95-32.55-28.13-46.27-34.75l28.85-28.85c6.62,13.72,18.79,30.32,34.74,46.27,5,5,10.12,9.68,15.17,13.9"/><path class="a" d="M647.14,607.68c16,16,32.54,28.13,46.26,34.75l-28.84,28.85a149.19,149.19,0,0,0-17.42-26.9"/><path class="a" d="M410.81,667.09c7.91.75,11.77,10.37,9.23,17.26-3.32,9-16.16,12-24.42,13.67-10.28,1.9-27.13,6.61-25.08,20.37h49.93c2-13.76-5.84-20.57-16.13-22.47"/><path class="a" d="M367.72,728.32A31.71,31.71,0,0,0,377.91,752h33.86A31.71,31.71,0,0,0,422,728.32a33.44,33.44,0,0,0-1.49-9.9H369.21A33.44,33.44,0,0,0,367.72,728.32Z"/><path class="a" d="M420.8,652a10.37,10.37,0,0,1-.76,5.24c-3.32,9-16.16,12-24.42,13.67-10.28,1.9-27.13,6.61-25.08,20.38.75,5.06,4.6,10,9.9,10.55"/><path class="a" d="M375.06,652a12.94,12.94,0,0,0-4.52,12.18c.75,5.05,4.6,10,9.9,10.54"/><line class="a" x1="103.55" y1="476.24" x2="103.55" y2="493.38"/><line class="a" x1="103.55" y1="417.22" x2="103.55" y2="446.86"/><polyline class="a" points="135.7 319.8 135.7 417.22 71.4 417.22 71.4 275.56 90.01 275.56"/><line class="a" x1="90.01" y1="319.8" x2="71.4" y2="275.57"/><polyline class="a" points="467.57 472.77 467.57 651.99 326.41 651.99 326.41 472.77"/><polyline class="a" points="326.41 276.69 326.41 82.8 467.57 82.8 467.57 276.69"/><path class="a" d="M303.31,298.47c-14.7-14-29.69-24.76-42.26-30.83l28.85-28.85c6.07,12.58,16.8,27.57,30.83,42.26"/><path class="a" d="M320.73,468.41c-14,14.69-24.76,29.68-30.83,42.26l-28.85-28.85c12.58-6.07,27.57-16.8,42.26-30.83"/><path class="a" d="M490.67,451c14.7,14,29.68,24.77,42.26,30.83l-28.85,28.85c-6.07-12.57-16.8-27.56-30.83-42.26"/><path class="a" d="M535.14,531.48a208.82,208.82,0,0,1-67.57,40"/><path class="a" d="M549.82,544.89a228.3,228.3,0,0,1-82.18,47.44"/><path class="a" d="M192.81,330.22a208.37,208.37,0,0,1,47.43-93.64"/><path class="a" d="M240.28,512.92a208.31,208.31,0,0,1-47.47-93.66"/><path class="a" d="M326.41,571.44a208.67,208.67,0,0,1-66.28-38.84"/><path class="a" d="M226.47,527.17a228.72,228.72,0,0,1,.36-305.27"/><path class="a" d="M326.41,592.35a228.48,228.48,0,0,1-82.26-47.46"/></svg>