<?xml version="1.0" encoding="utf-8"?>
<svg viewBox="111.65 29.118 262.377 438.403" xmlns="http://www.w3.org/2000/svg">
  <path d="M2348 8316 c-20 -7 -94 -61 -165 -120 -70 -58 -209 -173 -308 -254 -99 -82 -227 -192 -284 -245 -127 -118 -171 -141 -266 -141 -109 0 -159 29 -439 257 -32 27 -60 47 -62 45 -9 -10 -27 -263 -33 -488 -8 -236 -10 -261 -34 -335 -34 -102 -67 -158 -204 -331 -141 -181 -543 -742 -543 -759 0 -2 25 -12 55 -20 169 -50 399 -161 516 -251 123 -94 235 -247 279 -379 25 -76 50 -222 50 -291 0 -49 -2 -54 -26 -60 -14 -4 -76 -4 -138 -1 -192 9 -329 70 -602 267 -70 50 -128 89 -130 87 -5 -5 54 -209 105 -366 75 -225 212 -479 346 -641 90 -108 268 -273 278 -259 115 161 193 241 274 280 62 31 170 33 222 5 83 -44 184 -186 257 -358 20 -46 46 -108 59 -138 13 -30 39 -107 59 -170 19 -63 46 -151 59 -195 46 -150 51 -187 38 -256 -24 -119 -76 -192 -148 -205 -72 -13 -308 49 -396 106 -34 21 -63 37 -65 35 -14 -13 137 -445 222 -640 104 -236 246 -488 379 -675 51 -71 140 -184 244 -309 l21 -26 11 25 c6 14 31 81 57 150 160 437 216 698 199 925 -26 337 -157 1022 -254 1320 -67 206 -195 463 -346 695 -231 354 -314 529 -367 772 -19 89 -22 132 -22 318 0 208 1 219 31 331 87 327 299 619 593 816 198 133 471 245 553 228 56 -13 336 -143 439 -205 137 -83 238 -162 334 -261 187 -194 278 -378 345 -694 20 -93 23 -139 23 -300 0 -170 -3 -204 -28 -319 -38 -177 -75 -285 -150 -440 -59 -120 -101 -189 -262 -421 -78 -113 -113 -175 -167 -295 -86 -196 -110 -328 -127 -695 -6 -137 -15 -329 -20 -425 -5 -96 -16 -346 -24 -555 -9 -209 -20 -488 -25 -620 -6 -132 -18 -501 -27 -820 l-17 -580 21 -203 c12 -112 24 -207 27 -213 4 -5 17 -9 30 -9 20 0 26 8 39 53 31 109 79 323 151 672 58 279 57 278 145 548 80 245 206 477 363 664 43 50 77 94 77 97 0 3 -8 6 -17 6 -28 0 -185 50 -233 75 -218 111 -299 314 -270 682 20 261 84 540 174 760 61 151 63 154 135 288 134 250 269 428 347 461 83 35 179 0 268 -97 30 -33 103 -132 161 -220 l106 -162 47 69 c189 282 395 658 519 949 63 146 189 503 180 511 -4 5 -81 -53 -252 -190 -201 -160 -348 -245 -483 -281 -76 -19 -190 -29 -237 -21 l-38 7 6 107 c12 200 77 387 189 536 112 149 313 306 542 422 61 31 112 58 114 59 6 5 -435 594 -573 764 -103 128 -137 191 -170 312 -20 77 -25 116 -25 219 0 69 -9 216 -21 327 l-22 203 -36 -21 c-20 -12 -76 -45 -126 -74 -49 -28 -115 -68 -145 -87 -173 -109 -283 -96 -453 56 -119 105 -259 215 -511 401 -316 233 -325 237 -398 211z" style="fill: rgb(140, 22, 22);" transform="matrix(0.052713, 0, 0, -0.052713, 111.123032, 468.047607)"/>
  <path d="M2273 6123 c-385 -424 -403 -449 -403 -542 0 -40 3 -44 177 -341 387 -660 401 -682 415 -674 5 3 29 45 52 93 24 47 136 269 249 492 189 370 207 411 207 457 0 75 -18 100 -374 522 -77 91 -142 169 -146 173 -4 4 -84 -77 -177 -180z" style="fill: rgb(140, 22, 22);" transform="matrix(0.052713, 0, 0, -0.052713, 111.123032, 468.047607)"/>
</svg>