<?xml version="1.0" encoding="utf-8"?>
<svg viewBox="66.131 20.558 361.891 454.935" xmlns="http://www.w3.org/2000/svg">
  <g transform="matrix(0.01587, 0, 0, -0.01587, 65.93599, 475.563245)" fill="#000000" stroke="none" style="">
    <path d="M11266 28649 c-16 -12 -61 -92 -116 -202 -187 -380 -380 -638 -621 -831 -174 -139 -256 -171 -434 -170 -139 0 -146 2 -455 149 -287 136 -448 189 -670 220 -138 19 -205 19 -312 0 -209 -36 -472 -165 -428 -209 6 -6 89 -10 212 -10 l203 -1 120 -49 c168 -68 231 -101 300 -157 60 -49 133 -133 172 -199 53 -89 70 -256 34 -335 -40 -90 -211 -203 -361 -238 -90 -22 -320 -54 -470 -66 -69 -6 -334 -18 -590 -26 -761 -26 -1227 -58 -1435 -100 -284 -57 -465 -122 -825 -295 -380 -183 -555 -295 -702 -447 -75 -78 -92 -118 -62 -140 35 -27 116 -7 358 88 497 196 605 222 926 222 189 1 212 -1 300 -25 173 -47 272 -105 309 -180 28 -59 29 -165 1 -226 -24 -53 -108 -135 -185 -181 -101 -61 -154 -74 -315 -79 l-145 -4 -235 58 c-233 57 -236 58 -380 57 -98 0 -171 -6 -225 -17 -103 -23 -208 -58 -212 -72 -2 -7 19 -13 57 -17 96 -8 250 -91 250 -134 0 -23 -33 -30 -160 -36 -161 -8 -230 -25 -365 -93 -158 -79 -215 -120 -246 -177 -14 -27 -55 -79 -91 -115 -117 -120 -123 -144 -50 -197 32 -23 70 -40 121 -51 115 -26 216 -15 481 51 244 61 306 66 384 29 79 -38 112 -184 64 -283 -36 -73 -143 -173 -229 -214 -195 -93 -370 -122 -679 -114 -225 6 -288 14 -700 91 -278 52 -372 61 -610 60 -423 -1 -723 -75 -972 -240 -168 -112 -314 -294 -383 -479 -43 -114 -28 -175 44 -175 43 0 78 16 219 99 67 40 156 88 198 107 276 128 930 104 1492 -55 197 -56 463 -109 603 -121 144 -13 359 1 470 29 147 38 324 119 458 211 139 94 483 423 561 535 50 74 101 175 135 270 35 95 82 116 161 70 119 -70 354 -115 519 -99 80 8 217 45 278 75 106 53 326 247 401 353 58 81 108 183 139 282 28 90 57 313 57 445 0 102 15 135 97 217 53 52 87 74 206 132 311 151 578 251 787 294 237 48 356 59 635 59 409 0 549 -23 763 -123 181 -86 278 -158 457 -342 88 -90 187 -199 220 -242 93 -123 145 -176 170 -176 42 0 48 22 42 138 -7 123 -40 273 -91 417 -78 223 -106 394 -106 659 0 472 57 770 210 1106 135 295 232 590 271 820 7 41 14 66 17 55 55 -283 137 -523 291 -854 171 -365 217 -560 241 -1026 15 -297 -8 -492 -90 -749 -76 -242 -110 -519 -67 -551 38 -27 70 0 183 156 123 169 337 394 466 489 145 108 366 207 521 234 230 40 726 46 947 11 271 -42 372 -70 655 -182 451 -178 585 -275 585 -424 0 -69 27 -304 45 -390 29 -144 117 -315 218 -425 68 -74 218 -202 294 -251 29 -18 94 -47 145 -65 165 -56 418 -51 592 13 44 16 96 40 116 53 19 13 45 26 57 30 35 11 81 -19 103 -67 73 -163 95 -206 141 -273 87 -125 431 -442 594 -547 157 -100 367 -186 506 -206 290 -41 544 -12 962 110 220 64 271 77 432 108 289 57 619 82 810 62 226 -24 240 -29 627 -233 97 -51 168 -35 168 38 0 103 -132 326 -272 461 -117 111 -310 218 -483 267 -224 63 -583 90 -842 62 -173 -18 -207 -24 -578 -100 -326 -66 -460 -80 -717 -74 -174 5 -204 8 -311 36 -65 17 -152 48 -194 68 -133 66 -253 210 -253 304 0 57 27 133 57 162 68 63 150 63 416 1 184 -43 214 -47 332 -47 145 -1 188 8 258 55 81 54 73 90 -48 209 -36 36 -78 87 -92 113 -23 42 -40 55 -127 104 -124 70 -247 121 -323 134 -32 5 -116 13 -188 17 -129 7 -130 7 -130 31 0 47 173 140 262 141 48 0 48 16 1 34 -79 29 -162 46 -280 58 -156 15 -248 3 -508 -68 -170 -46 -224 -56 -315 -61 -150 -7 -241 8 -340 56 -185 91 -275 227 -244 370 17 82 55 123 161 175 146 72 220 88 445 93 352 9 407 -3 1085 -251 127 -46 186 -54 216 -29 20 16 22 22 13 46 -30 78 -242 248 -461 369 -133 74 -610 282 -750 328 -159 53 -326 93 -477 115 -206 29 -718 50 -1488 60 -803 11 -1037 49 -1232 203 -72 58 -98 115 -97 217 0 146 52 253 186 385 73 73 144 115 331 194 128 55 232 70 402 61 62 -3 116 -2 124 3 37 26 -66 100 -209 150 -195 68 -355 81 -560 44 -228 -42 -377 -97 -693 -257 -237 -119 -285 -135 -403 -135 -152 0 -225 23 -359 113 -271 182 -507 469 -706 860 -74 145 -131 227 -156 227 -6 0 -22 -9 -37 -21z" style="fill: rgb(212, 175, 55);"/>
    <path d="M11704 24024 c-43 -64 -46 -105 -56 -734 l-9 -605 -25 -53 c-31 -64 -66 -91 -168 -132 l-78 -31 -86 33 c-99 37 -151 81 -175 149 -13 35 -20 158 -37 624 -21 608 -29 685 -71 740 -11 14 -28 25 -38 25 -22 0 -308 -369 -372 -481 -108 -187 -128 -331 -110 -794 16 -439 16 -451 -14 -480 -15 -16 -36 -25 -55 -25 -18 0 -125 44 -263 109 -279 131 -350 161 -377 161 -16 0 -27 -13 -42 -47 l-21 -48 14 -425 c17 -488 11 -458 120 -574 74 -80 299 -233 714 -486 165 -101 420 -259 567 -351 l267 -169 263 173 c145 96 346 227 448 292 535 341 763 503 836 593 84 103 81 85 89 547 8 433 5 475 -36 516 -14 14 -27 18 -42 14 -12 -4 -150 -69 -307 -146 -157 -77 -297 -139 -311 -139 -15 0 -37 9 -50 19 l-24 19 -6 469 c-7 527 -11 560 -79 701 -51 107 -74 140 -258 370 -101 125 -161 192 -173 192 -10 0 -26 -12 -35 -26z" style="fill: rgb(212, 175, 55);"/>
    <path d="M19765 23285 c-136 -24 -292 -101 -359 -176 -21 -22 -56 -79 -78 -125 -61 -126 -67 -130 -235 -136 -214 -9 -302 -45 -475 -192 -98 -83 -123 -132 -123 -238 0 -85 17 -121 69 -146 40 -20 163 -17 303 6 112 19 127 20 178 7 137 -36 228 -107 551 -430 332 -332 534 -564 824 -950 302 -403 647 -905 702 -1022 23 -48 31 -81 32 -125 1 -53 -2 -62 -26 -83 -14 -12 -47 -26 -73 -29 -107 -16 -205 -81 -311 -205 -73 -85 -98 -149 -110 -277 -9 -95 -24 -114 -91 -114 -51 0 -63 6 -408 193 -259 140 -396 176 -618 163 -118 -7 -177 -25 -207 -64 -26 -32 -25 -64 2 -119 23 -45 62 -85 268 -270 227 -203 676 -671 813 -848 199 -257 278 -405 437 -815 119 -309 175 -515 200 -743 13 -113 2 -275 -56 -822 -55 -522 -102 -801 -165 -982 -39 -110 -132 -307 -197 -415 -153 -255 -198 -385 -267 -766 -32 -177 -57 -247 -97 -272 -71 -43 -166 -28 -186 29 -6 18 -3 78 9 186 39 338 36 472 -14 547 -40 60 -146 93 -220 69 -19 -7 -61 -35 -93 -63 -94 -82 -87 -81 -439 -82 -412 -2 -474 -16 -683 -152 -176 -114 -463 -393 -623 -607 -161 -213 -159 -231 21 -166 189 67 334 82 576 59 278 -27 521 -131 692 -298 48 -46 106 -122 188 -247 143 -218 202 -329 288 -542 119 -297 196 -424 340 -561 85 -81 148 -116 287 -160 198 -64 349 -64 543 -2 107 35 174 78 260 166 114 117 160 218 197 432 54 319 -11 494 -240 644 -81 53 -166 83 -281 100 -41 6 -81 16 -88 22 -24 18 -6 69 101 288 162 328 319 742 587 1548 274 820 397 1231 491 1640 95 411 149 749 149 939 0 119 19 177 68 202 57 28 101 71 126 121 39 78 36 164 -9 309 -76 240 -111 497 -74 534 15 16 23 11 100 -60 145 -132 319 -255 360 -255 26 0 67 54 83 111 39 129 62 391 46 509 -24 180 -53 236 -360 705 -387 592 -425 663 -556 1050 l-58 170 3 271 c3 299 0 318 -58 366 -35 30 -126 54 -165 44 -64 -16 -104 -76 -121 -183 -11 -67 -56 -53 -148 47 -71 76 -111 135 -222 325 -103 177 -215 349 -294 454 -32 42 -85 112 -119 157 -33 44 -79 114 -101 155 -37 67 -41 81 -41 148 0 40 10 114 21 164 39 165 15 314 -78 475 -124 215 -268 338 -453 387 -66 18 -199 18 -295 0z" style="fill: rgb(212, 175, 55);"/>
    <path d="M2675 23099 c-77 -19 -202 -89 -270 -151 -82 -75 -193 -240 -236 -352 -27 -69 -33 -98 -37 -191 -4 -93 -1 -123 18 -190 13 -47 23 -111 24 -156 1 -70 -3 -83 -37 -150 -21 -41 -69 -117 -107 -169 -175 -239 -255 -365 -400 -625 -46 -82 -100 -176 -122 -207 -77 -115 -197 -225 -218 -201 -4 4 -13 35 -20 68 -16 79 -34 112 -73 135 -58 36 -166 20 -218 -32 -47 -48 -51 -82 -40 -358 l10 -249 -29 -103 c-49 -173 -129 -398 -179 -503 -65 -136 -141 -267 -364 -625 -297 -476 -333 -547 -358 -710 -23 -149 16 -464 72 -577 39 -81 59 -87 131 -43 82 50 158 112 267 215 55 52 105 95 110 95 57 0 27 -305 -55 -565 -33 -103 -35 -212 -7 -276 20 -45 102 -129 126 -129 16 0 49 -34 67 -69 7 -13 14 -72 16 -132 4 -133 23 -267 75 -524 101 -504 234 -949 559 -1870 321 -909 554 -1484 734 -1810 66 -120 80 -171 53 -192 -6 -6 -38 -13 -69 -17 -142 -16 -274 -78 -391 -186 -129 -118 -175 -304 -133 -540 21 -117 62 -257 91 -306 65 -111 191 -231 293 -279 123 -58 329 -87 462 -65 94 16 229 59 312 101 79 39 222 181 294 291 51 77 134 261 200 443 52 143 126 288 250 486 153 246 259 353 441 443 180 89 343 128 598 142 144 8 253 -9 417 -62 94 -32 112 -35 124 -23 12 13 11 19 -4 46 -33 61 -224 293 -305 370 -143 137 -340 305 -407 348 -227 147 -344 173 -725 159 -126 -4 -248 -8 -270 -7 -55 2 -109 27 -158 72 -84 77 -160 93 -248 54 -58 -26 -74 -46 -95 -118 -21 -74 -15 -252 16 -450 33 -217 26 -263 -45 -281 -36 -9 -120 14 -144 40 -27 28 -57 116 -77 225 -60 327 -116 492 -230 688 -154 264 -180 313 -230 429 -87 200 -145 464 -208 954 -64 490 -89 724 -88 840 0 274 82 588 283 1091 118 296 263 517 544 834 225 252 460 497 626 651 136 126 184 177 203 216 32 65 33 89 1 127 -41 47 -81 56 -255 55 -240 -2 -303 -23 -656 -226 -237 -135 -299 -163 -347 -152 -38 8 -54 38 -60 114 -3 36 -16 97 -28 135 -20 65 -28 77 -123 171 -108 108 -178 152 -258 161 -99 11 -135 49 -125 132 10 84 46 157 185 373 528 818 902 1306 1368 1788 198 204 318 309 403 354 110 57 130 60 303 35 228 -32 309 -13 339 79 17 51 6 132 -25 196 -23 47 -44 69 -119 127 -179 138 -239 161 -450 165 -181 4 -186 6 -247 131 -71 143 -158 210 -355 273 -80 25 -299 37 -370 19z" style="fill: rgb(212, 175, 55);"/>
    <path d="M15475 22558 c-67 -12 -219 -87 -386 -191 -75 -46 -460 -309 -855 -584 -792 -551 -1024 -707 -1374 -928 -315 -198 -488 -323 -577 -416 -40 -42 -84 -138 -91 -195 -6 -54 30 -132 85 -186 72 -70 218 -87 380 -43 145 38 260 85 663 267 1284 581 1715 766 2050 878 173 58 274 80 371 80 69 0 72 -1 109 -38 64 -64 73 -151 35 -332 -33 -155 -156 -452 -286 -692 -233 -430 -442 -699 -604 -780 -230 -115 -588 -178 -1015 -178 -295 0 -484 37 -751 146 -302 123 -453 165 -668 183 -120 11 -265 0 -311 -24 -45 -23 -74 -92 -66 -159 8 -71 120 -390 291 -831 169 -436 233 -621 311 -893 51 -178 201 -820 259 -1107 97 -481 99 -1081 6 -1448 -51 -196 -196 -497 -459 -947 -141 -242 -299 -472 -504 -737 -269 -346 -328 -447 -328 -558 0 -115 26 -179 130 -325 186 -261 433 -501 585 -570 215 -98 549 -160 1034 -191 210 -14 295 -4 482 57 152 49 245 90 390 172 236 134 439 291 649 501 227 228 425 491 634 841 180 302 285 519 376 775 54 154 210 682 250 850 98 409 125 592 125 870 0 199 -2 227 -22 290 -33 105 -113 217 -266 373 -112 114 -239 211 -412 315 -187 113 -275 153 -622 281 -334 123 -350 130 -433 186 -107 73 -148 117 -189 204 -64 133 -66 153 -63 501 3 316 10 392 43 457 37 73 36 73 340 87 583 26 1229 71 1364 95 213 38 385 97 487 168 96 67 359 332 426 431 65 95 122 213 159 332 l27 90 1 420 c0 456 -1 462 -62 650 -65 199 -208 410 -593 875 -102 124 -264 322 -359 440 -172 214 -364 420 -452 485 -77 57 -190 77 -314 53z" style="fill: rgb(212, 175, 55);"/>
    <path d="M7095 22470 c-75 -11 -113 -31 -186 -96 -108 -96 -219 -224 -411 -474 -100 -129 -257 -329 -348 -445 -248 -312 -435 -576 -500 -705 -52 -105 -100 -272 -120 -418 -11 -79 -1 -567 16 -767 9 -119 92 -330 177 -455 82 -119 302 -336 444 -437 108 -77 335 -146 568 -173 132 -15 638 -38 1140 -51 l440 -12 32 -33 c34 -37 59 -102 68 -179 3 -27 10 -172 15 -321 12 -311 5 -377 -55 -502 -72 -153 -188 -232 -533 -368 -371 -145 -446 -178 -575 -252 -273 -157 -495 -339 -638 -525 -146 -189 -164 -242 -163 -497 0 -257 26 -426 125 -824 70 -281 251 -847 334 -1041 119 -281 344 -677 536 -940 453 -624 985 -1040 1534 -1200 156 -45 265 -57 422 -45 467 36 807 102 1034 199 93 41 130 67 266 189 151 136 361 404 432 552 33 69 36 82 36 165 0 78 -4 97 -27 145 -47 95 -121 198 -294 410 -210 257 -290 365 -419 560 -219 333 -442 731 -539 962 -116 277 -168 720 -136 1158 19 257 42 406 136 875 140 696 196 900 406 1485 321 893 341 968 285 1051 -39 58 -63 64 -242 64 -243 -1 -431 -46 -720 -175 -323 -144 -533 -190 -860 -190 -299 0 -523 24 -743 81 -158 41 -247 80 -325 144 -220 182 -527 656 -727 1125 -72 168 -108 299 -116 420 -5 76 -3 90 18 130 13 25 39 55 58 68 32 22 42 24 121 18 182 -13 465 -105 1029 -331 302 -121 1068 -443 1616 -678 274 -118 510 -184 614 -172 99 11 152 31 191 72 86 89 102 175 54 282 -53 118 -200 230 -675 517 -385 232 -539 330 -1378 888 -753 499 -841 555 -1027 652 -167 87 -273 113 -390 94z" style="fill: rgb(212, 175, 55);"/>
    <path d="M11598 19564 c-5 -4 -8 -16 -8 -27 0 -11 74 -319 164 -686 163 -660 187 -763 225 -996 44 -260 52 -556 18 -621 -40 -76 -126 -127 -261 -155 -129 -26 -503 -29 -633 -4 -147 27 -245 101 -264 197 -11 60 -11 296 1 419 18 185 78 516 155 859 168 744 215 961 215 986 0 74 -74 -19 -201 -253 -234 -430 -440 -886 -538 -1185 -55 -169 -142 -521 -196 -793 -55 -277 -65 -355 -67 -502 -1 -103 2 -127 24 -191 34 -95 76 -159 149 -226 89 -82 142 -115 246 -152 181 -65 224 -69 733 -66 600 3 723 15 906 90 90 37 149 78 234 164 78 78 120 154 146 264 36 155 -25 515 -187 1106 -99 363 -212 652 -394 1003 -264 513 -438 799 -467 769z" style="fill: rgb(212, 175, 55);"/>
    <path d="M10815 15850 c-407 -16 -457 -20 -519 -40 -80 -25 -110 -54 -131 -123 -26 -87 -13 -238 36 -432 81 -317 369 -808 788 -1345 150 -192 464 -575 476 -580 15 -6 417 510 627 805 173 243 386 602 477 803 96 213 140 370 164 580 10 90 9 112 -6 169 -25 94 -46 118 -125 144 -61 20 -98 23 -402 30 -504 11 -887 8 -1385 -11z" style="fill: rgb(212, 175, 55);"/>
    <path d="M18915 12382 c-95 -24 -168 -66 -241 -137 -84 -83 -119 -157 -119 -252 0 -63 3 -76 30 -114 17 -24 69 -73 115 -109 134 -102 201 -174 245 -262 l38 -78 -6 -112 c-3 -74 -14 -147 -31 -213 -15 -55 -32 -129 -40 -165 -10 -55 -46 -123 -232 -450 -255 -446 -396 -669 -666 -1056 -499 -715 -992 -1456 -1148 -1724 -121 -209 -222 -328 -303 -358 -114 -43 -171 -37 -231 24 -39 40 -59 82 -115 247 -27 80 -69 180 -94 223 -118 208 -144 245 -233 327 -196 180 -213 192 -338 246 -253 109 -389 137 -611 128 -185 -8 -299 -43 -474 -147 -61 -36 -71 -47 -94 -98 -60 -135 -62 -305 -6 -479 18 -55 30 -72 99 -135 87 -81 166 -133 244 -159 56 -20 96 -18 190 9 102 28 147 96 166 248 14 111 43 120 141 43 143 -114 212 -201 339 -427 36 -64 72 -115 89 -127 34 -22 34 11 0 -305 -27 -255 -57 -416 -118 -630 -89 -312 -178 -561 -298 -835 -96 -217 -149 -379 -164 -497 -13 -107 -6 -389 12 -434 34 -88 29 -329 -10 -475 -78 -295 -55 -526 62 -613 37 -27 127 -28 177 -2 19 10 80 65 136 121 112 113 166 202 197 325 142 562 174 756 193 1180 11 250 54 425 135 551 69 106 154 184 364 334 233 166 333 263 495 481 138 185 285 360 329 390 41 27 96 32 127 9 12 -8 34 -40 49 -72 44 -93 111 -180 162 -210 58 -34 157 -38 213 -8 52 27 149 124 175 176 51 99 56 142 65 509 17 688 69 901 318 1293 76 121 240 339 328 436 85 94 216 192 285 211 46 14 54 -2 26 -51 -14 -24 -33 -71 -42 -104 -15 -57 -15 -63 5 -126 38 -117 132 -210 245 -240 44 -12 158 -6 220 12 54 15 128 92 149 155 20 60 35 176 36 267 0 73 16 116 52 141 35 25 69 19 159 -26 109 -54 198 -142 253 -250 36 -71 38 -82 33 -137 -12 -139 -132 -271 -356 -393 -112 -61 115 -122 328 -88 113 19 277 121 332 208 67 106 81 216 58 462 -23 253 -153 512 -330 661 -47 39 -60 68 -41 95 4 6 33 28 65 49 79 51 105 94 123 199 18 102 9 171 -34 256 -78 156 -184 136 -522 -100 -98 -68 -185 -100 -271 -100 -50 0 -64 4 -84 25 -16 15 -25 36 -25 55 0 32 54 178 100 270 15 30 56 120 90 200 113 264 224 484 253 503 33 22 35 50 7 165 -20 83 -40 129 -86 191 -13 19 -34 66 -46 104 l-21 69 23 48 23 48 -23 73 c-30 98 -57 151 -132 250 -91 120 -213 241 -273 269 -66 30 -151 34 -240 12z" style="fill: rgb(212, 175, 55);"/>
    <path d="M11340 12183 c-164 -191 -446 -477 -555 -563 -108 -85 -244 -174 -329 -215 -39 -18 -199 -77 -356 -130 -311 -106 -449 -166 -511 -222 -83 -75 -131 -215 -148 -434 -20 -247 -9 -389 44 -574 73 -255 278 -557 485 -715 254 -194 275 -219 268 -324 -3 -52 -16 -85 -87 -229 -46 -93 -120 -224 -166 -292 -45 -67 -90 -146 -100 -175 -43 -130 28 -229 155 -215 116 14 230 69 409 198 95 68 313 275 356 337 47 68 95 64 139 -13 13 -23 56 -150 96 -282 88 -296 172 -529 351 -976 77 -190 139 -351 139 -358 0 -6 5 -11 10 -11 6 0 10 8 10 18 0 9 14 53 31 97 223 576 381 1046 469 1394 12 46 30 101 40 122 18 35 63 79 81 79 4 0 74 -66 156 -147 151 -151 238 -220 405 -320 115 -69 182 -94 274 -101 92 -6 128 11 156 75 35 80 7 166 -102 312 -66 87 -127 192 -211 363 -93 191 -83 245 73 373 189 155 214 178 282 253 132 147 262 376 311 547 45 159 58 263 51 435 -12 327 -55 496 -153 594 -42 43 -208 119 -373 172 -502 159 -559 182 -725 291 -179 119 -397 318 -658 603 -93 102 -173 186 -176 187 -3 1 -67 -68 -141 -154z" style="fill: rgb(212, 175, 55);"/>
    <path d="M3833 12212 c-76 -30 -128 -77 -234 -210 -113 -140 -157 -218 -189 -333 l-20 -73 25 -42 c24 -40 24 -44 10 -95 -20 -78 -33 -110 -62 -148 -35 -46 -60 -115 -78 -218 l-15 -87 39 -40 c29 -30 72 -107 154 -276 172 -353 273 -569 293 -625 32 -93 -4 -140 -105 -139 -93 1 -158 27 -301 121 -153 98 -244 146 -313 164 -44 11 -51 10 -95 -13 -57 -29 -85 -74 -107 -172 -13 -57 -14 -82 -4 -145 19 -129 42 -167 139 -229 91 -59 92 -69 2 -159 -122 -122 -204 -257 -255 -420 -34 -105 -47 -215 -47 -381 0 -153 17 -221 77 -310 43 -64 167 -150 260 -181 106 -36 362 -24 415 19 32 25 18 45 -59 84 -144 72 -267 187 -302 282 -29 77 -27 136 8 209 62 130 152 219 283 280 69 32 108 32 141 -1 29 -28 31 -36 46 -198 16 -156 35 -217 88 -276 59 -65 111 -85 228 -85 79 0 97 3 145 28 119 61 195 176 195 294 0 50 -7 73 -37 132 -21 41 -32 74 -26 77 38 24 187 -65 307 -185 173 -172 413 -505 517 -716 121 -248 173 -546 189 -1090 10 -313 36 -415 135 -516 93 -95 183 -126 285 -98 59 16 140 105 195 215 53 106 78 124 143 104 60 -18 180 -146 392 -420 147 -189 262 -296 480 -444 238 -161 263 -182 338 -275 121 -152 169 -308 192 -626 28 -370 60 -574 135 -840 21 -77 50 -187 64 -245 14 -58 44 -143 66 -189 34 -71 57 -101 138 -181 118 -118 163 -149 228 -156 146 -16 229 141 203 384 -6 59 -27 168 -46 242 -41 159 -54 333 -33 435 20 90 26 243 18 398 -6 126 -11 149 -51 270 -25 73 -79 205 -121 294 -152 323 -299 725 -377 1031 -37 144 -90 469 -105 646 -7 78 -7 80 20 101 15 12 58 79 97 150 104 192 149 254 260 359 131 125 175 136 192 50 40 -197 62 -237 152 -273 42 -16 82 -24 130 -25 62 -1 80 3 136 32 76 39 218 156 254 210 59 89 84 317 50 458 -25 107 -58 150 -152 201 -46 25 -127 61 -180 80 -95 35 -103 36 -269 41 -241 6 -354 -20 -628 -144 -105 -47 -113 -53 -257 -193 -101 -96 -161 -163 -186 -205 -84 -142 -153 -288 -183 -386 -52 -172 -86 -245 -133 -286 -42 -35 -43 -36 -117 -32 -50 3 -89 12 -116 26 -59 30 -168 152 -244 271 -229 362 -673 1003 -1098 1586 -442 606 -541 753 -829 1235 -237 397 -223 371 -239 440 -7 30 -27 109 -44 175 -26 96 -33 141 -34 225 -1 101 0 108 34 174 42 85 105 155 220 246 130 102 166 160 158 250 -11 110 -106 238 -231 314 -103 61 -266 83 -354 48z" style="fill: rgb(212, 175, 55);"/>
    <path d="M14723 7040 c-113 -23 -289 -124 -362 -206 -42 -48 -166 -288 -229 -444 -22 -52 -76 -174 -122 -271 -73 -156 -98 -196 -222 -365 -163 -221 -331 -458 -448 -634 -46 -69 -119 -172 -163 -230 -44 -58 -210 -301 -370 -540 -398 -597 -461 -679 -729 -951 -153 -156 -241 -226 -410 -329 l-88 -53 -117 71 c-173 103 -231 149 -412 326 -243 239 -352 374 -626 771 -228 330 -397 567 -479 670 -40 50 -110 144 -156 210 -118 169 -248 345 -444 600 -184 239 -175 224 -465 829 -125 260 -174 319 -337 403 -119 61 -172 76 -263 72 -62 -3 -89 -10 -137 -34 -70 -36 -107 -86 -155 -208 -43 -111 -48 -184 -19 -278 27 -91 88 -160 160 -179 117 -32 135 -55 132 -170 -3 -138 11 -190 102 -380 97 -201 148 -333 170 -440 31 -152 46 -364 46 -652 0 -156 5 -312 11 -348 19 -121 69 -166 171 -157 154 14 207 126 208 437 0 80 -5 207 -10 284 -11 154 -3 216 29 216 23 0 46 -25 127 -145 125 -186 216 -299 458 -575 362 -411 586 -738 655 -955 54 -168 64 -241 58 -425 -3 -91 -13 -219 -22 -285 -13 -90 -16 -162 -12 -285 5 -176 22 -257 96 -472 l29 -87 -64 -163 c-104 -260 -186 -517 -289 -898 -53 -195 -121 -444 -151 -553 -30 -108 -52 -202 -49 -207 18 -30 112 61 275 265 224 281 373 540 560 977 l132 307 54 31 c30 16 54 35 54 41 0 6 -11 24 -24 40 l-25 29 26 62 c65 160 173 346 240 413 87 88 211 160 376 219 l96 35 98 -33 c166 -57 251 -102 351 -185 82 -68 187 -231 268 -414 35 -81 35 -86 0 -125 -21 -24 -21 -24 -1 -39 11 -8 37 -23 58 -33 37 -17 43 -27 161 -286 155 -339 189 -406 287 -567 141 -229 294 -430 453 -595 82 -85 130 -120 141 -102 3 5 -26 114 -64 242 -38 128 -111 372 -161 543 -120 404 -227 705 -344 967 l-25 57 24 72 c14 40 40 129 57 198 31 119 33 136 33 301 0 135 -6 210 -25 330 -18 117 -24 194 -24 315 0 147 3 170 31 276 71 267 257 558 688 1074 207 248 267 327 378 495 124 188 140 208 164 194 10 -6 20 -22 24 -35 3 -13 4 -148 1 -299 -4 -250 -2 -284 17 -375 33 -163 86 -217 212 -219 63 0 71 2 99 29 57 55 64 104 56 415 -14 567 23 795 186 1145 94 202 97 214 98 347 0 165 13 189 116 217 99 27 159 103 185 238 10 53 9 73 -5 130 -24 92 -76 202 -120 251 -59 65 -186 102 -283 82z m-2348 -4371 c71 -20 164 -145 189 -254 6 -27 -3 -20 -81 56 -48 48 -119 112 -158 144 -38 32 -72 60 -74 61 -10 9 88 3 124 -7z m-1455 -6 c-1 -5 -24 -26 -52 -48 -28 -22 -98 -87 -156 -144 -114 -113 -121 -112 -66 9 53 118 103 165 192 180 65 11 82 11 82 3z" style="fill: rgb(212, 175, 55);"/>
  </g>
</svg>