<svg id="svg" version="1.1" xmlns="http://www.w3.org/2000/svg" xmlns:xlink="http://www.w3.org/1999/xlink" width="400" height="400" viewBox="0, 0, 400,400"><g id="svgg"><path id="path0" d="M84.000 100.999 L 84.000 109.197 141.700 109.299 L 199.400 109.400 199.400 142.400 L 199.400 175.400 166.500 175.502 L 133.600 175.605 133.600 183.802 L 133.600 192.000 166.600 192.000 L 199.600 192.000 199.600 249.800 L 199.600 307.600 207.800 307.600 L 216.000 307.600 216.000 249.800 L 216.000 192.000 240.800 192.000 L 265.600 192.000 265.600 249.800 L 265.600 307.600 273.800 307.600 L 282.000 307.600 282.000 241.600 L 282.000 175.600 249.000 175.600 L 216.000 175.600 216.000 134.200 L 216.000 92.800 150.000 92.800 L 84.000 92.800 84.000 100.999 M232.400 299.400 L 232.400 307.600 240.600 307.600 L 248.800 307.600 248.800 301.859 C 248.800 298.701,248.916 295.011,249.057 293.659 L 249.314 291.200 240.857 291.200 L 232.400 291.200 232.400 299.400 " stroke="none" fill="#fbfbfb" fill-rule="evenodd"></path></g></svg>